<svg width="512" height="512" viewBox="0 0 512 512" fill="none" xmlns="http://www.w3.org/2000/svg">
<path d="M455.088 294.932L425.094 250.421C421.191 231.544 401.423 136.043 395.96 111.177C391.771 92.1119 369.012 79.616 319.86 69.3953C288.979 62.974 259.386 60.0643 258.141 59.9435C257.728 59.9036 257.313 59.8837 256.899 59.8837C256.484 59.8837 256.069 59.9036 255.657 59.9435C254.412 60.0643 224.819 62.974 193.938 69.3953C144.786 79.616 122.027 92.1108 117.838 111.177C112.375 136.043 92.6075 231.543 88.7031 250.421L58.7097 294.932C56.7267 297.875 55.7343 301.492 55.9032 305.158C57.4621 338.896 69.3534 369.783 91.2478 396.961C108.171 417.966 131.074 436.71 159.32 452.671C206.528 479.348 252.321 489.153 254.247 489.557C255.122 489.741 256.01 489.833 256.898 489.833C257.785 489.833 258.673 489.741 259.548 489.557C261.475 489.153 307.268 479.347 354.476 452.671C382.722 436.71 405.625 417.966 422.547 396.961C444.443 369.784 456.334 338.897 457.893 305.158C458.064 301.493 457.071 297.875 455.088 294.932Z" fill="black"/>
<path d="M411.891 257.178C411.891 257.178 388.219 142.609 382.131 114.903C376.044 87.1969 256.899 75.6422 256.899 75.6422C256.899 75.6422 137.755 87.1969 131.668 114.903C125.58 142.609 101.908 257.178 101.908 257.178L70.118 304.354C76.2055 436.146 256.899 474.077 256.899 474.077C256.899 474.077 437.593 436.146 443.681 304.354L411.891 257.178Z" fill="#D5B198"/>
<path d="M282.559 257.557H231.239C231.239 257.557 85.4706 290.777 89.7696 327.028C98.2623 398.643 214.86 457.672 256.898 460.785C298.938 457.672 415.535 398.643 424.027 327.028C428.327 290.777 282.559 257.557 282.559 257.557Z" fill="#7F634E"/>
<path d="M320.699 187.723C336.498 187.594 349.437 206.806 349.596 230.636C349.755 254.466 337.078 273.889 321.277 274.018C305.477 274.147 292.538 254.935 292.379 231.105C292.219 207.275 304.9 187.852 320.699 187.723Z" fill="black"/>
<path d="M312.271 209.038C313.828 199.019 322.14 192.241 330.836 193.896C339.532 195.551 345.321 205.015 343.765 215.034C342.209 225.052 333.896 231.831 325.203 230.175C316.503 228.518 310.715 219.056 312.271 209.038Z" fill="white"/>
<path d="M316.538 241.642C317.073 238.194 319.938 235.862 322.935 236.432C325.93 237.004 327.926 240.262 327.391 243.708C326.855 247.156 323.993 249.488 320.995 248.918C317.998 248.347 316.002 245.089 316.538 241.642Z" fill="white"/>
<path d="M164.201 230.627C164.359 206.796 177.297 187.584 193.098 187.712C208.898 187.842 221.578 207.264 221.419 231.094C221.26 254.925 208.321 274.139 192.521 274.008C176.72 273.879 164.041 254.458 164.201 230.627Z" fill="black"/>
<path d="M184.463 209.068C186.018 199.049 194.331 192.27 203.028 193.926C211.723 195.581 217.512 205.045 215.956 215.064C214.4 225.081 206.088 231.861 197.391 230.204C188.694 228.549 182.907 219.085 184.463 209.068Z" fill="white"/>
<path d="M188.729 241.672C189.264 238.223 192.129 235.892 195.124 236.462C198.121 237.033 200.116 240.291 199.582 243.737C199.046 247.185 196.183 249.518 193.186 248.946C190.189 248.377 188.193 245.12 188.729 241.672Z" fill="white"/>
<path d="M333.623 305.893C323.849 323.776 278.314 336.585 263.853 299.942C263.133 299.956 263.467 288.493 262.449 279.315C260.305 279.411 258.139 279.423 255.949 279.332C254.411 279.327 252.885 279.272 251.364 279.196C250.328 288.394 250.668 299.959 249.943 299.942C235.481 336.585 189.947 323.776 180.173 305.893C180.173 305.893 175.527 303.893 178.146 313.669C182.003 321.919 183.443 334.05 203.515 338.961C204.004 339.083 186.515 416.403 256.899 416.403C327.281 416.403 309.796 339.083 310.284 338.961C330.358 334.05 331.796 321.919 335.653 313.669C338.269 303.889 333.623 305.893 333.623 305.893Z" fill="black"/>
<path d="M182.396 276.609C183.023 284.541 170.231 292.256 153.824 293.839C137.417 295.425 123.611 290.28 122.985 282.354C122.361 274.426 135.153 266.71 151.557 265.123C167.964 263.535 181.77 268.677 182.396 276.609Z" fill="#FF4076"/>
<path d="M362.242 265.124C378.645 266.712 391.437 274.427 390.813 282.355C390.187 290.281 376.381 295.425 359.974 293.84C343.567 292.256 330.775 284.541 331.402 276.61C332.028 268.677 345.834 263.535 362.242 265.124Z" fill="#FF4076"/>
<path d="M297.262 265.55L297.281 265.442L297.248 265.333L297.242 265.251C296.079 258.954 286.88 254.74 276.282 252.408C269.852 250.898 262.908 250.136 256.899 250.201C250.889 250.136 243.946 250.897 237.516 252.408C226.918 254.739 217.718 258.952 216.556 265.251L216.55 265.333L216.517 265.442L216.535 265.55C216.51 266.008 216.602 266.509 216.817 267.053C220.14 280.504 245.675 291.171 245.675 291.171C249.142 293.38 253.031 294.411 256.899 294.288C260.767 294.411 264.657 293.38 268.124 291.171C268.124 291.171 293.658 280.504 296.981 267.053C297.195 266.509 297.288 266.008 297.262 265.55Z" fill="black"/>
<path d="M252.654 259.088C258.567 259.088 263.363 261.28 263.363 263.985C263.363 266.69 258.567 268.88 252.654 268.88C246.739 268.88 241.944 266.689 241.944 263.985C241.944 261.281 246.739 259.088 252.654 259.088Z" fill="white"/>
<path d="M267.676 266.32C268.997 266.32 270.069 265.177 270.069 263.767C270.069 262.356 268.997 261.213 267.676 261.213C266.354 261.213 265.283 262.356 265.283 263.767C265.283 265.177 266.354 266.32 267.676 266.32Z" fill="white"/>
<path d="M322.95 139.891C304.273 138.696 293.801 156.744 289.374 164.751C286.35 172.878 292.72 175.867 296.5 173.834C306.432 165.706 318.632 150.408 349.183 177.181C355.121 180.05 361.707 175.268 356.524 165.469C348.753 153.516 337.849 140.847 322.95 139.891Z" fill="black"/>
<path d="M157.273 165.469C152.09 175.269 158.676 180.05 164.614 177.181C195.274 150.409 207.366 165.707 217.297 173.834C220.967 175.867 227.445 172.878 224.422 164.751C219.995 156.743 209.416 138.695 190.847 139.891C175.949 140.846 165.045 153.516 157.273 165.469Z" fill="black"/>
<path d="M220.063 288.111C220.063 290.499 218.314 292.436 216.156 292.436C213.999 292.436 212.249 290.499 212.249 288.111C212.249 285.723 213.998 283.786 216.156 283.786C218.314 283.786 220.063 285.723 220.063 288.111Z" fill="black"/>
<path d="M211.356 302.94C211.356 305.329 209.608 307.266 207.449 307.266C205.291 307.266 203.542 305.329 203.542 302.94C203.542 300.552 205.291 298.616 207.449 298.616C209.608 298.616 211.356 300.552 211.356 302.94Z" fill="black"/>
<path d="M228.77 302.94C228.77 305.329 227.021 307.266 224.862 307.266C222.705 307.266 220.955 305.329 220.955 302.94C220.955 300.552 222.705 298.616 224.862 298.616C227.021 298.616 228.77 300.552 228.77 302.94Z" fill="black"/>
<path d="M301.548 288.111C301.548 290.499 299.799 292.436 297.642 292.436C295.484 292.436 293.735 290.499 293.735 288.111C293.735 285.723 295.484 283.786 297.642 283.786C299.799 283.786 301.548 285.723 301.548 288.111Z" fill="black"/>
<path d="M292.842 302.94C292.842 305.329 291.092 307.266 288.935 307.266C286.778 307.266 285.029 305.329 285.029 302.94C285.029 300.552 286.778 298.616 288.935 298.616C291.092 298.616 292.842 300.552 292.842 302.94Z" fill="black"/>
<path d="M310.255 302.94C310.255 305.329 308.506 307.266 306.349 307.266C304.191 307.266 302.442 305.329 302.442 302.94C302.442 300.552 304.191 298.616 306.349 298.616C308.506 298.616 310.255 300.552 310.255 302.94Z" fill="black"/>
<path d="M302.123 35.8604C296.739 27.561 288.274 23 278.276 23C277.508 23 276.722 23.0273 275.937 23.0809C269.477 23.5221 258.051 26.5284 233.477 47.4487C221.132 57.9583 213.253 66.3932 212.832 66.8239C210.797 68.9016 231.094 93.4071 241.915 94.156C241.915 94.156 242.253 125.606 275.148 120.956C287.995 119.139 296.382 108.388 298.269 96.2884C298.97 91.7967 298.643 87.1675 297.456 82.8408C309.149 68.9709 311.07 49.6914 302.123 35.8604Z" fill="black"/>
<path d="M220.328 80.1926C220.328 80.1926 259.702 39.976 276.812 38.8068C284.496 38.2827 288.522 41.9024 290.553 45.0348C295.521 52.7145 294.043 63.8868 286.955 72.2031C284.414 75.179 281.4 77.6716 278.493 79.6821L279.147 80.1244C282.288 82.3786 285.14 87.8723 284.245 93.6056C283.712 97.0163 281.384 103.115 271.758 105.651C245.65 112.952 219.932 80.5351 220.328 80.1926Z" fill="#D5B198"/>
<path d="M504.472 128.551C490.337 108.133 460.703 85.763 438.332 70.5916C420.707 58.6378 390.845 40.2017 380.826 38.4076C378.556 38.0011 376.21 37.7952 373.849 37.7952C350.852 37.7952 330.851 56.7512 329.027 59.3058C319.473 72.6893 318.57 81.6747 318.57 81.6747L360.944 94.6738C361.423 123.585 364.946 150.705 371.444 175.442C377.433 198.24 385.95 219.081 396.759 237.39C413.887 266.404 431.678 280.188 435.375 282.863C439.361 286.092 455.079 297.965 470.588 297.965C484.421 297.965 494.967 288.584 498.798 272.872C499.083 271.707 499.245 270.508 499.283 269.302L501.134 209.139C502.874 204.352 506.311 194.254 508.829 182.744C514.19 158.254 512.764 140.528 504.472 128.551Z" fill="black"/>
<path d="M338.652 70.9121C338.652 70.9121 358.804 50.4267 378.552 53.9624C388.771 55.7923 469.716 104.251 493.177 138.137C506.273 157.054 487 205.742 487 205.742L485.061 268.765C477.847 298.344 443.464 269.887 443.464 269.887C443.464 269.887 373.459 222.567 375.149 82.9049L375.837 71.1915L363.552 79.0939L338.652 70.9121Z" fill="#7F634E"/>
<path d="M7.5287 128.551C21.6639 108.134 51.2968 85.763 73.6685 70.5927C91.2943 58.6389 121.156 40.2028 131.175 38.4087C133.445 38.0021 135.791 37.7963 138.152 37.7963H138.153C161.15 37.7963 181.151 56.7523 182.974 59.3069C192.528 72.6904 193.431 81.6758 193.431 81.6758L151.057 94.6749C150.578 123.586 147.055 150.706 140.557 175.443C134.568 198.241 126.051 219.082 115.242 237.391C98.1143 266.405 80.3234 280.189 76.6259 282.864C72.64 286.093 56.9222 297.966 41.4131 297.966C27.5797 297.966 17.0338 288.585 13.2025 272.873C12.9179 271.708 12.7556 270.509 12.7177 269.303L10.8666 209.14C9.12648 204.353 5.68993 194.255 3.17182 182.745C-2.18984 158.254 -0.763794 140.528 7.5287 128.551Z" fill="black"/>
<path d="M173.348 70.9121C173.348 70.9121 153.196 50.4267 133.448 53.9624C123.229 55.7923 42.2841 104.251 18.8232 138.137C5.72694 157.054 24.9999 205.742 24.9999 205.742L26.9392 268.765C34.1529 298.344 68.5364 269.887 68.5364 269.887C68.5364 269.887 138.541 222.567 136.85 82.9049L136.162 71.1915L148.448 79.0939L173.348 70.9121Z" fill="#7F634E"/>
<path d="M229.541 363.45C229.541 363.45 228.678 377.214 242.524 383.431C242.524 383.431 222.094 443.635 270.116 443.635C318.094 443.635 294.466 351.53 266.93 361.877L264.981 374.317C264.981 374.317 262.361 362.717 255.064 360.205C237.989 357.549 229.541 363.45 229.541 363.45Z" fill="#FF4076"/>
</svg>
