<svg width="512" height="512" viewBox="0 0 512 512" fill="none" xmlns="http://www.w3.org/2000/svg">
<g clip-path="url(#clip0_1101_248)">
<path d="M472.086 52.8881C451.83 31.0897 423.856 13.8672 393.318 4.39298C391.732 3.90174 390.111 3.6637 388.511 3.6637C383.326 3.6637 378.332 6.15451 375.236 10.5551C371.183 16.3147 371.307 24.0306 375.543 29.6571C390.208 49.1346 399.862 65.5987 404.239 78.5927C407.001 86.7879 407.516 93.3147 405.691 96.973C403.07 102.228 392.673 105.366 377.883 105.366C366.557 105.366 356.89 103.498 356.796 103.479C355.736 103.267 354.671 103.164 353.615 103.164C348.756 103.164 344.084 105.35 340.968 109.223C326.692 126.972 325.482 143.387 326.983 154.032C330.561 179.417 351.607 194.893 353.996 196.573C355.764 197.816 357.76 198.695 359.872 199.157C360.703 199.339 380.504 203.607 404.834 203.607C429.494 203.607 450.101 199.287 466.082 190.766C489.336 178.368 502.391 157.245 503.834 129.681C505.195 103.657 493.922 76.3843 472.086 52.8881Z" fill="black"/>
<path d="M158.386 103.164C157.329 103.164 156.266 103.267 155.205 103.479C155.136 103.493 145.461 105.366 134.118 105.366C119.326 105.366 108.931 102.228 106.309 96.973C104.483 93.3147 104.999 86.7868 107.76 78.5927C112.136 65.5997 121.792 49.1346 136.456 29.6571C140.692 24.0306 140.816 16.3147 136.763 10.5551C133.668 6.15451 128.673 3.6637 123.489 3.6637C121.888 3.6637 120.269 3.90066 118.682 4.39298C88.1436 13.8672 60.1701 31.0897 39.9136 52.8881C18.0795 76.3843 6.80478 103.657 8.16813 129.681C9.61046 157.245 22.6651 178.367 45.9188 190.766C61.9003 199.287 82.5074 203.607 107.167 203.607C131.496 203.607 151.298 199.339 152.129 199.157C154.24 198.695 156.237 197.816 158.004 196.573C160.394 194.892 181.44 179.417 185.017 154.032C186.518 143.388 185.309 126.973 171.032 109.223C167.917 105.35 163.245 103.164 158.386 103.164Z" fill="black"/>
<g filter="url(#filter0_i_1101_248)">
<path d="M353.615 119.395C353.615 119.395 482.873 145.232 388.51 19.8951C445.147 37.465 490.001 83.4553 487.625 128.832C483.399 209.546 363.339 183.301 363.339 183.301C363.339 183.301 324.31 155.827 353.615 119.395Z" fill="#F3F3F3"/>
</g>
<g filter="url(#filter1_i_1101_248)">
<path d="M158.385 119.395C158.385 119.395 29.128 145.232 123.49 19.8951C66.8538 37.465 21.9996 83.4553 24.3758 128.832C28.6021 209.546 148.662 183.301 148.662 183.301C148.662 183.301 187.691 155.827 158.385 119.395Z" fill="#F3F3F3"/>
</g>
<path d="M509.226 198.004C508.855 197.455 499.987 184.398 485.621 171.12C465.31 152.347 444.408 142.286 423.498 141.218C421.147 141.097 418.765 141.036 416.425 141.036C394.981 141.036 374.709 146.164 359.342 155.476C341.51 166.282 331.444 181.758 330.999 199.053C330.539 217.017 340.494 233.842 359.03 246.432C375.258 257.454 396.732 264.166 419.495 265.331C420.71 265.394 421.945 265.425 423.168 265.425C470.309 265.425 507.029 219.035 508.569 217.06C512.888 211.52 513.154 203.828 509.226 198.004Z" fill="black"/>
<path d="M152.657 155.477C137.289 146.165 117.017 141.036 95.575 141.036C93.2335 141.036 90.852 141.098 88.4964 141.218C67.5918 142.286 46.6903 152.347 26.3786 171.12C12.0115 184.398 3.14433 197.454 2.77428 198.004C-1.15454 203.829 -0.889444 211.52 3.43215 217.06C4.97187 219.035 41.6957 265.424 88.8329 265.424C90.0545 265.424 91.2902 265.393 92.5053 265.33C115.269 264.165 136.743 257.453 152.971 246.431C171.507 233.841 181.462 217.016 181.002 199.054C180.556 181.758 170.491 166.283 152.657 155.477Z" fill="black"/>
<path d="M422.67 157.427C463.696 159.523 495.771 207.079 495.771 207.079C495.771 207.079 461.348 251.217 420.323 249.123C379.306 247.022 346.576 224.795 347.223 199.471C347.876 174.143 381.661 155.319 422.67 157.427Z" fill="#EF5B44"/>
<path d="M412.515 186.12C435.137 187.275 463.643 213.498 463.643 213.498C463.643 213.498 433.842 237.837 411.221 236.682C388.605 235.524 370.557 223.268 370.914 209.303C371.273 195.336 389.902 184.957 412.515 186.12Z" fill="#F1B3AA"/>
<path d="M89.3307 157.427C48.3047 159.523 16.2303 207.079 16.2303 207.079C16.2303 207.079 50.6527 251.217 91.6765 249.123C132.694 247.022 165.425 224.795 164.776 199.471C164.125 174.143 130.34 155.319 89.3307 157.427Z" fill="#EF5B44"/>
<path d="M99.4844 186.12C76.8626 187.275 48.3567 213.498 48.3567 213.498C48.3567 213.498 78.1577 237.837 100.779 236.682C123.396 235.524 141.444 223.268 141.086 209.303C140.727 195.336 122.098 184.957 99.4844 186.12Z" fill="#F1B3AA"/>
<path d="M434.303 236.476C434.225 236.256 434.143 236.04 434.055 235.824C424.716 209.974 409.767 188.848 403.013 180.06C402.3 172.396 400.229 158.316 394.234 144.17C381.772 114.766 358.192 98.5712 327.839 98.5712H184.163C153.809 98.5712 130.229 114.766 117.767 144.17C111.773 158.314 109.702 172.393 108.989 180.058C102.703 188.231 89.3263 207.071 79.9809 230.433C72.437 249.291 69.034 267.294 69.8661 283.937C70.9492 305.602 79.0763 324.65 94.0255 340.562L102.427 350.673C102.474 351.02 102.524 351.366 102.573 351.71C105.16 369.353 112.329 387.366 123.901 405.317C124.582 419.607 128.847 446.204 149.245 469.084C172.469 495.13 208.388 508.337 256.001 508.337C303.614 508.337 339.532 495.13 362.755 469.084C383.155 446.205 387.419 419.607 388.1 405.317C399.671 387.366 406.84 369.353 409.426 351.71C409.476 351.367 409.525 351.021 409.572 350.675L417.976 340.562C443.321 313.582 448.967 277.606 434.303 236.476Z" fill="black"/>
<path d="M419.016 241.927L419.008 241.946C407.814 210.533 387.155 186.205 387.155 186.205C387.155 186.205 385.953 114.802 327.838 114.802H184.163C126.049 114.802 124.845 186.205 124.845 186.205C124.845 186.205 51.6146 272.357 106.179 329.792L118.031 344.054C118.179 345.813 118.372 347.58 118.633 349.356C121.057 365.896 128.247 383 140.022 400.257C139.951 411.325 142.14 436.723 161.361 458.281C181.373 480.726 213.215 492.107 256.001 492.107C298.789 492.107 330.63 480.726 350.642 458.281C369.865 436.723 372.052 411.325 371.981 400.257C383.755 383 390.943 365.898 393.368 349.357C393.628 347.579 393.829 345.812 393.973 344.053L405.824 329.792C431.4 302.867 428.895 269.637 419.016 241.927Z" fill="#EF5B44"/>
<path d="M315.376 285.456C292.518 296.301 276.443 308.611 256 308.779C235.558 308.612 219.482 296.302 196.624 285.456C160.787 268.452 97.2911 317.935 153.792 396.229C153.792 396.229 144.332 478.519 256 478.519C367.668 478.519 358.207 396.229 358.207 396.229C414.709 317.935 351.213 268.452 315.376 285.456Z" fill="#F1B3AA"/>
<path d="M334.176 324.138C341.684 334.768 339.492 349.236 329.277 356.451C319.064 363.668 298.345 367.251 290.836 356.622C283.326 345.994 291.869 325.175 302.084 317.961C312.299 310.744 326.667 313.509 334.176 324.138Z" fill="black"/>
<path d="M177.824 324.138C170.315 334.768 172.508 349.236 182.723 356.451C192.938 363.668 213.656 367.251 221.165 356.622C228.676 345.994 220.132 325.175 209.918 317.961C199.701 310.744 185.333 313.509 177.824 324.138Z" fill="black"/>
<path d="M370.705 270.004C387.798 270.621 401.43 277.174 401.161 284.636C400.889 292.095 386.819 297.643 369.727 297.025C352.638 296.407 339.002 289.856 339.272 282.394C339.544 274.93 353.62 269.383 370.705 270.004Z" fill="#FF4076"/>
<path d="M172.551 284.209C173.203 291.648 159.919 298.885 142.882 300.372C125.846 301.859 111.51 297.034 110.859 289.599C110.21 282.162 123.494 274.926 140.528 273.436C157.565 271.947 171.902 276.769 172.551 284.209Z" fill="#FF4076"/>
<path d="M308.441 69.6768C302.235 61.0347 292.467 56.2836 280.929 56.2836H280.928C280.04 56.2836 279.13 56.3117 278.225 56.368C270.788 56.8267 257.605 59.9083 229.074 81.2826C214.688 92.0596 202.996 102.54 202.506 102.98C199.186 105.965 197.135 114.489 197.135 114.489L222.78 114.347C222.78 114.347 244.056 161.528 277.197 158.737C292.097 157.482 301.71 145.643 303.885 133.048C304.706 128.303 304.305 123.41 302.886 118.849C316.525 104.36 318.807 84.1521 308.441 69.6768Z" fill="black"/>
<path d="M213.353 115.054C213.353 115.054 259.269 73.7993 279.221 72.568C288.181 72.0172 292.876 75.8281 295.246 79.1272C301.039 87.2175 299.317 98.9845 291.051 107.745C288.087 110.879 284.572 113.505 281.183 115.622L281.946 116.088C285.608 118.463 288.936 124.249 287.89 130.288C287.27 133.881 284.555 140.305 273.329 142.976C242.883 150.667 212.892 115.414 213.353 115.054Z" fill="#EF5B44"/>
<path d="M285.694 81.5012C287.824 85.1909 281.326 92.9295 271.181 98.7876C261.035 104.646 251.083 106.403 248.954 102.713C246.823 99.0235 253.322 91.2838 263.467 85.4268C273.612 79.5698 283.564 77.8115 285.694 81.5012Z" fill="#F1B3AA"/>
<path d="M245.285 106.702C246.402 108.639 244.943 111.575 242.023 113.261C239.104 114.946 235.831 114.743 234.713 112.806C233.596 110.869 235.055 107.934 237.976 106.248C240.894 104.562 244.166 104.766 245.285 106.702Z" fill="#F1B3AA"/>
<path d="M29.1172 387.896C31.8969 382.545 35.8506 378.048 40.6505 374.683C42.2638 360.57 51.9879 348.064 66.2079 343.567C69.8294 342.421 73.5786 341.841 77.3559 341.841C87.7791 341.841 97.3853 346.165 104.202 353.379C104.202 353.379 180.5 327.5 206 327.5C207.756 329.373 214.821 333.992 218 338C221.555 342.482 223.554 352.949 221.5 356.5C216.584 365 141.025 416.64 141.025 416.64C145.246 435.183 134.57 454.231 116.123 460.065C112.503 461.21 108.754 461.79 104.981 461.79C100.452 461.79 95.9711 460.943 91.7728 459.334C90.4765 459.917 89.1424 460.425 87.7726 460.858C84.1511 462.004 80.4008 462.584 76.6223 462.584C60.431 462.584 46.2705 452.206 41.3852 436.76C41.237 436.292 41.0985 435.822 40.9697 435.349C34.2687 430.726 29.1659 423.957 26.6751 416.08C23.6985 406.668 24.5652 396.658 29.1172 387.896Z" fill="black"/>
<path d="M483.21 387.896C480.43 382.545 476.476 378.048 471.676 374.683C470.063 360.57 460.339 348.064 446.119 343.567C442.498 342.421 438.748 341.841 434.971 341.841C424.548 341.841 414.942 346.165 408.125 353.379C408.125 353.379 331.827 327.5 306.327 327.5C304.571 329.373 297.506 333.992 294.327 338C290.771 342.482 288.773 352.949 290.827 356.5C295.743 365 371.302 416.64 371.302 416.64C367.081 435.183 377.757 454.231 396.204 460.065C399.824 461.21 403.573 461.79 407.346 461.79C411.875 461.79 416.356 460.943 420.554 459.334C421.85 459.917 423.184 460.425 424.554 460.858C428.176 462.004 431.926 462.584 435.705 462.584C451.896 462.584 466.056 452.206 470.942 436.76C471.09 436.292 471.228 435.822 471.357 435.349C478.058 430.726 483.161 423.957 485.652 416.08C488.628 406.668 487.762 396.658 483.21 387.896Z" fill="black"/>
<path d="M55.3401 384.136C55.6149 384.05 55.893 383.996 56.1689 383.92C53.4952 372.874 59.7753 361.49 70.7751 358.011C82.2132 354.394 94.4076 360.694 98.0983 372.089L202.323 330.818C202.323 330.818 218.611 334.537 213.935 350.899L121.884 411.054C123.579 413.124 124.921 415.539 125.776 418.245C129.409 429.733 123.041 441.99 111.554 445.622C104.307 447.914 96.7588 446.22 91.2578 441.776C89.0029 443.821 86.2978 445.438 83.2054 446.415C71.7176 450.048 59.4604 443.681 55.8281 432.193C55.1291 429.981 54.8077 427.741 54.8153 425.538C48.5158 423.36 43.282 418.357 41.118 411.514C37.4856 400.027 43.8533 387.77 55.3401 384.136Z" fill="url(#paint0_linear_1101_248)"/>
<path d="M456.987 384.136C456.712 384.05 456.434 383.996 456.158 383.92C458.832 372.874 452.552 361.49 441.552 358.011C430.114 354.394 417.919 360.694 414.229 372.089L310.004 330.818C310.004 330.818 293.716 334.537 298.392 350.899L390.443 411.054C388.748 413.124 387.406 415.539 386.551 418.245C382.918 429.733 389.286 441.99 400.773 445.622C408.02 447.914 415.568 446.22 421.069 441.776C423.324 443.821 426.029 445.438 429.122 446.415C440.609 450.048 452.867 443.681 456.499 432.193C457.198 429.981 457.519 427.741 457.512 425.538C463.811 423.36 469.045 418.357 471.209 411.514C474.841 400.027 468.474 387.77 456.987 384.136Z" fill="url(#paint1_linear_1101_248)"/>
<path d="M292.493 274.891C297.189 277.781 302.727 279.467 308.625 279.467C314.404 279.467 319.822 277.901 324.518 275.012C329.093 272.243 332.945 268.271 335.592 263.455C338.001 259.121 336.315 253.583 331.981 251.174C327.647 248.767 322.109 250.452 319.701 254.786C318.618 256.713 317.053 258.398 315.126 259.602C313.2 260.805 311.033 261.408 308.624 261.408C306.217 261.408 303.929 260.685 302.003 259.602C300.077 258.398 298.512 256.712 297.428 254.665C295.141 250.211 289.603 248.524 285.269 250.812C280.815 253.099 279.129 258.637 281.416 262.971C284.065 268.031 287.919 272.003 292.493 274.891Z" fill="black"/>
<path d="M196.408 274.891C201.101 277.781 206.641 279.467 212.538 279.467C218.317 279.467 223.735 277.901 228.43 275.012C233.005 272.243 236.857 268.271 239.506 263.455C241.914 259.121 240.228 253.583 235.894 251.174C231.559 248.767 226.021 250.452 223.614 254.786C222.531 256.713 220.965 258.398 219.039 259.602C217.112 260.805 214.946 261.408 212.538 261.408C210.131 261.408 207.845 260.685 205.917 259.602C203.991 258.398 202.427 256.712 201.343 254.665C199.055 250.211 193.518 248.524 189.183 250.812C184.728 253.099 183.042 258.637 185.331 262.971C187.981 268.031 191.832 272.003 196.408 274.891Z" fill="black"/>
<path d="M338.48 178.437C327.286 192.79 308.771 203.985 292.409 208.865C285.233 211.018 277.482 206.712 276.048 199.393V199.249C273.751 193.652 264.279 190.35 260.547 201.258C260.403 201.689 260.26 202.263 260.117 202.694C256.816 215.755 265.427 228.816 278.489 231.974C288.679 234.414 302.027 233.983 317.527 226.663C344.941 213.315 354.126 188.629 354.126 188.629C356.135 174.132 344.222 171.117 338.48 178.437Z" fill="black"/>
<path d="M171.705 178.437C182.901 192.79 201.415 203.985 217.776 208.865C224.952 211.018 232.703 206.712 234.139 199.393V199.249C236.436 193.652 245.908 190.35 249.64 201.258C249.784 201.689 249.928 202.263 250.071 202.694C253.372 215.755 244.76 228.816 231.699 231.974C221.508 234.414 208.161 233.983 192.659 226.663C165.246 213.315 156.061 188.629 156.061 188.629C154.052 174.132 165.964 171.117 171.705 178.437Z" fill="black"/>
<path d="M265.394 386.851C266.389 384.929 267.217 383.007 267.875 381.102C269.519 376.368 270.158 371.769 270.156 367.589C270.15 360.734 268.487 355.028 266.843 350.978C265.19 346.923 263.534 344.486 263.267 344.095C260.546 340.164 255.153 339.184 251.223 341.905C247.314 344.612 246.326 349.96 248.993 353.884L248.99 353.886C249.02 353.927 250.038 355.493 250.996 357.978C251.961 360.47 252.847 363.846 252.844 367.589C252.842 370.034 252.482 372.642 251.517 375.434C250.547 378.224 248.968 381.222 246.355 384.435C245.808 385.107 245.382 385.836 245.067 386.598C204.759 391.019 181.411 423.454 186.035 427.467C190.963 431.744 198.402 431.248 202.726 426.386L202.73 426.39C202.976 426.129 206.897 422.017 215.15 417.98C223.421 413.947 236.023 409.903 254.209 409.89C263.887 409.891 272.047 411.065 278.858 412.773C289.067 415.339 296.261 419.115 300.822 422.114C303.099 423.614 304.713 424.918 305.686 425.773C306.173 426.2 306.501 426.515 306.671 426.683L306.81 426.823L306.814 426.819C311.235 431.596 318.684 431.944 323.526 427.568C327.992 423.533 304.607 392.112 265.394 386.851Z" fill="black"/>
</g>
<defs>
<filter id="filter0_i_1101_248" x="342.708" y="19.8951" width="145.007" height="167.481" filterUnits="userSpaceOnUse" color-interpolation-filters="sRGB">
<feFlood flood-opacity="0" result="BackgroundImageFix"/>
<feBlend mode="normal" in="SourceGraphic" in2="BackgroundImageFix" result="shape"/>
<feColorMatrix in="SourceAlpha" type="matrix" values="0 0 0 0 0 0 0 0 0 0 0 0 0 0 0 0 0 0 127 0" result="hardAlpha"/>
<feOffset dx="16" dy="8"/>
<feComposite in2="hardAlpha" operator="arithmetic" k2="-1" k3="1"/>
<feColorMatrix type="matrix" values="0 0 0 0 0.784314 0 0 0 0 0.784314 0 0 0 0 0.784314 0 0 0 1 0"/>
<feBlend mode="normal" in2="shape" result="effect1_innerShadow_1101_248"/>
</filter>
<filter id="filter1_i_1101_248" x="24.2855" y="19.8951" width="145.007" height="167.481" filterUnits="userSpaceOnUse" color-interpolation-filters="sRGB">
<feFlood flood-opacity="0" result="BackgroundImageFix"/>
<feBlend mode="normal" in="SourceGraphic" in2="BackgroundImageFix" result="shape"/>
<feColorMatrix in="SourceAlpha" type="matrix" values="0 0 0 0 0 0 0 0 0 0 0 0 0 0 0 0 0 0 127 0" result="hardAlpha"/>
<feOffset dx="-16" dy="8"/>
<feComposite in2="hardAlpha" operator="arithmetic" k2="-1" k3="1"/>
<feColorMatrix type="matrix" values="0 0 0 0 0.784314 0 0 0 0 0.784314 0 0 0 0 0.784314 0 0 0 1 0"/>
<feBlend mode="normal" in2="shape" result="effect1_innerShadow_1101_248"/>
</filter>
<linearGradient id="paint0_linear_1101_248" x1="71" y1="357" x2="118.5" y2="444" gradientUnits="userSpaceOnUse">
<stop stop-color="#F3F3F3"/>
<stop offset="0.52" stop-color="white"/>
<stop offset="0.5201" stop-color="#C8C8C8"/>
</linearGradient>
<linearGradient id="paint1_linear_1101_248" x1="446.5" y1="360.5" x2="399.5" y2="447" gradientUnits="userSpaceOnUse">
<stop stop-color="#F3F3F3"/>
<stop offset="0.521" stop-color="white"/>
<stop offset="0.5211" stop-color="#C8C8C8"/>
</linearGradient>
<clipPath id="clip0_1101_248">
<rect width="512" height="512" fill="white"/>
</clipPath>
</defs>
</svg>
