<svg width="512" height="512" viewBox="0 0 512 512" fill="none" xmlns="http://www.w3.org/2000/svg">
<g clip-path="url(#clip0_1101_282)">
<path d="M495.365 49.1155C481.367 22.5852 460.497 7.974 436.598 7.974C413.353 7.974 389.551 21.1004 369.577 44.9346C352.058 65.8383 339.962 92.6157 337.218 116.563C334.563 139.744 341.215 161.607 355.949 178.124C371.726 195.812 395.652 205.956 421.592 205.956C422.763 205.956 423.955 205.936 425.134 205.894C441.892 205.313 462.963 195.684 480.126 180.766C500.68 162.899 512 140.772 512 118.46C512 94.7793 505.781 68.8561 495.365 49.1155Z" fill="black"/>
<path d="M142.423 44.9346C122.449 21.1004 98.6469 7.974 75.4011 7.974C51.5022 7.974 30.6308 22.5852 16.6335 49.1155C6.21796 68.8561 0 94.7793 0 118.459C0 140.772 11.3198 162.898 31.8734 180.765C49.0356 195.683 70.107 205.312 86.8661 205.893C88.044 205.935 89.2366 205.955 90.4086 205.955C116.35 205.955 140.276 195.811 156.053 178.124C170.785 161.608 177.436 139.745 174.782 116.562C172.037 92.6157 159.941 65.8383 142.423 44.9346Z" fill="black"/>
<path d="M495.326 118.459C495.326 157.546 449.213 188.375 424.555 189.231C382.413 190.695 348.924 160.886 353.783 118.459C358.643 76.0332 397.511 24.6467 436.598 24.6467C475.685 24.6467 495.326 79.3736 495.326 118.459Z" fill="#F87A1E"/>
<path d="M464.764 117.376C465.813 149.388 422.925 166.702 408.133 167.216C382.854 168.093 373.755 151.766 376.671 126.315C379.587 100.865 406.087 61.0994 429.534 61.0994C452.98 61.0994 463.996 93.9408 464.764 117.376Z" fill="#FFE5D0"/>
<path d="M16.6727 118.459C16.6727 157.546 62.7857 188.375 87.4447 189.231C129.586 190.695 163.076 160.886 158.217 118.459C153.357 76.0332 114.488 24.6467 75.4011 24.6467C36.3152 24.6467 16.6727 79.3736 16.6727 118.459Z" fill="#F87A1E"/>
<path d="M47.2359 117.376C46.1875 149.388 89.0748 166.702 103.867 167.216C129.147 168.093 138.245 151.766 135.329 126.315C132.414 100.865 105.914 61.0994 82.4665 61.0994C59.0187 61.0984 48.0039 93.9408 47.2359 117.376Z" fill="#FFE5D0"/>
<path d="M477.152 291.751C476.463 258.913 460.164 235.205 452.523 225.86L438.753 143.314C438.691 142.94 438.615 142.569 438.528 142.202C437.901 139.567 431.649 115.795 405.234 92.3706C390.09 78.9411 371.271 68.301 349.303 60.7453C322.706 51.5978 291.314 46.9598 256.001 46.9598C220.687 46.9598 189.295 51.5978 162.698 60.7453C140.73 68.3 121.912 78.9402 106.768 92.3706C80.352 115.795 74.0987 139.567 73.473 142.202C73.3857 142.569 73.3102 142.94 73.2484 143.314L59.4777 225.86C51.8367 235.205 35.5376 258.912 34.8491 291.751C33.5918 351.678 61.8197 400.084 116.482 431.736C137.323 443.804 161.504 453.18 188.355 459.606C216.413 466.32 240.424 468.135 255.627 468.477C255.751 468.48 255.876 468.481 256.001 468.481C256.125 468.481 256.25 468.48 256.374 468.477C271.577 468.135 295.59 466.32 323.647 459.606C350.498 453.18 374.679 443.804 395.52 431.736C450.181 400.084 478.409 351.678 477.152 291.751Z" fill="black"/>
<path d="M460.482 292.101C459.73 256.251 436.854 233.261 436.854 233.261L422.306 146.058C422.306 146.058 402.714 63.6335 256 63.6335C109.285 63.6335 89.6926 146.058 89.6926 146.058L75.1451 233.261C75.1451 233.261 52.2691 256.25 51.5169 292.101C48.9444 414.715 181.444 450.138 256 451.81C330.555 450.137 463.055 414.714 460.482 292.101Z" fill="#F87A1E"/>
<path d="M356.713 239.935C320.203 246.466 336.02 113.38 256 113.38C175.981 113.38 191.796 246.466 155.287 239.935C88.7962 228.041 74.7587 275.209 74.7587 307.261C74.7587 392.34 174.306 436.471 255.999 436.471C337.693 436.471 437.24 392.34 437.24 307.261C437.24 275.209 423.204 228.041 356.713 239.935Z" fill="#FFE5D0"/>
<path d="M182.075 162.785C202.114 163.943 213.351 146.452 218.1 138.691C221.344 130.815 214.509 127.919 210.455 129.888C199.798 137.766 186.709 152.592 153.928 126.645C147.557 123.865 140.491 128.499 146.052 137.996C154.392 149.58 166.091 161.859 182.075 162.785Z" fill="black"/>
<path d="M365.948 137.996C371.508 128.499 364.441 123.864 358.071 126.645C325.174 152.592 312.201 137.765 301.545 129.888C297.606 127.919 290.655 130.815 293.9 138.691C298.65 146.453 310.001 163.943 329.923 162.785C345.908 161.859 357.607 149.58 365.948 137.996Z" fill="black"/>
<path d="M305.664 23.2463C299.616 14.8246 290.128 10.1964 278.937 10.1964C278.086 10.1964 277.212 10.2239 276.342 10.2768C269.276 10.7133 256.808 13.5996 230.182 33.5451C216.884 43.5066 206.072 53.1994 205.617 53.6074C201.685 57.141 199.713 62.3125 200.16 67.4791L223.733 64.4408C223.733 64.4408 246.106 112.333 275.916 107.893C290.23 105.762 299.648 95.1579 301.771 82.8632C302.516 78.5636 302.231 74.1384 301.079 69.9644C313.604 56.073 315.518 37.0062 305.664 23.2463Z" fill="black"/>
<path d="M216.761 66.0089C216.761 66.0089 259.007 28.0519 277.365 26.9181C285.608 26.4111 289.929 29.9182 292.108 32.9537C297.439 40.3966 295.852 51.2241 288.248 59.2839C285.521 62.1683 282.287 64.5839 279.168 66.5316L279.87 66.9602C283.24 69.1453 286.301 74.4689 285.34 80.0258C284.769 83.3309 282.271 89.2419 271.942 91.6997C243.93 98.7758 216.337 66.3404 216.761 66.0089Z" fill="#F87A1E"/>
<path d="M255.999 297.225C249.898 312.017 233.025 313.943 233.025 313.943L240.17 327.47L253.398 326.926V319.251C253.398 317.91 254.484 316.835 255.825 316.835L255.999 316.849L256.175 316.835C257.516 316.835 258.602 317.91 258.602 319.251V326.926L271.83 327.47L278.974 313.943C278.974 313.943 262.101 312.017 255.999 297.225Z" fill="white"/>
<path d="M468.901 458.567C464.502 446.307 454.687 437.262 442.196 433.427C440.552 430.67 438.371 427.657 435.493 424.683C429.149 418.127 418.144 410.504 400.285 408.337C398.532 392.554 382.018 352.955 369.433 352.955C356.849 352.955 323.308 378.494 310.239 387.447C297.17 396.399 289.234 438.773 289.234 438.773C277.877 444.198 269.661 451.701 264.735 461.172C256.707 476.603 261.103 491.008 261.631 492.599C263.895 499.424 270.275 504.025 277.455 504.025L277.598 504.024L448.564 502.589C452.768 502.554 456.802 500.932 459.862 498.048C470.555 487.964 474.02 472.836 468.901 458.567Z" fill="black"/>
<path d="M430.588 448.145C430.588 448.145 424.771 422.326 385.296 424.545C385.296 424.545 370.591 289.098 359.956 217.313C359.701 217.487 359.437 217.652 359.155 217.795C358.93 217.91 355.211 219.857 349.005 221.708C342.8 223.673 334.22 225.54 324.157 225.609C318.73 225.646 312.848 225.12 306.847 223.805C303.351 222.972 299.738 221.901 296.099 220.498L306.428 450.013C268.812 461.29 277.454 487.353 277.454 487.353L448.421 485.918C461.28 473.793 453.078 449.655 430.588 448.145Z" fill="#47BDFF"/>
<path d="M302.061 361.542L306.428 450.012C268.812 461.289 277.454 487.352 277.454 487.352L294.041 486.951C293.193 453.833 331.89 452.486 331.89 452.486L313.135 444.834L302.061 361.542Z" fill="#0084DC"/>
<path d="M416.545 454.906C418.47 454.46 420.44 454.222 422.422 454.234C422.562 454.235 422.699 454.245 422.838 454.248C422.968 454.247 423.098 454.239 423.227 454.24C438.408 454.343 449.564 466.827 450.121 481.503C450.155 482.388 450.134 483.265 450.067 484.132C460.463 471.577 452.027 449.585 430.588 448.146C430.588 448.146 424.921 423.118 387.033 424.484C406.744 428.815 417.446 435.336 416.545 454.906Z" fill="#00E4FF"/>
<path d="M324.158 225.607C334.221 225.539 342.801 223.671 349.006 221.707C355.212 219.855 358.93 217.908 359.156 217.794C359.438 217.651 359.703 217.486 359.957 217.312C362.961 215.268 364.058 211.258 362.368 207.935C361.425 206.082 359.798 204.807 357.952 204.248C356.205 203.719 354.261 203.832 352.508 204.723C352.396 204.724 349.24 206.329 344.162 207.833C339.085 209.338 331.971 210.856 324.058 210.91C319.648 210.939 314.897 210.521 310.027 209.422C305.217 208.338 300.29 206.589 295.359 204.072L295.178 203.983C291.547 202.085 287.147 203.472 285.248 206.99C283.237 210.508 284.625 215.021 288.255 216.919C290.862 218.319 293.487 219.49 296.098 220.496C299.737 221.898 303.35 222.97 306.846 223.803C312.848 225.12 318.73 225.645 324.158 225.607Z" fill="black"/>
<path d="M43.0981 458.567C47.4968 446.307 57.3121 437.262 69.803 433.427C71.4467 430.67 73.6279 427.657 76.5064 424.683C82.8499 418.127 93.8549 410.504 111.714 408.337C113.468 392.554 129.981 352.955 142.566 352.955C155.151 352.955 188.691 378.494 201.76 387.447C214.83 396.399 222.765 438.773 222.765 438.773C234.122 444.198 242.338 451.701 247.264 461.172C255.292 476.603 250.896 491.008 250.368 492.599C248.104 499.424 241.724 504.025 234.544 504.025L234.401 504.024L63.435 502.589C59.2315 502.554 55.1967 500.932 52.1367 498.048C41.4446 487.964 37.9796 472.836 43.0981 458.567Z" fill="black"/>
<path d="M81.4111 448.145C81.4111 448.145 87.228 422.326 126.703 424.545C126.703 424.545 141.408 289.098 152.043 217.313C152.298 217.487 152.562 217.652 152.844 217.795C153.07 217.91 156.788 219.857 162.994 221.708C169.199 223.673 177.78 225.54 187.842 225.609C193.269 225.646 199.152 225.12 205.153 223.805C208.649 222.972 212.262 221.901 215.901 220.498L205.571 450.013C243.186 461.29 234.545 487.353 234.545 487.353L63.5781 485.918C50.7185 473.793 58.9215 449.655 81.4111 448.145Z" fill="#47BDFF"/>
<path d="M209.938 361.542L205.571 450.012C243.186 461.289 234.545 487.352 234.545 487.352L217.958 486.951C218.806 453.833 180.109 452.486 180.109 452.486L198.864 444.834L209.938 361.542Z" fill="#0084DC"/>
<path d="M95.4545 454.906C93.5303 454.46 91.56 454.222 89.5779 454.234C89.4376 454.235 89.3003 454.245 89.161 454.248C89.0316 454.247 88.9011 454.239 88.7717 454.24C73.5916 454.343 62.4356 466.827 61.8785 481.503C61.8452 482.388 61.8658 483.265 61.9334 484.132C51.5375 471.577 59.9729 449.585 81.4121 448.146C81.4121 448.146 87.0789 423.118 124.968 424.484C105.256 428.815 94.5532 435.336 95.4545 454.906Z" fill="#00E4FF"/>
<path d="M187.841 225.607C177.779 225.539 169.198 223.671 162.993 221.707C156.787 219.855 153.069 217.908 152.843 217.794C152.561 217.651 152.297 217.486 152.042 217.312C149.038 215.268 147.941 211.258 149.631 207.935C150.574 206.082 152.201 204.807 154.046 204.248C155.793 203.719 157.737 203.832 159.49 204.723C159.602 204.724 162.758 206.329 167.835 207.833C172.913 209.338 180.026 210.856 187.94 210.91C192.35 210.939 197.101 210.521 201.971 209.422C206.781 208.338 211.707 206.589 216.639 204.072L216.82 203.983C220.451 202.085 224.851 203.472 226.75 206.99C228.761 210.508 227.373 215.021 223.743 216.919C221.136 218.319 218.511 219.49 215.9 220.496C212.261 221.898 208.648 222.97 205.152 223.803C199.151 225.12 193.269 225.645 187.841 225.607Z" fill="black"/>
<path d="M336.055 289.775L336.049 289.579L336.045 289.546C336.037 289.423 336.026 289.306 336.011 289.196L336.008 289.18C335.992 289.066 335.973 288.956 335.95 288.855L335.93 288.784L335.868 288.555L335.78 288.324L335.768 288.292C335.041 286.654 333.214 287.366 333.214 287.366C327.989 296.003 312.606 303.337 297.151 303.321C283.514 303.306 269.82 297.571 262.998 281.957C262.637 281.964 262.539 279.377 262.405 275.75C262.269 272.098 262.098 267.392 261.584 263.208H261.582L261.568 263.1C260.038 263.168 258.502 263.217 256.955 263.222C256.634 263.235 256.318 263.231 255.999 263.239C255.679 263.231 255.363 263.235 255.042 263.222C253.495 263.217 251.959 263.168 250.428 263.1L250.415 263.208H250.413C249.901 267.376 249.729 272.062 249.594 275.708C249.459 279.359 249.362 281.964 248.999 281.957C242.177 297.571 228.484 303.307 214.846 303.321C199.392 303.338 184.008 296.003 178.783 287.366C178.783 287.366 176.956 286.654 176.229 288.292C176.16 288.449 176.101 288.63 176.054 288.833L176.048 288.856C175.963 289.236 175.925 289.704 175.945 290.268C175.98 291.292 176.211 292.643 176.741 294.435C180.623 301.934 182.07 312.962 202.273 317.425C202.599 317.498 188.003 356.233 210.448 369.262C237.107 384.738 236.533 337.002 255.999 337.002C275.464 337.002 274.412 385.016 301.549 369.262C323.995 356.233 309.399 317.498 309.725 317.425C329.928 312.961 331.375 301.934 335.257 294.435C335.879 292.339 336.09 290.843 336.055 289.775Z" fill="black"/>
<path d="M176.061 258.399C176.735 266.086 163.009 273.562 145.405 275.098C127.802 276.634 112.989 271.648 112.317 263.967C111.647 256.283 125.372 248.806 142.973 247.267C160.577 245.73 175.391 250.712 176.061 258.399Z" fill="#FF4076"/>
<path d="M369.027 247.268C386.627 248.807 400.352 256.284 399.683 263.968C399.011 271.649 384.197 276.635 366.595 275.099C348.991 273.563 335.266 266.087 335.939 258.4C336.609 250.712 351.422 245.73 369.027 247.268Z" fill="#FF4076"/>
<path d="M255.999 297.225C249.898 312.017 233.025 313.943 233.025 313.943L240.17 327.47L253.398 326.926V319.251C253.398 317.91 254.484 316.835 255.825 316.835L255.999 316.849L256.175 316.835C257.516 316.835 258.602 317.91 258.602 319.251V326.926L271.83 327.47L278.974 313.943C278.974 313.943 262.101 312.017 255.999 297.225Z" fill="white"/>
<path d="M256.626 272.924C280.019 272.6 295.231 255.178 293.5 248.475C291.346 240.123 270.379 235.473 255.677 235.678C240.976 235.882 220.176 239.865 218.449 248.315C217.062 255.099 233.233 273.251 256.626 272.924Z" fill="#FF4076"/>
<path d="M251.394 241.419C257.74 241.419 262.885 243.544 262.885 246.165C262.885 248.787 257.74 250.909 251.394 250.909C245.047 250.909 239.903 248.785 239.903 246.165C239.903 243.544 245.047 241.419 251.394 241.419Z" fill="white"/>
<path d="M267.513 243.48C268.931 243.48 270.08 244.587 270.08 245.953C270.08 247.319 268.931 248.428 267.513 248.428C266.095 248.428 264.945 247.319 264.945 245.953C264.945 244.587 266.094 243.48 267.513 243.48Z" fill="white"/>
</g>
<defs>
<clipPath id="clip0_1101_282">
<rect width="512" height="512" fill="white"/>
</clipPath>
</defs>
</svg>
