<svg width="512" height="512" viewBox="0 0 512 512" fill="none" xmlns="http://www.w3.org/2000/svg">
<g clip-path="url(#clip0_1101_125)">
<path d="M398.446 475.947L398.443 475.95L398.437 475.956L398.446 475.947Z" fill="black"/>
<path d="M125.872 475.956L125.867 475.95L125.862 475.947L125.872 475.956Z" fill="black"/>
<path d="M471.2 328.95C468.71 310.707 461.097 294.027 449.103 280.438L433.887 139.974C433.717 138.399 433.251 136.87 432.514 135.468C432.091 134.661 421.882 115.476 399.322 95.0106C386.161 83.0719 371.412 73.047 355.483 65.2145C335.614 55.444 313.875 49.0909 290.872 46.3297C279.173 44.9249 267.44 44.211 256.003 44.2089H255.999C244.562 44.211 232.829 44.9239 221.129 46.3297C198.127 49.0909 176.389 55.4451 156.519 65.2145C140.589 73.047 125.839 83.0709 112.679 95.0106C90.119 115.476 79.9101 134.661 79.4874 135.468C78.7513 136.87 78.2855 138.399 78.1141 139.974L62.897 280.438C50.9026 294.027 43.2898 310.707 40.7999 328.95C38.2143 347.894 41.1984 368.208 49.4305 387.696C62.3155 418.2 87.6417 445.598 120.745 464.845C138.714 475.292 158.904 483.402 180.757 488.95C204.109 494.879 229.425 497.884 256.001 497.884C282.577 497.884 307.894 494.879 331.246 488.95C353.098 483.403 373.288 475.292 391.257 464.845C424.359 445.598 449.686 418.2 462.571 387.696C470.802 368.208 473.786 347.894 471.2 328.95Z" fill="black"/>
<path d="M437.008 285.944L421.343 141.334C421.343 141.334 384.007 70.2206 289.368 58.8582C277.662 57.4523 266.545 56.8299 256.001 56.8278C245.457 56.8299 234.34 57.4523 222.634 58.8582C127.995 70.2206 90.6595 141.334 90.6595 141.334L74.9923 285.944C13.4748 349.2 79.602 485.266 256 485.266C432.398 485.266 498.525 349.201 437.008 285.944Z" fill="#FFA5CB"/>
<path d="M437.009 285.944L421.343 141.334C421.343 141.334 404.158 108.623 363.577 84.0256C354.779 123.486 362.994 165.48 405.645 181.927L417.147 288.096L417.888 294.939L422.686 299.872C431.677 309.117 437.133 320.384 438.905 333.358C440.7 346.508 438.5 360.911 432.543 375.012C422.389 399.051 401.908 420.947 374.872 436.666C342.668 455.391 301.562 465.288 256 465.288C210.438 465.288 169.333 455.391 137.128 436.666C110.093 420.947 89.6122 399.052 79.458 375.012C73.5013 360.911 71.3026 346.508 73.0964 333.358C74.8682 320.384 80.3244 309.117 89.3146 299.872L94.1126 294.939L94.8539 288.096L99.5025 245.183L106.355 181.927C149.006 165.48 157.221 123.486 148.423 84.0256C107.842 108.622 90.6574 141.334 90.6574 141.334L80.7597 232.692L74.9912 285.944C13.4738 349.2 79.601 485.266 255.999 485.266C432.399 485.266 498.525 349.201 437.009 285.944Z" fill="#FF88B3"/>
<path d="M167.138 281.238C167.583 288.461 154.537 295.142 137.999 296.162C121.46 297.184 107.692 292.157 107.246 284.937C106.8 277.717 119.846 271.035 136.384 270.013C152.923 268.991 166.692 274.018 167.138 281.238Z" fill="#FF4076"/>
<path d="M375.615 270.013C392.154 271.035 405.199 277.716 404.754 284.937C404.308 292.157 390.539 297.184 374.001 296.162C357.462 295.142 344.418 288.461 344.864 281.238C345.308 274.018 359.078 268.991 375.615 270.013Z" fill="#FF4076"/>
<path d="M185.391 413.703C185.391 368.096 217.004 331.126 256 331.126C294.996 331.126 326.609 368.097 326.609 413.703C326.609 459.308 185.391 459.309 185.391 413.703Z" fill="black"/>
<path d="M358.363 160.862C363.41 152.24 356.996 148.034 351.212 150.558C321.455 174.111 309.573 160.652 299.9 153.502C296.219 151.714 290.016 154.343 292.96 161.493C297.271 168.538 307.47 184.416 325.661 183.364C340.172 182.523 350.792 171.377 358.363 160.862Z" fill="black"/>
<path d="M186.339 183.364C204.424 184.416 214.729 168.538 219.04 161.493C221.984 154.343 215.675 151.714 212.1 153.502C202.427 160.652 190.65 174.111 160.788 150.558C155.004 148.034 148.59 152.24 153.637 160.862C161.208 171.377 171.828 182.523 186.339 183.364Z" fill="black"/>
<path d="M295.483 254.902C281.5 243.955 267.228 237.179 256.33 236.311C256.223 236.302 256.108 236.308 256.001 236.3C255.893 236.308 255.779 236.302 255.672 236.311C244.774 237.179 230.502 243.955 216.519 254.902C197.849 269.519 179.008 292.285 182.117 312.36C185.934 337.032 232.4 344.718 256.002 347.038C279.604 344.718 326.069 337.033 329.887 312.36C332.994 292.285 314.153 269.519 295.483 254.902Z" fill="#FF4076"/>
<path d="M250.265 276.491C246.282 272.871 229.689 292.424 229.689 292.424C220.471 288.493 204.745 294.644 210.685 309.952C213.423 317.015 220.598 318.945 227.865 316.565C240.763 312.344 254.248 280.109 250.265 276.491Z" fill="black"/>
<path d="M284.135 316.565C291.402 318.945 298.578 317.015 301.315 309.952C307.255 294.644 291.529 288.492 282.311 292.424C282.311 292.424 265.718 272.871 261.735 276.491C257.752 280.109 271.237 312.344 284.135 316.565Z" fill="black"/>
<path d="M293.975 61.6278C305.33 49.5935 307.266 32.8328 298.692 20.8605C293.601 13.7692 285.565 9.86926 276.052 9.86926C275.314 9.86926 274.556 9.8924 273.8 9.93866C267.549 10.3246 256.424 12.9491 232.049 31.2082C219.858 40.3414 209.918 49.2213 209.194 49.8711L222.716 54.4829C222.716 54.4829 241.83 101.331 272.415 95.7045C289.965 92.4754 293.647 79.5736 294.505 74.6064C295.225 70.4456 294.797 66.1471 293.431 62.1935C293.614 62.0053 293.796 61.8171 293.975 61.6278Z" fill="black"/>
<path d="M217.6 59.2819C217.6 59.2819 257.315 23.5975 274.575 22.5323C282.325 22.056 286.386 25.3524 288.434 28.2061C293.446 35.2038 291.955 45.3822 284.806 52.9593C282.242 55.6711 279.201 57.9423 276.27 59.7729L276.93 60.1757C280.098 62.2303 282.976 67.2343 282.072 72.4592C281.535 75.5663 279.186 81.1234 269.476 83.4336C243.142 90.0874 217.202 59.5942 217.6 59.2819Z" fill="#FFA5CB"/>
<path d="M401.941 30.0116C404.585 30.0116 407.246 30.1851 409.853 30.5279C433.948 33.6939 447.404 44.7493 453.775 51.912C458.116 52.2212 464.153 52.9414 470.502 54.5933C485.22 58.4239 496.083 65.8653 501.915 76.1152C510.603 91.3818 515.965 115.796 508.361 135.926C503.213 149.553 492.852 159.383 478.4 164.35C473.891 165.9 461.743 169.502 446.326 169.502C425.966 169.502 408.007 163.166 394.389 151.179C377.901 136.666 367.915 114.348 364.661 84.7869L348.885 74.1826C345.812 72.1164 343.8 68.8032 343.386 65.123C342.972 61.4427 344.196 57.7646 346.732 55.0676C347.694 54.0434 370.649 30.0116 401.941 30.0116Z" fill="black"/>
<path d="M408.21 43.0385C429.159 45.7913 440.198 55.5186 444.774 60.8118C450.713 69.4225 455.894 84.892 447.252 109.951C458.438 103.525 465.224 82.5966 461.118 65.4836C471.445 67.2385 484.822 71.5886 490.949 82.3548C501.654 101.167 507.585 140.975 474.299 152.416C452.598 159.873 383.659 169.272 376.669 77.6525L355.924 63.7076C355.924 63.7097 378.974 39.1974 408.21 43.0385Z" fill="#FFA5CB"/>
<path d="M453.274 143.239C438.271 142.953 424.948 136.965 414.112 127.018C403.237 117.035 394.449 86.688 393.807 72.3646C393.421 63.7592 404.569 61.7172 404.569 61.7172C382.313 47.378 356.028 63.7802 356.028 63.7802L376.669 77.6546C383.659 169.274 452.598 159.875 474.299 152.418C491.57 146.482 498.268 132.906 499.234 118.592C499.234 118.591 490.503 143.949 453.274 143.239Z" fill="#FF88B3"/>
<path d="M110.059 30.0116C107.415 30.0116 104.754 30.1851 102.147 30.5279C78.0521 33.6939 64.5951 44.7493 58.2242 51.912C53.8826 52.2212 47.8459 52.9414 41.497 54.5933C26.7793 58.4239 15.9164 65.8653 10.0838 76.1152C1.39637 91.3818 -3.96623 115.796 3.63814 135.926C8.78624 149.553 19.1466 159.383 33.5993 164.35C38.1081 165.9 50.256 169.502 65.6729 169.502C86.0329 169.502 103.992 163.166 117.61 151.179C134.098 136.666 144.084 114.348 147.338 84.7869L163.113 74.1826C166.187 72.1164 168.198 68.8032 168.613 65.123C169.027 61.4427 167.803 57.7646 165.267 55.0676C164.307 54.0434 141.351 30.0116 110.059 30.0116Z" fill="black"/>
<path d="M103.79 43.0385C82.8406 45.7913 71.802 55.5186 67.226 60.8118C61.2871 69.4225 56.1064 84.892 64.7476 109.951C53.5618 103.525 46.7755 82.5966 50.8816 65.4836C40.5549 67.2385 27.1779 71.5886 21.0508 82.3548C10.3456 101.168 4.41624 140.976 37.7012 152.417C59.4018 159.874 128.341 169.273 135.331 77.6535L156.076 63.7087C156.076 63.7097 133.026 39.1974 103.79 43.0385Z" fill="#FFA5CB"/>
<path d="M58.7257 143.239C73.7294 142.953 87.0518 136.965 97.8885 127.018C108.763 117.035 117.551 86.688 118.193 72.3646C118.579 63.7592 107.431 61.7172 107.431 61.7172C129.687 47.378 155.972 63.7802 155.972 63.7802L135.331 77.6546C128.341 169.274 59.4018 159.875 37.7012 152.418C20.4304 146.482 13.7324 132.906 12.7661 118.592C12.7661 118.591 21.4967 143.949 58.7257 143.239Z" fill="#FF88B3"/>
<path d="M207.547 227.388L193.293 213.134L184.16 204.001C180.285 200.126 173.92 200.126 169.906 204.001C166.031 207.875 166.031 214.241 169.906 218.255L179.039 227.388L169.906 236.521C166.031 240.396 166.031 246.762 169.906 250.775C173.781 254.65 180.147 254.65 184.16 250.775L193.293 241.642L207.547 227.388Z" fill="black"/>
<path d="M304 227.388L318.254 213.134L327.387 204.001C331.262 200.126 337.628 200.126 341.641 204.001C345.516 207.875 345.516 214.241 341.641 218.255L332.508 227.388L341.641 236.521C345.516 240.396 345.516 246.762 341.641 250.775C337.767 254.65 331.401 254.65 327.387 250.775L318.254 241.642L304 227.388Z" fill="black"/>
<path d="M354.469 471.941C351.723 464.416 345.825 458.823 338.3 456.28C335.25 450.484 329.758 444.281 321.115 441.738L313.284 412.349C313.182 412.146 313.182 411.84 313.081 411.637C312.878 411.128 309.014 399.841 300.268 388.655C287.963 372.893 272.099 364.554 254.405 364.554C236.405 364.554 221.05 372.994 209.864 389.062C202.135 400.147 199.084 410.925 198.779 412.349L190.949 441.738C182.304 444.281 176.813 450.484 173.763 456.28C166.237 458.823 160.34 464.416 157.594 471.941C154.34 480.891 156.577 490.653 163.289 496.957C165.425 498.89 168.17 500.008 171.018 500.008H341.149C343.996 500.008 346.741 498.889 348.877 496.957C355.385 490.653 357.621 480.89 354.469 471.941Z" fill="black"/>
<path d="M199.795 451.907C184.846 451.602 181.897 466.043 181.897 466.043C168.271 466.856 163.186 481.499 170.812 488.72H340.944C348.672 481.499 343.588 466.856 329.859 466.043C329.859 466.043 326.909 451.5 311.961 451.907L302.199 415.299C302.199 415.299 288.674 375.843 254.201 375.843C219.728 375.843 209.355 415.299 209.355 415.299L199.795 451.907Z" fill="#95C11F"/>
<path d="M343.16 474.372C343.16 474.371 343.159 474.37 343.159 474.369C343.052 474.152 342.938 473.937 342.819 473.725C342.793 473.677 342.768 473.631 342.741 473.585C342.63 473.392 342.516 473.202 342.396 473.014C342.356 472.951 342.314 472.888 342.272 472.825C342.155 472.647 342.036 472.47 341.91 472.298C341.86 472.231 341.809 472.164 341.758 472.098C341.37 471.583 340.945 471.089 340.48 470.62C340.375 470.512 340.271 470.405 340.161 470.302C340.051 470.197 339.935 470.096 339.82 469.993C339.695 469.883 339.57 469.772 339.442 469.665C339.328 469.57 339.212 469.478 339.094 469.386C338.954 469.277 338.811 469.17 338.667 469.064C338.551 468.98 338.436 468.897 338.318 468.817C338.156 468.707 337.989 468.6 337.821 468.495C337.711 468.426 337.603 468.356 337.49 468.29C337.275 468.162 337.052 468.04 336.827 467.923C336.756 467.885 336.687 467.844 336.615 467.808C336.315 467.657 336.007 467.514 335.691 467.38C335.602 467.341 335.507 467.308 335.417 467.271C335.186 467.177 334.951 467.086 334.711 467.001C334.589 466.959 334.465 466.919 334.341 466.879C334.124 466.809 333.903 466.741 333.679 466.678C333.545 466.64 333.41 466.605 333.273 466.57C333.047 466.514 332.818 466.461 332.585 466.412C332.449 466.383 332.313 466.354 332.174 466.327C331.921 466.28 331.663 466.241 331.402 466.204C331.28 466.187 331.161 466.167 331.036 466.152C330.651 466.106 330.259 466.067 329.859 466.044C329.859 466.044 326.909 451.501 311.961 451.908L302.199 415.3C302.199 415.3 298.243 403.775 289.168 393.183C300.82 410.732 303.401 432.452 303.728 453.578C301.986 454.252 300.112 455.188 298.244 456.515C298.244 456.515 322.727 451.511 320.193 469.949C320.193 469.949 334.342 475.279 324.872 488.72H340.945C344.978 484.951 345.514 479.163 343.16 474.372Z" fill="#7F941F"/>
<path d="M168.84 474.372C168.84 474.371 168.841 474.37 168.841 474.369C168.948 474.152 169.062 473.937 169.181 473.725C169.207 473.677 169.232 473.631 169.259 473.585C169.37 473.392 169.484 473.202 169.604 473.014C169.644 472.951 169.686 472.888 169.728 472.825C169.845 472.647 169.964 472.47 170.09 472.298C170.14 472.231 170.191 472.164 170.242 472.098C170.63 471.583 171.055 471.089 171.52 470.62C171.625 470.512 171.729 470.405 171.839 470.302C171.949 470.197 172.065 470.096 172.18 469.993C172.305 469.883 172.43 469.772 172.558 469.665C172.671 469.57 172.788 469.478 172.906 469.386C173.046 469.277 173.189 469.17 173.334 469.064C173.45 468.98 173.565 468.897 173.683 468.817C173.845 468.707 174.012 468.6 174.18 468.495C174.29 468.426 174.398 468.356 174.511 468.29C174.726 468.162 174.949 468.04 175.174 467.923C175.246 467.885 175.314 467.844 175.386 467.808C175.686 467.657 175.994 467.514 176.31 467.38C176.399 467.341 176.494 467.308 176.584 467.271C176.815 467.177 177.05 467.086 177.29 467.001C177.412 466.959 177.536 466.919 177.66 466.879C177.877 466.809 178.098 466.741 178.322 466.678C178.456 466.64 178.591 466.605 178.728 466.57C178.954 466.514 179.183 466.461 179.416 466.412C179.552 466.383 179.688 466.354 179.827 466.327C180.08 466.28 180.338 466.241 180.599 466.204C180.721 466.187 180.841 466.167 180.965 466.152C181.35 466.106 181.742 466.067 182.142 466.044C182.142 466.044 185.092 451.501 200.04 451.908L209.802 415.3C209.802 415.3 213.758 403.775 222.833 393.183C211.182 410.732 208.6 432.452 208.273 453.578C210.015 454.252 211.889 455.188 213.757 456.515C213.757 456.515 189.275 451.511 191.808 469.949C191.808 469.949 177.659 475.279 187.129 488.72H171.056C167.023 484.951 166.486 479.163 168.84 474.372Z" fill="#7F941F"/>
<path d="M290.381 477.602C299.362 477.602 306.643 474.561 306.643 470.811C306.643 467.061 299.362 464.021 290.381 464.021C281.399 464.021 274.118 467.061 274.118 470.811C274.118 474.561 281.399 477.602 290.381 477.602Z" fill="#BDD61F"/>
<path d="M262.682 476.171C264.656 476.171 266.256 474.571 266.256 472.597C266.256 470.624 264.656 469.023 262.682 469.023C260.708 469.023 259.108 470.624 259.108 472.597C259.108 474.571 260.708 476.171 262.682 476.171Z" fill="#BDD61F"/>
</g>
<defs>
<clipPath id="clip0_1101_125">
<rect width="512" height="512" fill="white"/>
</clipPath>
</defs>
</svg>
