<svg width="512" height="512" viewBox="0 0 512 512" fill="none" xmlns="http://www.w3.org/2000/svg">
<g clip-path="url(#clip0_1101_2)">
<path d="M500.174 243.553C491.277 231.702 477.666 224.904 462.831 224.904H462.83C452.667 224.904 442.99 228.136 434.846 234.25C425.215 241.48 414.921 255.063 408.623 268.856C400.37 286.927 400.088 302.558 407.832 312.873C412.088 318.543 420.874 325.303 438.553 325.303C456.193 325.303 478.196 318.397 490.872 308.881C500.839 301.398 507.296 290.482 509.053 278.144C510.81 265.805 507.658 253.521 500.174 243.553Z" fill="black"/>
<path d="M77.1544 234.25C69.0089 228.136 59.332 224.904 49.1703 224.904C34.3346 224.904 20.7237 231.702 11.8261 243.555C4.34351 253.522 1.19076 265.806 2.9478 278.146C4.70484 290.485 11.1622 301.401 21.1295 308.883C33.8053 318.398 55.8078 325.305 73.447 325.305C91.1257 325.305 99.9109 318.544 104.169 312.874C111.912 302.56 111.631 286.928 103.378 268.859C97.078 255.063 86.7847 241.479 77.1544 234.25Z" fill="black"/>
<path d="M484.795 300.788C468.655 312.904 428.041 322.936 415.926 306.798C403.81 290.66 424.783 254.46 440.921 242.344C457.06 230.229 479.965 233.491 492.08 249.63C504.195 265.769 500.933 288.673 484.795 300.788Z" fill="#8C4B23"/>
<path d="M470.001 293.632C460.165 301.017 435.412 307.131 428.029 297.295C420.646 287.458 433.427 265.397 443.262 258.014C453.098 250.63 467.057 252.618 474.441 262.454C481.823 272.291 479.836 286.249 470.001 293.632Z" fill="#E2BA8B"/>
<path d="M27.2053 300.788C43.3435 312.904 83.9589 322.936 96.074 306.798C108.189 290.66 87.2169 254.46 71.0776 242.344C54.9384 230.229 32.0341 233.491 19.919 249.63C7.80498 265.768 11.066 288.673 27.2053 300.788Z" fill="#8C4B23"/>
<path d="M41.9994 293.632C51.8352 301.017 76.5876 307.131 83.971 297.295C91.3544 287.458 78.5734 265.397 68.7376 258.014C58.9018 250.63 44.9437 252.618 37.5592 262.454C30.1758 272.291 32.1636 286.249 41.9994 293.632Z" fill="#E2BA8B"/>
<path d="M473.004 346.329C468.15 327.485 458.07 309.917 443.001 294.021C446.261 285.983 449.195 277.971 451.755 270.118C461.477 248.254 466.408 225.151 466.408 201.443C466.408 151.935 444.567 111.169 403.248 83.5504C366.1 58.7201 315.183 45.5959 256 45.5959C196.817 45.5959 145.901 58.7201 108.753 83.5515C67.434 111.17 45.5934 151.936 45.5934 201.444C45.5934 225.088 50.4951 248.131 60.1629 269.939C62.7084 277.759 65.6699 285.833 68.9977 294.024C53.9313 309.919 43.8506 327.488 38.9975 346.33C33.7729 366.614 35.0654 387.792 42.7362 407.572C53.991 436.592 78.0248 461.575 112.241 479.822C130.033 489.309 150.385 496.833 172.734 502.183C195.689 507.679 220.838 510.894 247.519 511.748C248.246 511.914 249.002 512.001 249.779 512.001C251.639 512.001 253.468 511.976 255.237 511.95L256 511.939L256.763 511.95C258.532 511.975 260.361 512.001 262.221 512.001C262.999 512.001 263.755 511.914 264.482 511.748C291.162 510.894 316.312 507.678 339.267 502.183C361.615 496.833 381.967 489.309 399.762 479.822C433.977 461.576 458.011 436.592 469.266 407.572C476.936 387.791 478.229 366.613 473.004 346.329Z" fill="black"/>
<path d="M429.229 295.576L428.69 296.843L429.681 297.799C449.79 317.198 460.893 339.134 463.469 361.143C466.045 383.144 460.12 405.379 445.892 425.437C417.412 465.59 355.532 497.119 262.166 499.689L260.222 499.743V499.869C259.208 499.86 258.198 499.846 257.182 499.832C256.798 499.827 256.413 499.821 256.027 499.816L256.001 499.816L255.974 499.816C255.662 499.821 255.352 499.825 255.042 499.829C253.952 499.845 252.868 499.86 251.781 499.869V499.743L249.836 499.689C156.469 497.119 94.589 465.59 66.1089 425.437C51.8815 405.379 45.9565 383.144 48.5321 361.143C51.1084 339.134 62.2107 317.198 82.3202 297.799L83.3114 296.843L82.7716 295.576C78.3169 285.118 74.5944 275.166 71.5291 265.694L71.496 265.592L71.4521 265.494C62.5842 245.658 57.7147 224.052 57.7147 201.444C57.7147 153.341 79.7571 117.512 115.488 93.6287C151.302 69.6901 200.944 57.7172 256 57.7172C311.056 57.7172 360.698 69.6901 396.512 93.6287C432.243 117.512 454.285 153.341 454.285 201.444C454.285 224.117 449.386 245.779 440.47 265.663L440.426 265.761L440.392 265.864C437.336 275.294 433.659 285.174 429.229 295.576Z" fill="#8C4B23" stroke="black" stroke-width="4"/>
<path d="M384.111 310.014C435.375 241.674 410.47 137.592 351.224 126.797C298.437 117.179 286.448 164.551 257.937 164.551C257.284 164.551 256.643 164.502 256 164.454C255.357 164.502 254.716 164.551 254.064 164.551C225.553 164.551 213.564 117.179 160.777 126.797C101.531 137.593 76.6251 241.674 127.89 310.014C127.89 310.014 75.5178 311.43 75.5178 361.258C75.5178 432.122 161.953 476.915 256 476.915C350.046 476.915 436.483 432.121 436.483 361.258C436.483 311.431 384.111 310.014 384.111 310.014Z" fill="#E2BA8B"/>
<path d="M351.748 342.012C339.776 363.31 280.381 380.241 260.21 338.18L260.442 338.165C259.405 321.361 277.217 305.864 277.217 305.864C286.389 296.823 299.811 294.788 304.776 307.069C307.141 312.918 307.44 319.22 305.602 324.946C309.891 322.218 313.593 318.952 316.249 315.014C325.394 301.451 314.887 280.246 294.025 280.404C275.063 280.547 268.151 292.025 256 295.086C243.851 292.026 236.938 280.547 217.976 280.404C197.114 280.247 186.606 301.451 195.752 315.014C198.408 318.952 202.109 322.217 206.399 324.946C204.562 319.22 204.86 312.918 207.226 307.069C212.19 294.787 225.613 296.823 234.784 305.864C234.784 305.864 252.597 321.362 251.559 338.165L251.792 338.18C231.619 380.241 172.225 363.31 160.254 342.012C160.254 342.012 154.315 339.477 157.335 351.024C162.021 360.842 163.55 371.402 189.363 377.978C190.01 378.145 176.098 452.02 253.419 456.981C254.09 457.025 257.914 457.025 258.585 456.981C335.906 452.021 321.993 378.145 322.641 377.978C348.454 371.402 349.982 360.842 354.669 351.024C357.686 339.478 351.748 342.012 351.748 342.012Z" fill="black"/>
<path d="M319.842 215.666C335.542 215.549 348.398 232.793 348.557 254.182C348.714 275.57 336.116 293.003 320.415 293.119C304.715 293.234 291.858 275.99 291.701 254.602C291.543 233.214 304.143 215.783 319.842 215.666Z" fill="black"/>
<path d="M312.479 234.798C314.026 225.806 322.286 219.721 330.927 221.208C339.569 222.694 345.321 231.188 343.773 240.18C342.228 249.172 333.968 255.257 325.327 253.77C316.685 252.283 310.933 243.789 312.479 234.798Z" fill="white"/>
<path d="M316.72 264.062C317.251 260.966 320.099 258.874 323.075 259.385C326.052 259.898 328.036 262.822 327.504 265.915C326.972 269.01 324.127 271.104 321.148 270.591C318.169 270.079 316.187 267.156 316.72 264.062Z" fill="white"/>
<path d="M320.258 164.328C301.699 163.255 291.294 179.454 286.894 186.641C283.89 193.936 290.221 196.617 293.976 194.795C303.845 187.499 315.967 173.769 346.327 197.799C352.226 200.372 358.771 196.082 353.621 187.286C345.897 176.557 335.063 165.186 320.258 164.328Z" fill="black"/>
<path d="M160.286 187.285C155.136 196.081 161.681 200.372 167.581 197.798C198.048 173.768 210.063 187.499 219.932 194.794C223.58 196.617 230.016 193.935 227.012 186.64C222.613 179.452 212.1 163.254 193.649 164.327C178.844 165.186 168.009 176.557 160.286 187.285Z" fill="black"/>
<path d="M287.326 310.544C287.852 310.475 288.389 310.452 288.943 310.493C293.237 310.81 296.466 314.546 296.153 318.842C295.838 323.137 292.099 326.364 287.804 326.052C287.804 326.052 277.671 325.309 273.404 330.143C273.482 321.073 280.626 310.318 287.326 310.544Z" fill="black"/>
<path d="M238.596 330.143C234.33 325.309 224.197 326.052 224.197 326.052C219.901 326.364 216.163 323.137 215.847 318.842C215.535 314.546 218.762 310.809 223.058 310.493C223.611 310.452 224.148 310.474 224.674 310.544C231.373 310.318 238.518 321.073 238.596 330.143Z" fill="black"/>
<path d="M297.981 58.3963C311.047 44.5464 313.428 25.4639 303.775 11.9845C298.227 4.25293 289.343 0 278.753 0H278.751C277.893 0 277.012 0.0273272 276.13 0.0819817C264.251 0.814756 246.962 9.79732 223.274 27.5428C206.714 39.9484 193.287 51.9845 192.723 52.4906C189.711 55.197 191.554 60.965 191.554 60.965L205.624 59.1614C205.624 59.1614 236.889 107.623 272.182 102.616C292.044 99.798 295.963 84.9816 296.89 79.6103C297.979 73.3119 296.594 67.2412 293.934 62.2727C295.383 61.0086 296.733 59.7151 297.981 58.3963Z" fill="black"/>
<path d="M261.028 94.0199C241.509 95.2253 200.462 64.9241 201 64.5C201 64.5 253.345 11.6283 276.75 10.184C287.26 9.53825 292.768 14.0088 295.545 17.8781C302.34 27.3677 300.319 41.17 290.624 51.4451C287.147 55.1231 283.023 58.203 279.047 60.6857L279.943 61.2323C284.238 64.0186 288.142 70.8039 286.915 77.8897C286.188 82.1032 283.002 89.6394 269.835 92.7709C267.185 93.4015 264.221 93.8215 261.028 94.0199Z" fill="#8C4B23"/>
<path d="M361.189 308.134C374.345 308.134 385.01 303.661 385.01 298.144C385.01 292.627 374.345 288.155 361.189 288.155C348.032 288.155 337.367 292.627 337.367 298.144C337.367 303.661 348.032 308.134 361.189 308.134Z" fill="#FF4076"/>
<path d="M156.347 308.134C169.503 308.134 180.168 303.661 180.168 298.144C180.168 292.627 169.503 288.155 156.347 288.155C143.191 288.155 132.525 292.627 132.525 298.144C132.525 303.661 143.191 308.134 156.347 308.134Z" fill="#FF4076"/>
<path d="M228.224 442.815C228.224 442.815 253.031 453.446 275.433 444.11C275.433 444.11 287.432 464.331 318.364 456.457C342.929 450.043 352.178 424.609 343.169 408.413C333.743 391.354 314.597 396.466 302.302 402.096L305.101 421.127C305.101 421.127 296.199 406.604 284.149 406.749C274.717 406.626 238.993 425.718 228.224 442.815Z" fill="#FF4076"/>
<path d="M215.566 241.814C219.307 245.181 219.401 251.074 215.846 254.627C208.644 261.829 197.139 272.866 191.434 274.737C182.829 277.542 179.929 265.571 183.391 259.584C186.851 253.692 201.162 247.987 201.162 247.987C201.162 247.987 190.78 245.742 183.858 241.252C176.937 236.762 179.275 219.084 193.304 226.66C193.305 226.754 210.235 236.949 215.566 241.814Z" fill="black"/>
</g>
<defs>
<clipPath id="clip0_1101_2">
<rect width="512" height="512" fill="white"/>
</clipPath>
</defs>
</svg>
