<svg width="512" height="512" viewBox="0 0 512 512" fill="none" xmlns="http://www.w3.org/2000/svg">
<g clip-path="url(#clip0_1101_28)">
<path d="M0.734226 343.945C0.891522 344.598 1.07594 345.22 1.29507 345.828C4.88467 355.88 11.5204 362.878 19.7963 365.72C20.79 376.019 24.1442 384.723 29.8361 391.723C37.4644 401.115 45.6915 403.813 51.7946 404.25C107.431 476.512 228.999 497.797 253.627 501.429C254.414 501.545 255.207 501.602 256 501.602C256.793 501.602 257.586 501.545 258.374 501.429C283.002 497.797 404.571 476.512 460.206 404.25C466.31 403.813 474.537 401.114 482.171 391.714C487.859 384.72 491.212 376.019 492.204 365.72C500.473 362.881 507.103 355.892 510.696 345.857C510.919 345.238 511.107 344.608 511.265 343.944C512.989 337.29 512.928 326.929 496.739 281.107C489.323 260.117 479.218 233.656 466.661 202.339C507.566 154.849 509.596 108.344 503.691 77.0055C496.984 41.4111 478.802 17.6833 478.031 16.6907C474.85 12.5924 470.051 10.3978 465.169 10.3978C462.331 10.3978 459.465 11.1398 456.872 12.6802L351.143 75.4586C335.738 68.2838 301.1 54.5057 257.085 51.5659C256.724 51.5421 256.363 51.529 256 51.529C255.638 51.529 255.277 51.5421 254.916 51.5659C210.9 54.5057 176.262 68.2838 160.857 75.4586L55.1293 12.6802C52.5355 11.1398 49.6684 10.3978 46.8317 10.3978C41.949 10.3978 37.152 12.5924 33.9692 16.6918C33.199 17.6844 15.0156 41.4122 8.30937 77.0066C2.40265 108.344 4.43339 154.849 45.339 202.34C32.7813 233.657 22.6764 260.12 15.2608 281.108C-0.928769 326.93 -0.988434 337.291 0.734226 343.945Z" fill="black"/>
<path d="M447.765 198.967C531.045 111.501 465.18 26.6709 465.18 26.6709L351.819 93.9805C351.819 93.9805 311.852 71.5306 256.001 67.8C200.149 71.5306 160.182 93.9805 160.182 93.9805L46.821 26.6709C46.821 26.6709 -19.0447 111.501 64.2363 198.967C41.282 255.775 13.4027 328.635 16.5312 340.034C16.5562 340.152 16.5822 340.258 16.6126 340.339C20.5493 351.386 28.5215 353.27 36.612 348.164C34.7309 360.805 35.6172 373.041 42.4612 381.455C48.0078 388.285 53.9807 389.495 59.1204 386.512C107.867 460.67 234.985 482.23 256.001 485.329C277.017 482.231 404.134 460.671 452.881 386.512C458.02 389.495 463.994 388.285 469.54 381.455C476.384 373.039 477.27 360.805 475.389 348.164C483.478 353.27 491.452 351.386 495.388 340.339C495.418 340.258 495.446 340.152 495.47 340.034C498.597 328.635 470.718 255.775 447.765 198.967Z" fill="#EDA622"/>
<path d="M423.969 272.647C393.012 264.198 348.979 259.838 286.446 267.715C286.446 267.715 287.745 193.165 256.001 187.896C224.255 193.164 225.555 267.715 225.555 267.715C163.021 259.838 118.989 264.198 88.0314 272.647C21.4411 290.825 15.454 332.963 16.4792 339.729C16.5128 339.975 16.5595 340.193 16.6137 340.339C20.5504 351.386 28.5226 353.27 36.613 348.164C34.732 360.805 35.6183 373.041 42.4623 381.455C48.0089 388.285 53.9818 389.495 59.1215 386.512C107.868 460.67 234.986 482.23 256.002 485.329C277.019 482.231 404.135 460.671 452.882 386.512C458.021 389.495 463.995 388.285 469.541 381.455C476.385 373.04 477.271 360.805 475.39 348.164C483.48 353.27 491.453 351.386 495.39 340.339C495.444 340.192 495.49 339.974 495.524 339.729C496.547 332.963 490.56 290.825 423.969 272.647Z" fill="#F5F5F5"/>
<path d="M447.765 198.967C531.045 111.501 465.18 26.6709 465.18 26.6709L351.819 93.9816C351.819 93.9816 321.821 77.1444 277.497 70.2125C276.658 69.3111 275.46 68.7318 274.091 68.7318H266.47C263.049 68.3532 259.558 68.0375 256.001 67.801C252.444 68.0386 248.953 68.3532 245.531 68.7318H237.91C236.541 68.7318 235.343 69.3111 234.504 70.2125C190.182 77.1444 160.184 93.9816 160.184 93.9816L46.8221 26.6709C46.8221 26.6709 -19.0436 111.501 64.2375 198.967C45.3544 245.699 23.1507 303.27 17.6074 328.576C17.7257 328.596 17.8428 328.618 17.96 328.641C21.1992 317.387 30.4037 300.29 53.9145 286.543C54.6294 284.03 55.4061 281.369 56.2328 278.606L89.5285 259.883C92.1917 258.385 91.1134 254.326 88.0586 254.346L64.0119 254.512C65.2529 250.948 66.5666 247.291 67.9605 243.556L106.414 244.281C109.468 244.339 110.595 240.293 107.952 238.764L77.062 220.905C96.2879 176.397 126.187 126.784 171.458 97.9161C171.817 98.4499 172.29 98.9239 172.889 99.2895L207.393 120.367C211.499 122.875 216.249 118.271 213.87 114.089L198.301 86.7123C197.859 85.9334 197.206 85.3162 196.442 84.9061C207.945 80.171 220.279 76.7344 233.5 74.8945L251.545 134.119C252.886 138.52 259.116 138.52 260.457 134.119L278.501 74.8945C291.284 76.6725 303.233 79.9497 314.407 84.4429C313.088 84.6979 311.92 85.5169 311.24 86.7112L295.672 114.086C293.294 118.268 298.044 122.872 302.149 120.364L336.654 99.2862C337.664 98.6701 338.336 97.7545 338.658 96.7413C385.245 125.585 415.799 176.354 435.275 221.67L405.715 238.761C403.07 240.289 404.197 244.337 407.251 244.278L444.055 243.583C445.442 247.304 446.75 250.946 447.987 254.497L425.608 254.343C422.553 254.321 421.475 258.382 424.138 259.88L455.435 277.478C456.392 280.654 457.277 283.687 458.089 286.541C489.87 305.125 495.523 329.84 495.615 337.943L495.71 338.055C496.019 321.902 469.653 253.137 447.765 198.967Z" fill="#D96F1E"/>
<path d="M464.652 56.6069L389.71 119.264C419.101 145.545 437.749 186.218 437.749 186.218C500.494 129.81 464.652 56.6069 464.652 56.6069Z" fill="#FCC2DB"/>
<path d="M74.2512 186.219C74.2512 186.219 92.9 145.545 122.291 119.265L47.3493 56.6069C47.3493 56.6069 11.5064 129.81 74.2512 186.219Z" fill="#FCC2DB"/>
<path d="M455.539 285.094C459.887 297.051 463.081 306.389 465.422 313.651L444.123 300.206C444.123 300.206 469.837 336.404 458.496 359.603C448.95 379.127 432.937 373.404 432.937 373.404C432.937 373.404 369.606 467.74 255.999 467.74C142.392 467.74 79.0623 373.404 79.0623 373.404C79.0623 373.404 63.0496 379.127 53.5045 359.603C42.1629 336.404 67.877 300.206 67.877 300.206L46.578 313.651C48.919 306.389 52.1138 297.051 56.4606 285.094C19.4331 305.464 15.6472 334.239 16.4781 339.73C16.4933 339.839 16.5118 339.94 16.5324 340.036C16.5562 340.153 16.5834 340.259 16.6127 340.34C19.1858 347.558 23.4805 350.864 28.4066 350.864C31.0188 350.864 33.8078 349.934 36.6109 348.164C34.7299 360.805 35.6162 373.042 42.4601 381.456C46.1409 385.989 50.0082 388.044 53.6954 388.044C55.5656 388.044 57.3902 387.516 59.1194 386.512C64.0086 393.948 69.7059 400.838 75.9869 407.25L75.975 407.262C76.2646 407.557 76.563 407.845 76.8548 408.139L77.0728 408.363L77.0804 408.365C133.665 465.023 237.213 482.56 255.999 485.33C277.016 482.231 404.133 460.672 452.88 386.512C454.609 387.516 456.433 388.044 458.304 388.044C461.991 388.044 465.859 385.988 469.539 381.456C476.383 373.041 477.269 360.805 475.388 348.164C478.191 349.934 480.98 350.864 483.592 350.864C488.518 350.864 492.813 347.558 495.386 340.34C495.416 340.259 495.443 340.153 495.467 340.036C495.487 339.94 495.506 339.838 495.521 339.73C496.353 334.238 492.567 305.464 455.539 285.094Z" fill="#EDA622"/>
<path d="M301.485 38.4149C296.535 31.5221 288.531 27.5789 279.514 27.5789C278.843 27.5789 278.156 27.6006 277.472 27.6429C271.661 28.0019 262.612 30.1976 244.034 44.1155C235.28 50.6731 228.098 57.0745 227.415 57.6864C222.546 62.0299 222.391 64.4642 224.54 70.6953L250.059 68.3749C250.059 68.3749 254.245 84.7597 266.3 91.1882C286.599 102.014 299.745 88.6747 299.799 81.9001C299.822 79.1545 300.269 76.461 299.851 73.8097C308.188 62.9758 308.971 48.8659 301.485 38.4149Z" fill="black"/>
<path d="M238.248 69.8274C238.248 69.8274 266.287 44.6351 278.471 43.8822C283.943 43.546 286.81 45.8729 288.257 47.8884C291.796 52.8286 290.742 60.0143 285.696 65.3634C283.886 67.2781 281.74 68.8803 279.669 70.1734L280.135 70.4576C282.373 71.908 284.404 75.4412 283.766 79.1295C283.386 81.323 281.73 85.2467 274.874 86.8782C256.28 91.5754 237.967 70.0476 238.248 69.8274Z" fill="#D96F1E"/>
<path d="M166.52 286.231C167.274 294.835 151.909 303.203 132.204 304.923C112.499 306.643 95.9179 301.061 95.165 292.463C94.4165 283.862 109.779 275.492 129.48 273.771C149.187 272.047 165.768 277.626 166.52 286.231Z" fill="#FF4076"/>
<path d="M340.027 285.773C339.273 294.377 354.638 302.745 374.342 304.465C394.047 306.185 410.629 300.603 411.381 292.005C412.13 283.404 396.767 275.034 377.066 273.313C357.359 271.589 340.778 277.168 340.027 285.773Z" fill="#FF4076"/>
<path d="M256.813 301.931C287.152 301.511 306.883 278.917 304.636 270.223C301.841 259.392 274.648 253.36 255.581 253.626C236.515 253.891 209.539 259.056 207.297 270.014C205.501 278.813 226.475 302.356 256.813 301.931Z" fill="#FF4076"/>
<path d="M250.028 261.073C258.258 261.073 264.931 263.827 264.931 267.227C264.931 270.628 258.258 273.38 250.028 273.38C241.797 273.38 235.126 270.626 235.126 267.227C235.126 263.829 241.797 261.073 250.028 261.073Z" fill="white"/>
<path d="M270.932 263.744C272.77 263.744 274.261 265.18 274.261 266.953C274.261 268.725 272.77 270.163 270.932 270.163C269.093 270.163 267.601 268.725 267.601 266.953C267.601 265.18 269.093 263.744 270.932 263.744Z" fill="white"/>
<path d="M211.387 307.555C211.387 310.569 208.943 313.013 205.928 313.013C202.914 313.013 200.47 310.569 200.47 307.555C200.47 304.54 202.914 302.096 205.928 302.096C208.943 302.096 211.387 304.539 211.387 307.555Z" fill="#EDA622"/>
<path d="M201.379 323.022C201.379 326.036 198.936 328.48 195.92 328.48C192.904 328.48 190.461 326.036 190.461 323.022C190.461 320.007 192.905 317.563 195.92 317.563C198.935 317.563 201.379 320.006 201.379 323.022Z" fill="#EDA622"/>
<path d="M215.936 328.48C218.95 328.48 221.394 326.036 221.394 323.022C221.394 320.007 218.95 317.563 215.936 317.563C212.921 317.563 210.477 320.007 210.477 323.022C210.477 326.036 212.921 328.48 215.936 328.48Z" fill="#EDA622"/>
<path d="M300.615 307.555C300.615 310.569 303.059 313.013 306.074 313.013C309.087 313.013 311.531 310.569 311.531 307.555C311.531 304.54 309.087 302.096 306.074 302.096C303.058 302.096 300.615 304.539 300.615 307.555Z" fill="#EDA622"/>
<path d="M310.622 323.022C310.622 326.036 313.066 328.48 316.08 328.48C319.095 328.48 321.539 326.036 321.539 323.022C321.539 320.007 319.095 317.563 316.08 317.563C313.066 317.562 310.622 320.006 310.622 323.022Z" fill="#EDA622"/>
<path d="M296.065 328.48C299.08 328.48 301.524 326.036 301.524 323.022C301.524 320.007 299.08 317.563 296.065 317.563C293.051 317.563 290.607 320.007 290.607 323.022C290.607 326.036 293.051 328.48 296.065 328.48Z" fill="#EDA622"/>
<path d="M333.325 130.509C310.893 129.213 298.317 148.792 293 157.479C289.369 166.296 297.02 169.538 301.559 167.332C313.487 158.516 328.14 141.919 364.833 170.963C371.963 174.075 379.874 168.888 373.65 158.257C364.313 145.29 351.219 131.546 333.325 130.509Z" fill="black"/>
<path d="M138.352 158.256C132.129 168.888 140.038 174.074 147.168 170.962C183.992 141.919 198.515 158.515 210.442 167.331C214.85 169.536 222.63 166.294 219 157.478C213.685 148.791 200.977 129.211 178.676 130.508C160.782 131.546 147.687 145.29 138.352 158.256Z" fill="black"/>
<path d="M438.327 258.728C439.669 251.052 428.692 245.664 414.218 245.583C399.688 245.91 386.744 251.698 385.382 259.51C384.04 267.186 395.017 272.574 409.491 272.653C424.484 271.98 437.232 265.612 438.327 258.728Z" fill="white"/>
<path d="M445.126 268.364C448.938 268.893 451.599 272.412 451.07 276.226C450.541 280.037 447.021 282.698 443.209 282.169C439.397 281.64 436.736 278.12 437.265 274.308C437.794 270.496 441.315 267.835 445.126 268.364Z" fill="white"/>
<path d="M309.144 250.387C314.453 253.654 320.714 255.56 327.384 255.56C333.917 255.56 340.043 253.791 345.351 250.523C350.523 247.393 354.879 242.901 357.874 237.456C360.597 232.556 358.691 226.294 353.79 223.572C348.89 220.849 342.628 222.755 339.905 227.655C338.681 229.834 336.91 231.739 334.732 233.101C332.555 234.461 330.104 235.142 327.382 235.142C324.661 235.142 322.073 234.325 319.896 233.101C317.718 231.739 315.949 229.833 314.723 227.519C312.137 222.483 305.875 220.577 300.975 223.164C295.938 225.75 294.034 232.011 296.619 236.911C299.616 242.629 303.971 247.119 309.144 250.387Z" fill="black"/>
<path d="M166.557 250.387C171.865 253.654 178.127 255.56 184.795 255.56C191.329 255.56 197.454 253.791 202.763 250.523C207.935 247.393 212.292 242.901 215.286 237.456C218.009 232.556 216.103 226.294 211.203 223.572C206.301 220.849 200.04 222.755 197.318 227.655C196.094 229.834 194.323 231.739 192.145 233.101C189.966 234.461 187.517 235.142 184.794 235.142C182.073 235.142 179.488 234.325 177.308 233.101C175.131 231.739 173.362 229.833 172.136 227.519C169.55 222.483 163.288 220.577 158.388 223.164C153.352 225.75 151.444 232.011 154.033 236.911C157.029 242.629 161.383 247.119 166.557 250.387Z" fill="black"/>
<path d="M262.462 323.439C262.566 323.436 262.67 323.426 262.775 323.42C262.313 315.936 264.622 308.644 267.924 302.23C266.109 302.231 264.287 302.21 262.453 302.14C256.599 302.122 250.821 301.827 245.118 301.257C248.689 307.902 251.268 315.554 250.782 323.421C250.887 323.427 250.992 323.437 251.096 323.44C221.714 402.435 252.396 462.339 302.073 441.885C342.624 425.185 348.826 333.764 262.462 323.439Z" fill="black"/>
<path d="M320.276 433.577C320.276 433.577 316.368 457.018 285.894 457.018C299.177 467.957 328.87 461.705 320.276 433.577Z" fill="black"/>
<path d="M251.901 403.119C251.901 403.119 259.159 408.951 268.513 402.852C268.513 402.852 293.158 438.581 313.641 409.119C334.106 379.685 272.99 358.696 266.978 379.575L273.041 385.565C273.041 385.565 265.495 382.703 260.991 386.212C252.235 395.663 251.901 403.119 251.901 403.119Z" fill="#FF4076"/>
</g>
<defs>
<clipPath id="clip0_1101_28">
<rect width="512" height="512" fill="white"/>
</clipPath>
</defs>
</svg>
