<svg width="256" height="256" viewBox="0 0 256 256" fill="none" xmlns="http://www.w3.org/2000/svg">
<path d="M239.196 27.8265C228.805 18.2968 215.021 13.0487 200.383 13.0487C185.746 13.0487 171.962 18.2968 161.57 27.8265C151.045 37.4787 145.249 50.3495 145.249 64.0688C145.249 77.788 151.045 90.6594 161.57 100.311C171.962 109.841 185.746 115.089 200.383 115.089C215.021 115.089 228.805 109.841 239.196 100.311C249.721 90.6589 255.518 77.788 255.518 64.0688C255.518 50.3495 249.721 37.4787 239.196 27.8265Z" fill="black"/>
<path d="M200.383 109.603C227.803 109.603 250.032 89.2165 250.032 64.0687C250.032 38.921 227.803 18.5347 200.383 18.5347C172.963 18.5347 150.735 38.921 150.735 64.0687C150.735 89.2165 172.963 109.603 200.383 109.603Z" fill="#111111"/>
<path d="M199.012 96.9849C216.888 96.9849 231.379 83.7216 231.379 67.3604C231.379 50.9992 216.888 37.7358 199.012 37.7358C181.136 37.7358 166.644 50.9992 166.644 67.3604C166.644 83.7216 181.136 96.9849 199.012 96.9849Z" fill="#444444"/>
<path d="M94.915 27.3572C84.4716 17.7763 70.619 12.5 55.9092 12.5C41.1993 12.5 27.3462 17.7763 16.9028 27.3572C6.3252 37.0613 0.5 50.0014 0.5 63.7944C0.5 77.5874 6.3252 90.528 16.9028 100.231C27.3462 109.812 41.1988 115.089 55.9092 115.089C70.619 115.089 84.4716 109.812 94.915 100.231C105.493 90.5274 111.318 77.5874 111.318 63.7944C111.318 50.0014 105.493 37.0613 94.915 27.3572Z" fill="black"/>
<path d="M55.9088 109.603C83.4805 109.603 105.832 89.0936 105.832 63.7943C105.832 38.4951 83.4805 17.986 55.9088 17.986C28.3372 17.986 5.98596 38.4951 5.98596 63.7943C5.98596 89.0936 28.3372 109.603 55.9088 109.603Z" fill="#111111"/>
<path d="M57.5548 96.9849C75.4309 96.9849 89.9223 83.5987 89.9223 67.086C89.9223 50.5734 75.4309 37.1872 57.5548 37.1872C39.6786 37.1872 25.1872 50.5734 25.1872 67.086C25.1872 83.5987 39.6786 96.9849 57.5548 96.9849Z" fill="#444444"/>
<mask id="path-7-outside-1_1101_217" maskUnits="userSpaceOnUse" x="12.8362" y="25.974" width="231" height="222" fill="black">
<rect fill="white" x="12.8362" y="25.974" width="231" height="222"/>
<path d="M239.151 137.992C238.031 125.358 235.342 112.177 231.157 98.8158C225.109 79.5051 214.377 56.4971 206.404 51.8934C183.456 38.6455 156.739 31.0675 129.142 29.979C129.061 29.9759 128.981 29.974 128.899 29.974C128.823 29.974 128.747 29.9753 128.671 29.9783C128.538 29.9833 128.408 29.9901 128.278 29.9969C128.164 29.9907 128.049 29.9851 127.933 29.9802C127.844 29.9765 127.756 29.9746 127.666 29.9746C127.585 29.9746 127.504 29.9759 127.423 29.9796C99.8259 31.0681 73.1101 38.6461 50.1626 51.8934C42.1883 56.4978 31.4577 79.5057 25.4091 98.8164C21.2235 112.179 18.5345 125.359 17.4156 137.994C16.0715 153.175 17.0686 167.14 20.3806 179.5C25.587 198.928 36.4071 214.224 52.5404 224.964C70.8898 237.177 96.1662 243.371 127.667 243.371C127.81 243.371 127.952 243.369 128.092 243.365C128.156 243.364 128.218 243.363 128.282 243.363C128.346 243.363 128.409 243.364 128.472 243.365C128.614 243.369 128.755 243.371 128.898 243.371C160.399 243.37 185.675 237.177 204.025 224.963C220.159 214.224 230.979 198.927 236.185 179.498C239.498 167.138 240.495 153.174 239.151 137.992Z"/>
</mask>
<path d="M239.151 137.992C238.031 125.358 235.342 112.177 231.157 98.8158C225.109 79.5051 214.377 56.4971 206.404 51.8934C183.456 38.6455 156.739 31.0675 129.142 29.979C129.061 29.9759 128.981 29.974 128.899 29.974C128.823 29.974 128.747 29.9753 128.671 29.9783C128.538 29.9833 128.408 29.9901 128.278 29.9969C128.164 29.9907 128.049 29.9851 127.933 29.9802C127.844 29.9765 127.756 29.9746 127.666 29.9746C127.585 29.9746 127.504 29.9759 127.423 29.9796C99.8259 31.0681 73.1101 38.6461 50.1626 51.8934C42.1883 56.4978 31.4577 79.5057 25.4091 98.8164C21.2235 112.179 18.5345 125.359 17.4156 137.994C16.0715 153.175 17.0686 167.14 20.3806 179.5C25.587 198.928 36.4071 214.224 52.5404 224.964C70.8898 237.177 96.1662 243.371 127.667 243.371C127.81 243.371 127.952 243.369 128.092 243.365C128.156 243.364 128.218 243.363 128.282 243.363C128.346 243.363 128.409 243.364 128.472 243.365C128.614 243.369 128.755 243.371 128.898 243.371C160.399 243.37 185.675 237.177 204.025 224.963C220.159 214.224 230.979 198.927 236.185 179.498C239.498 167.138 240.495 153.174 239.151 137.992Z" fill="black"/>
<path d="M239.151 137.992C238.031 125.358 235.342 112.177 231.157 98.8158C225.109 79.5051 214.377 56.4971 206.404 51.8934C183.456 38.6455 156.739 31.0675 129.142 29.979C129.061 29.9759 128.981 29.974 128.899 29.974C128.823 29.974 128.747 29.9753 128.671 29.9783C128.538 29.9833 128.408 29.9901 128.278 29.9969C128.164 29.9907 128.049 29.9851 127.933 29.9802C127.844 29.9765 127.756 29.9746 127.666 29.9746C127.585 29.9746 127.504 29.9759 127.423 29.9796C99.8259 31.0681 73.1101 38.6461 50.1626 51.8934C42.1883 56.4978 31.4577 79.5057 25.4091 98.8164C21.2235 112.179 18.5345 125.359 17.4156 137.994C16.0715 153.175 17.0686 167.14 20.3806 179.5C25.587 198.928 36.4071 214.224 52.5404 224.964C70.8898 237.177 96.1662 243.371 127.667 243.371C127.81 243.371 127.952 243.369 128.092 243.365C128.156 243.364 128.218 243.363 128.282 243.363C128.346 243.363 128.409 243.364 128.472 243.365C128.614 243.369 128.755 243.371 128.898 243.371C160.399 243.37 185.675 237.177 204.025 224.963C220.159 214.224 230.979 198.927 236.185 179.498C239.498 167.138 240.495 153.174 239.151 137.992Z" stroke="black" stroke-width="8" mask="url(#path-7-outside-1_1101_217)"/>
<path d="M203.316 57.24C192.346 50.9068 166.502 37.6317 128.9 36.1479C128.692 36.1553 128.49 36.1695 128.284 36.1788C128.078 36.1695 127.875 36.1572 127.668 36.1479C90.0672 37.631 64.2208 50.9068 53.2512 57.24C38.1441 65.962 -37.0858 237.195 127.668 237.195C127.877 237.195 128.077 237.187 128.284 237.187C128.492 237.187 128.691 237.195 128.9 237.195C293.654 237.194 218.424 65.9627 203.316 57.24Z" fill="white"/>
<path d="M107.596 93.3891C104.444 96.5171 99.1052 99.2301 91.1654 98.9936C82.1235 98.5478 75.8743 94.114 73.4632 92.0838C70.3401 95.5322 67.5992 99.8105 65.3857 104.467C61.163 113.351 54.7378 143.455 82.0562 146.426C97.9048 148.149 116.208 141.673 116.004 119.068C115.911 108.756 112.71 99.7364 107.596 93.3891Z" fill="black"/>
<path d="M191.181 105.085C188.587 99.6273 185.27 94.6883 181.459 90.9984L181.415 91.0756C181.415 91.0756 174.369 98.414 162.603 98.9938C156.136 99.1864 151.395 97.4211 148.154 95.0699C143.519 101.343 140.651 109.936 140.563 119.685C140.359 142.29 158.662 148.767 174.511 147.044C201.829 144.072 195.404 113.969 191.181 105.085Z" fill="black"/>
<path d="M203.316 57.24C203.316 57.24 261.287 213.396 128.9 213.396C-3.48673 213.396 53.2506 57.24 53.2506 57.24C38.1435 65.9621 -37.0864 237.195 127.667 237.195C127.876 237.195 128.075 237.187 128.284 237.187C128.491 237.187 128.69 237.195 128.899 237.195C293.654 237.194 218.424 65.9627 203.316 57.24Z" fill="#DADADA"/>
<path d="M164.044 97.8449C159.051 98.6145 155.125 97.8323 152.223 96.4267C148.182 101.271 146.101 108.811 147.166 116.911C148.877 129.922 158.056 139.446 167.668 138.184C177.281 136.92 183.687 125.349 181.976 112.337C180.979 104.748 177.438 98.351 172.755 94.5828C170.462 95.9627 167.554 97.2339 164.044 97.8449Z" fill="white"/>
<path d="M147.38 39.0648C153.097 33.0058 154.079 24.5757 149.771 18.5606C147.221 15.0078 143.189 13.0535 138.413 13.0535H138.412C138.04 13.0535 137.659 13.0659 137.278 13.0887C134.115 13.2839 128.477 14.6188 116.063 23.9188C109.844 28.5774 104.772 33.107 104.388 33.4522C102.977 34.7105 107.725 37.0155 107.725 37.0155L119.756 45.7703C123.864 57.508 135.136 56.7466 136.479 56.4268C145.208 54.3509 147.148 48.3419 147.578 45.8542C147.949 43.7136 147.713 41.5 146.982 39.476C147.117 39.3396 147.25 39.2025 147.38 39.0648Z" fill="black"/>
<path d="M131.724 50.892C124.358 51.347 108.295 38.2195 108.499 38.0596C108.499 38.0596 128.825 19.7967 137.658 19.2515C141.625 19.0082 143.704 20.695 144.751 22.1553C147.316 25.7371 146.553 30.9459 142.894 34.8241C141.582 36.2121 140.025 37.3748 138.525 38.3115L138.863 38.5177C140.484 39.5698 141.957 42.1304 141.495 44.8046C141.221 46.3951 140.017 49.2391 135.049 50.4209C134.047 50.6586 132.929 50.8173 131.724 50.892Z" fill="white"/>
<path d="M144.751 22.1548C143.832 20.8755 142.119 19.4202 139.038 19.246C139.172 19.3529 145.403 21.977 141.041 28.8103C138.218 33.2306 131.348 36.7359 130.831 36.776C130.832 36.8742 137.997 38.5715 136.102 44.0835C134.877 47.6505 128.127 49.4047 116.292 44.0458C121.384 47.5048 127.791 51.1335 131.724 50.8903C132.93 50.8155 134.049 50.6575 135.048 50.4185C140.017 49.2367 141.22 46.3915 141.494 44.8022C141.956 42.1281 140.483 39.5669 138.862 38.5154L138.524 38.3091C140.024 37.3737 141.582 36.211 142.893 34.8218C146.554 30.9454 147.317 25.7366 144.751 22.1548Z" fill="#DADADA"/>
<path d="M166.164 92.1338C173.848 92.077 180.139 100.506 180.217 110.962C180.294 121.417 174.128 129.938 166.444 129.995C158.761 130.052 152.469 121.622 152.392 111.167C152.315 100.712 158.481 92.19 166.164 92.1338Z" fill="black"/>
<path d="M164.856 92.0478C169.081 91.3211 173.119 94.3046 173.877 98.7113C174.634 103.117 171.824 107.278 167.601 108.005C163.377 108.732 159.338 105.748 158.58 101.342C157.822 96.9355 160.632 92.7739 164.856 92.0478Z" fill="white"/>
<path d="M101.881 94.6819C99.1576 97.0143 94.8616 98.9059 88.7227 98.7245C85.8059 98.5818 83.2367 97.9492 81.0572 97.1301C77.4323 101.442 75.122 107.729 75.0699 114.747C74.9719 127.833 82.7526 138.498 92.4476 138.57C102.143 138.641 110.081 128.091 110.179 115.005C110.243 106.42 106.915 98.8754 101.881 94.6819Z" fill="white"/>
<path d="M94.3273 93.0363C102.011 92.9795 108.303 101.409 108.38 111.864C108.458 122.319 102.292 130.841 94.6077 130.898C86.9241 130.955 80.633 122.525 80.5558 112.07C80.478 101.615 86.6444 93.0931 94.3273 93.0363Z" fill="black"/>
<path d="M92.9894 92.0477C97.2134 91.3215 101.252 94.3044 102.01 98.7112C102.767 103.118 99.9579 107.279 95.734 108.005C91.5094 108.732 87.4706 105.748 86.713 101.342C85.9554 96.9354 88.7654 92.7744 92.9894 92.0477Z" fill="white"/>
<path d="M112.567 91.7168C113.896 93.0307 114.941 94.3979 115.703 95.7151C117.795 101.225 112.968 103.083 110.234 101.656C108.826 100.563 106.959 99.6789 104.778 99.0092C97.0063 96.6232 85.1953 96.9954 75.5155 100.653C73.8842 101.269 72.3106 101.975 70.83 102.78C66.5793 105.094 61.5529 101.267 65.5673 94.7888C65.5673 94.7888 66.077 94.2626 67.0462 93.4504C70.2618 90.7545 78.5969 84.8686 90.6549 84.2776C101.244 83.962 108.363 87.5636 112.567 91.7168Z" fill="black"/>
<path d="M175.757 146.881C175.763 150.372 182.251 153.191 190.247 153.174C198.245 153.159 204.721 150.315 204.715 146.826C204.707 143.336 198.22 140.516 190.224 140.532C182.229 140.546 175.751 143.391 175.757 146.881Z" fill="#FF4076"/>
<path d="M80.8098 146.881C80.8036 150.372 74.3154 153.191 66.3195 153.174C58.3217 153.159 51.8453 150.315 51.8521 146.826C51.8601 143.336 58.347 140.516 66.3429 140.532C74.3377 140.546 80.8153 143.391 80.8098 146.881Z" fill="#FF4076"/>
<path d="M128.672 159.725C143.231 159.523 152.7 148.68 151.622 144.508C150.282 139.309 137.232 136.417 128.082 136.543C118.933 136.671 105.986 139.148 104.913 144.407C104.049 148.632 114.114 159.927 128.672 159.725Z" fill="black"/>
<path d="M125.415 146.024C129.364 146.024 132.565 144.702 132.565 143.07C132.565 141.439 129.364 140.116 125.415 140.116C121.467 140.116 118.265 141.439 118.265 143.07C118.265 144.702 121.467 146.024 125.415 146.024Z" fill="white"/>
<path d="M135.446 144.481C136.328 144.481 137.042 143.791 137.042 142.94C137.042 142.089 136.328 141.399 135.446 141.399C134.564 141.399 133.849 142.089 133.849 142.94C133.849 143.791 134.564 144.481 135.446 144.481Z" fill="white"/>
<path d="M108.332 173.31C104.143 173.841 100.63 175.194 97.8409 176.708C92.8489 179.419 90.1852 182.652 90.1852 182.652L90.1463 182.733C87.6055 187.777 91.5559 190.324 94.5833 188.351C95.3545 187.849 96.167 187.386 97.0068 186.953C103.167 183.787 110.939 182.519 116.955 183.119C119.814 183.403 122.278 184.107 123.976 185.233C126.103 186.147 129.604 184.474 127.72 180.456C126.696 178.956 125.142 177.401 123.04 176.11C122.785 175.954 122.519 175.803 122.248 175.655C118.89 173.82 114.284 172.672 108.332 173.31Z" fill="black"/>
<path d="M166.731 83.7294C172.415 84.0136 177.276 85.4847 181.181 87.2527C188.17 90.4184 192.086 94.5411 192.086 94.5411L192.146 94.6465C196.083 101.245 191.039 105.128 186.766 102.761C185.678 102.158 184.538 101.612 183.364 101.112C174.758 97.4489 164.181 96.5401 156.162 97.9876C152.349 98.6756 149.111 99.893 146.946 101.604C144.183 103.072 139.304 101.162 141.418 95.4938C142.639 93.3439 144.566 91.0642 147.257 89.0864C147.583 88.8461 147.926 88.6126 148.274 88.3824C152.597 85.5328 158.666 83.4858 166.731 83.7294Z" fill="black"/>
</svg>
