<svg width="512" height="512" viewBox="0 0 512 512" fill="none" xmlns="http://www.w3.org/2000/svg">
<path d="M478.393 55.653C457.609 36.5936 430.041 26.0974 400.766 26.0974C371.492 26.0974 343.924 36.5936 323.14 55.653C302.09 74.9573 290.497 100.699 290.497 128.138C290.497 155.576 302.09 181.319 323.14 200.622C343.924 219.682 371.492 230.178 400.766 230.178C430.041 230.178 457.609 219.682 478.393 200.622C499.443 181.318 511.036 155.576 511.036 128.138C511.036 100.699 499.443 74.9573 478.393 55.653Z" fill="black"/>
<path d="M400.767 219.206C455.607 219.206 500.064 178.433 500.064 128.137C500.064 77.8419 455.607 37.0693 400.767 37.0693C345.926 37.0693 301.469 77.8419 301.469 128.137C301.469 178.433 345.926 219.206 400.767 219.206Z" fill="#111111"/>
<path d="M398.024 193.97C433.776 193.97 462.759 167.443 462.759 134.721C462.759 101.998 433.776 75.4717 398.024 75.4717C362.271 75.4717 333.288 101.998 333.288 134.721C333.288 167.443 362.271 193.97 398.024 193.97Z" fill="#444444"/>
<path d="M189.83 54.7145C168.943 35.5526 141.238 25 111.818 25C82.3987 25 54.6924 35.5526 33.8055 54.7145C12.6504 74.1226 1 100.003 1 127.589C1 155.175 12.6504 181.056 33.8055 200.463C54.6924 219.625 82.3976 230.177 111.818 230.177C141.238 230.177 168.943 219.625 189.83 200.463C210.985 181.055 222.636 155.175 222.636 127.589C222.636 100.003 210.985 74.1226 189.83 54.7145Z" fill="black"/>
<path d="M111.818 219.205C166.961 219.205 211.663 178.187 211.663 127.589C211.663 76.9901 166.961 35.9719 111.818 35.9719C56.6744 35.9719 11.9719 76.9901 11.9719 127.589C11.9719 178.187 56.6744 219.205 111.818 219.205Z" fill="#111111"/>
<path d="M115.11 193.97C150.862 193.97 179.845 167.197 179.845 134.172C179.845 101.147 150.862 74.3744 115.11 74.3744C79.3573 74.3744 50.3744 101.147 50.3744 134.172C50.3744 167.197 79.3573 193.97 115.11 193.97Z" fill="#444444"/>
<path d="M258.361 57.9593L258.363 57.9594C313.867 60.1488 367.618 75.3897 413.807 102.055L412.947 103.546L413.807 102.055C418.174 104.576 422.708 109.466 427.196 115.74C431.718 122.061 436.325 129.978 440.788 138.774C449.716 156.368 458.146 177.632 464.223 197.034C472.632 223.88 478.041 250.383 480.293 275.808C482.999 306.36 480.998 334.53 474.302 359.514C463.769 398.822 441.847 429.832 409.159 451.591C372.018 476.313 321.031 488.741 257.797 488.742C257.488 488.742 257.19 488.737 256.903 488.73L258.361 57.9593ZM258.361 57.9593C258.179 57.9524 257.991 57.948 257.798 57.948C257.626 57.948 257.446 57.9508 257.263 57.9581C257.021 57.9672 256.783 57.9792 256.557 57.9909M258.361 57.9593L257.341 59.9566C257.077 59.9665 256.817 59.9801 256.557 59.9936L256.556 59.9937M254.761 57.9609C199.259 60.1511 145.512 75.3919 99.3253 102.055L99.3252 102.055C94.958 104.576 90.4237 109.466 85.9359 115.74C81.414 122.062 76.807 129.979 72.3439 138.775C63.4163 156.369 54.9868 177.633 48.9097 197.035C40.4998 223.882 35.0906 250.385 32.8391 275.811L34.4351 275.952L32.8391 275.811C30.1339 306.364 32.1345 334.532 38.8294 359.517C49.3628 398.825 71.2846 429.833 103.973 451.592L104.984 450.073L103.973 451.592C141.112 476.313 192.1 488.742 255.333 488.742C255.641 488.742 255.939 488.737 256.223 488.73L254.845 59.9591M254.761 57.9609C254.763 57.9608 254.765 57.9607 254.767 57.9607L254.845 59.9591M254.761 57.9609C254.758 57.961 254.756 57.9611 254.754 57.9612L254.845 59.9591M254.761 57.9609C254.96 57.9519 255.153 57.9492 255.332 57.9492C255.539 57.9492 255.744 57.9535 255.95 57.9621L255.952 57.9622C256.156 57.9708 256.357 57.9804 256.557 57.9909M254.845 59.9591C255.007 59.9517 255.17 59.9492 255.332 59.9492C255.511 59.9492 255.689 59.9529 255.867 59.9603C256.099 59.9702 256.327 59.9813 256.556 59.9937M256.557 57.9909C256.524 57.9926 256.492 57.9943 256.46 57.996L256.452 57.9964L256.556 59.9937M256.557 57.9909C256.593 57.9928 256.628 57.9947 256.664 57.9966L256.556 59.9937" fill="black" stroke="black" stroke-width="4"/>
<path d="M406.633 114.48C384.693 101.814 333.003 75.2634 257.799 72.2959C257.385 72.3107 256.981 72.3391 256.568 72.3576C256.156 72.3391 255.751 72.3144 255.336 72.2959C180.134 75.2621 128.442 101.814 106.502 114.48C76.2882 131.924 -74.1716 474.389 255.336 474.389C255.753 474.389 256.153 474.373 256.568 474.373C256.983 474.373 257.382 474.389 257.799 474.389C587.308 474.388 436.847 131.925 406.633 114.48Z" fill="white"/>
<path d="M215.191 186.778C208.888 193.034 198.21 198.46 182.331 197.987C164.247 197.096 151.749 188.228 146.926 184.168C140.68 191.065 135.198 199.621 130.771 208.935C122.326 226.702 109.476 286.911 164.112 292.852C195.81 296.299 232.417 283.346 232.008 238.135C231.822 217.511 225.42 199.473 215.191 186.778Z" fill="black"/>
<path d="M382.363 210.17C377.174 199.255 370.54 189.377 362.918 181.997L362.829 182.151C362.829 182.151 348.738 196.828 325.206 197.988C312.271 198.373 302.79 194.842 296.308 190.14C287.037 202.685 281.303 219.871 281.126 239.37C280.717 284.58 317.324 297.534 349.022 294.087C403.659 288.145 390.808 227.937 382.363 210.17Z" fill="black"/>
<path d="M406.633 114.48C406.633 114.48 522.574 426.793 257.799 426.793C-6.97347 426.793 106.501 114.48 106.501 114.48C76.287 131.924 -74.1728 474.389 255.335 474.389C255.752 474.389 256.151 474.373 256.567 474.373C256.982 474.373 257.381 474.389 257.798 474.389C587.308 474.388 436.847 131.925 406.633 114.48Z" fill="#DADADA"/>
<path d="M328.087 195.69C318.102 197.229 310.25 195.665 304.446 192.853C296.364 202.542 292.203 217.622 294.332 233.822C297.754 259.845 316.112 278.892 335.336 276.367C354.561 273.841 367.374 250.698 363.953 224.673C361.958 209.496 354.876 196.702 345.511 189.166C340.925 191.925 335.108 194.468 328.087 195.69Z" fill="white"/>
<path d="M294.761 78.1295C306.195 66.0115 308.157 49.1515 299.541 37.1211C294.442 30.0155 286.378 26.1071 276.825 26.1071H276.824C276.081 26.1071 275.318 26.1318 274.557 26.1774C268.23 26.5677 256.953 29.2375 232.126 47.8375C219.688 57.1548 209.544 66.214 208.775 66.9043C205.955 69.4211 215.45 74.0309 215.45 74.0309L239.512 91.5405C247.727 115.016 270.273 113.493 272.958 112.854C290.415 108.702 294.297 96.6839 295.156 91.7085C295.898 87.4271 295.425 83 293.964 78.952C294.235 78.6791 294.5 78.4049 294.761 78.1295Z" fill="black"/>
<path d="M263.449 101.784C248.715 102.694 216.59 76.439 216.997 76.1191C216.997 76.1191 257.65 39.5934 275.316 38.5029C283.251 38.0164 287.407 41.3901 289.503 44.3107C294.631 51.4743 293.106 61.8919 285.788 69.6483C283.164 72.4243 280.051 74.7496 277.05 76.623L277.726 77.0354C280.968 79.1397 283.915 84.2608 282.99 89.6091C282.442 92.7902 280.035 98.4782 270.098 100.842C268.095 101.317 265.858 101.635 263.449 101.784Z" fill="white"/>
<path d="M289.502 44.3097C287.664 41.751 284.238 38.8403 278.075 38.4921C278.343 38.7057 290.806 43.954 282.081 57.6206C276.436 66.4612 262.696 73.4717 261.662 73.552C261.665 73.7484 275.994 77.1431 272.203 88.167C269.753 95.301 256.253 98.8093 232.584 88.0917C242.768 95.0096 255.581 102.267 263.448 101.781C265.86 101.631 268.097 101.315 270.095 100.837C280.034 98.4735 282.439 92.7831 282.988 89.6044C283.912 84.2561 280.966 79.1337 277.723 77.0307L277.049 76.6183C280.048 74.7474 283.164 72.4221 285.786 69.6436C293.108 61.8909 294.634 51.4733 289.502 44.3097Z" fill="#DADADA"/>
<path d="M332.328 184.268C347.695 184.154 360.279 201.013 360.433 221.923C360.588 242.834 348.256 259.877 332.889 259.99C317.522 260.104 304.938 243.244 304.784 222.335C304.63 201.424 316.961 184.38 332.328 184.268Z" fill="black"/>
<path d="M329.712 184.096C338.161 182.642 346.238 188.609 347.754 197.423C349.269 206.235 343.649 214.557 335.201 216.01C326.753 217.464 318.676 211.497 317.16 202.683C315.644 193.871 321.264 185.548 329.712 184.096Z" fill="white"/>
<path d="M203.761 189.364C198.315 194.029 189.723 197.812 177.445 197.449C171.612 197.164 166.473 195.898 162.114 194.26C154.865 202.884 150.244 215.457 150.14 229.494C149.944 255.665 165.505 276.997 184.895 277.139C204.285 277.282 220.162 256.182 220.357 230.01C220.485 212.839 213.831 197.751 203.761 189.364Z" fill="white"/>
<path d="M188.655 186.073C204.022 185.959 216.605 202.818 216.76 223.728C216.915 244.639 204.584 261.682 189.215 261.795C173.848 261.91 161.266 245.05 161.112 224.141C160.956 203.23 173.289 186.186 188.655 186.073Z" fill="black"/>
<path d="M185.979 184.095C194.427 182.643 202.504 188.609 204.019 197.422C205.535 206.236 199.916 214.558 191.468 216.01C183.019 217.463 174.941 211.496 173.426 202.684C171.911 193.871 177.531 185.549 185.979 184.095Z" fill="white"/>
<path d="M225.135 183.434C227.793 186.061 229.883 188.796 231.406 191.43C235.589 202.45 225.937 206.166 220.467 203.312C217.653 201.127 213.919 199.358 209.556 198.018C194.013 193.246 170.391 193.991 151.031 201.305C147.768 202.538 144.621 203.949 141.66 205.561C133.159 210.187 123.106 202.533 131.135 189.578C131.135 189.578 132.154 188.525 134.092 186.901C140.524 181.509 157.194 169.737 181.31 168.555C202.488 167.924 216.727 175.127 225.135 183.434Z" fill="black"/>
<path d="M351.514 293.761C351.526 300.744 364.502 306.383 380.494 306.348C396.49 306.319 409.443 300.631 409.429 293.651C409.413 286.672 396.439 281.033 380.447 281.064C364.458 281.092 351.503 286.781 351.514 293.761Z" fill="#FF4076"/>
<path d="M161.62 293.761C161.607 300.744 148.631 306.383 132.639 306.348C116.643 306.319 103.691 300.631 103.704 293.651C103.72 286.672 116.694 281.033 132.686 281.064C148.675 281.092 161.631 286.781 161.62 293.761Z" fill="#FF4076"/>
<path d="M257.344 319.451C286.462 319.046 305.4 297.361 303.245 289.015C300.564 278.618 274.464 272.833 256.164 273.086C237.867 273.342 211.972 278.296 209.826 288.814C208.098 297.263 228.228 319.854 257.344 319.451Z" fill="black"/>
<path d="M250.831 292.048C258.728 292.048 265.131 289.403 265.131 286.14C265.131 282.878 258.728 280.233 250.831 280.233C242.933 280.233 236.531 282.878 236.531 286.14C236.531 289.403 242.933 292.048 250.831 292.048Z" fill="white"/>
<path d="M270.891 288.962C272.655 288.962 274.085 287.582 274.085 285.88C274.085 284.178 272.655 282.798 270.891 282.798C269.128 282.798 267.698 284.178 267.698 285.88C267.698 287.582 269.128 288.962 270.891 288.962Z" fill="white"/>
<path d="M216.664 346.619C208.287 347.683 201.26 350.387 195.682 353.415C185.698 358.838 180.37 365.305 180.37 365.305L180.293 365.466C175.211 375.553 183.112 380.647 189.167 376.703C190.709 375.699 192.334 374.771 194.014 373.907C206.334 367.574 221.879 365.038 233.909 366.237C239.628 366.806 244.555 368.214 247.953 370.467C252.206 372.294 259.208 368.948 255.441 360.912C253.392 357.911 250.284 354.802 246.081 352.221C245.571 351.909 245.038 351.606 244.496 351.31C237.78 347.641 228.568 345.344 216.664 346.619Z" fill="black"/>
<path d="M333.463 167.459C344.83 168.027 354.552 170.97 362.361 174.505C376.34 180.837 384.171 189.082 384.171 189.082L384.291 189.293C392.165 202.491 382.078 210.255 373.533 205.522C371.356 204.317 369.075 203.224 366.729 202.224C349.516 194.898 328.363 193.08 312.323 195.975C304.697 197.351 298.221 199.786 293.892 203.209C288.366 206.145 278.608 202.324 282.836 190.988C285.277 186.688 289.132 182.129 294.515 178.173C295.167 177.692 295.851 177.225 296.548 176.765C305.193 171.066 317.332 166.972 333.463 167.459Z" fill="black"/>
</svg>
