<svg width="256" height="256" viewBox="0 0 256 256" fill="none" xmlns="http://www.w3.org/2000/svg">
<path d="M227.544 147.466L212.547 125.21C210.595 115.772 200.712 68.0215 197.98 55.5886C195.886 46.056 184.506 39.808 159.93 34.6977C144.49 31.487 129.693 30.0322 129.07 29.9718C128.864 29.9518 128.657 29.9419 128.449 29.9419C128.242 29.9419 128.035 29.9518 127.828 29.9718C127.206 30.0322 112.409 31.487 96.9691 34.6977C72.3929 39.808 61.0135 46.0554 58.919 55.5886C56.1874 68.0215 46.3038 115.771 44.3516 125.21L29.3549 147.466C28.3634 148.938 27.8672 150.746 27.9516 152.579C28.7311 169.448 34.6767 184.892 45.6239 198.48C54.0853 208.983 65.5368 218.355 79.6602 226.336C103.264 239.674 126.16 244.576 127.123 244.779C127.561 244.871 128.005 244.917 128.449 244.917C128.892 244.917 129.336 244.871 129.774 244.779C130.737 244.576 153.634 239.674 177.238 226.336C191.361 218.355 202.812 208.983 211.274 198.48C222.221 184.892 228.167 169.449 228.946 152.579C229.032 150.746 228.536 148.938 227.544 147.466Z" fill="black"/>
<path d="M205.946 128.589C205.946 128.589 194.109 71.3046 191.066 57.4515C188.022 43.5985 128.45 37.8211 128.45 37.8211C128.45 37.8211 68.8776 43.5985 65.8338 57.4515C62.7901 71.3046 50.9538 128.589 50.9538 128.589L35.0591 152.177C38.1028 218.073 128.45 237.039 128.45 237.039C128.45 237.039 218.797 218.073 221.84 152.177L205.946 128.589Z" fill="#D5B198"/>
<path d="M141.279 128.779H115.62C115.62 128.779 42.7353 145.389 44.8848 163.514C49.1311 199.321 107.43 228.836 128.449 230.392C149.469 228.836 207.767 199.321 212.014 163.514C214.164 145.389 141.279 128.779 141.279 128.779Z" fill="#7F634E"/>
<path d="M160.349 93.8615C168.249 93.7969 174.718 103.403 174.798 115.318C174.878 127.233 168.539 136.944 160.639 137.009C152.739 137.073 146.269 127.467 146.189 115.552C146.11 103.637 152.45 93.9261 160.349 93.8615Z" fill="black"/>
<path d="M156.136 104.519C156.914 99.5096 161.07 96.1204 165.418 96.9481C169.766 97.7753 172.66 102.508 171.882 107.517C171.104 112.526 166.948 115.916 162.601 115.087C158.252 114.259 155.358 109.528 156.136 104.519Z" fill="white"/>
<path d="M158.269 120.821C158.537 119.097 159.969 117.931 161.467 118.216C162.965 118.502 163.963 120.131 163.696 121.854C163.428 123.578 161.996 124.744 160.497 124.459C158.999 124.174 158.001 122.544 158.269 120.821Z" fill="white"/>
<path d="M82.1005 115.313C82.1797 103.398 88.6486 93.7921 96.5492 93.8562C104.449 93.9208 110.789 103.632 110.71 115.547C110.63 127.463 104.161 137.069 96.2603 137.004C88.3602 136.94 82.0208 127.229 82.1005 115.313Z" fill="black"/>
<path d="M92.2313 104.534C93.0088 99.5243 97.1655 96.1351 101.514 96.9629C105.862 97.7906 108.756 102.522 107.978 107.532C107.2 112.541 103.044 115.93 98.6954 115.102C94.3471 114.274 91.4537 109.542 92.2313 104.534Z" fill="white"/>
<path d="M94.3646 120.836C94.6321 119.112 96.0643 117.946 97.562 118.231C99.0607 118.517 100.058 120.145 99.7907 121.869C99.5227 123.592 98.0914 124.759 96.5928 124.473C95.0942 124.188 94.0965 122.56 94.3646 120.836Z" fill="white"/>
<path d="M166.811 152.946C161.924 161.888 139.157 168.293 131.927 149.971C131.566 149.978 131.733 144.246 131.224 139.657C130.152 139.705 129.07 139.712 127.974 139.666C127.205 139.663 126.442 139.636 125.682 139.598C125.164 144.197 125.334 149.98 124.971 149.971C117.741 168.293 94.9737 161.888 90.0864 152.946C90.0864 152.946 87.7633 151.946 89.0731 156.835C91.0016 160.96 91.7217 167.025 101.758 169.481C102.002 169.542 93.2573 208.202 128.45 208.202C163.641 208.202 154.898 169.542 155.142 169.481C165.179 167.025 165.898 160.96 167.826 156.835C169.135 151.944 166.811 152.946 166.811 152.946Z" fill="black"/>
<path d="M91.198 138.305C91.5116 142.27 85.1152 146.128 76.9119 146.92C68.7086 147.713 61.8056 145.14 61.4925 141.177C61.1804 137.213 67.5767 133.355 75.7786 132.561C83.9819 131.768 90.8849 134.339 91.198 138.305Z" fill="#FF4076"/>
<path d="M181.121 132.562C189.323 133.356 195.719 137.214 195.406 141.177C195.093 145.141 188.19 147.713 179.987 146.92C171.784 146.128 165.387 142.27 165.701 138.305C166.014 134.339 172.917 131.768 181.121 132.562Z" fill="#FF4076"/>
<path d="M148.631 132.775L148.641 132.721L148.624 132.666L148.621 132.625C148.04 129.477 143.44 127.37 138.141 126.204C134.926 125.449 131.454 125.068 128.449 125.101C125.444 125.068 121.973 125.448 118.758 126.204C113.459 127.37 108.859 129.476 108.278 132.625L108.275 132.666L108.258 132.721L108.267 132.775C108.255 133.004 108.301 133.255 108.408 133.527C110.07 140.252 122.838 145.586 122.838 145.586C124.571 146.69 126.516 147.205 128.45 147.144C130.383 147.205 132.328 146.69 134.062 145.586C134.062 145.586 146.829 140.252 148.491 133.527C148.597 133.255 148.644 133.004 148.631 132.775Z" fill="black"/>
<path d="M126.327 129.544C129.284 129.544 131.681 130.64 131.681 131.993C131.681 133.345 129.284 134.44 126.327 134.44C123.369 134.44 120.972 133.344 120.972 131.993C120.972 130.641 123.369 129.544 126.327 129.544Z" fill="white"/>
<path d="M133.838 133.16C134.499 133.16 135.034 132.588 135.034 131.883C135.034 131.178 134.499 130.607 133.838 130.607C133.177 130.607 132.642 131.178 132.642 131.883C132.642 132.588 133.177 133.16 133.838 133.16Z" fill="white"/>
<path d="M161.475 69.9453C152.136 69.3481 146.9 78.3718 144.687 82.3755C143.175 86.4391 146.36 87.9334 148.25 86.9171C153.216 82.853 159.316 75.2038 174.592 88.5904C177.56 90.0248 180.853 87.634 178.262 82.7343C174.376 76.7579 168.924 70.4233 161.475 69.9453Z" fill="black"/>
<path d="M78.6363 82.7342C76.0452 87.6345 79.338 90.0247 82.3068 88.5904C97.637 75.2043 103.683 82.8535 108.648 86.917C110.483 87.9333 113.722 86.4391 112.211 82.3755C109.997 78.3713 104.708 69.3476 95.4234 69.9453C87.9744 70.4232 82.5226 76.7578 78.6363 82.7342Z" fill="black"/>
<path d="M110.032 144.056C110.032 145.249 109.157 146.218 108.078 146.218C106.999 146.218 106.125 145.249 106.125 144.056C106.125 142.861 106.999 141.893 108.078 141.893C109.157 141.893 110.032 142.861 110.032 144.056Z" fill="black"/>
<path d="M105.678 151.47C105.678 152.664 104.804 153.633 103.724 153.633C102.646 153.633 101.771 152.664 101.771 151.47C101.771 150.276 102.646 149.308 103.724 149.308C104.804 149.308 105.678 150.276 105.678 151.47Z" fill="black"/>
<path d="M114.385 151.47C114.385 152.664 113.51 153.633 112.431 153.633C111.352 153.633 110.478 152.664 110.478 151.47C110.478 150.276 111.352 149.308 112.431 149.308C113.51 149.308 114.385 150.276 114.385 151.47Z" fill="black"/>
<path d="M150.774 144.056C150.774 145.249 149.9 146.218 148.821 146.218C147.742 146.218 146.867 145.249 146.867 144.056C146.867 142.861 147.742 141.893 148.821 141.893C149.9 141.893 150.774 142.861 150.774 144.056Z" fill="black"/>
<path d="M146.421 151.47C146.421 152.664 145.546 153.633 144.467 153.633C143.389 153.633 142.514 152.664 142.514 151.47C142.514 150.276 143.389 149.308 144.467 149.308C145.546 149.308 146.421 150.276 146.421 151.47Z" fill="black"/>
<path d="M155.127 151.47C155.127 152.664 154.253 153.633 153.174 153.633C152.096 153.633 151.221 152.664 151.221 151.47C151.221 150.276 152.096 149.308 153.174 149.308C154.253 149.308 155.127 150.276 155.127 151.47Z" fill="black"/>
<path d="M151.061 17.9302C148.369 13.7805 144.137 11.5 139.138 11.5C138.754 11.5 138.361 11.5137 137.969 11.5404C134.738 11.761 129.026 13.2642 116.739 23.7244C110.566 28.9791 106.626 33.1966 106.416 33.4119C105.399 34.4508 115.547 46.7035 120.958 47.078C120.958 47.078 121.126 62.8029 137.574 60.4778C143.998 59.5697 148.191 54.1941 149.134 48.1442C149.485 45.8984 149.321 43.5838 148.728 41.4204C154.574 34.4855 155.535 24.8457 151.061 17.9302Z" fill="black"/>
<path d="M110.164 40.0963C110.164 40.0963 129.851 19.988 138.406 19.4034C142.248 19.1413 144.261 20.9512 145.277 22.5174C147.761 26.3572 147.021 31.9434 143.478 36.1015C142.207 37.5895 140.7 38.8358 139.247 39.8411L139.573 40.0622C141.144 41.1893 142.57 43.9362 142.122 46.8028C141.856 48.5081 140.692 51.5575 135.879 52.8254C122.825 56.4762 109.966 40.2675 110.164 40.0963Z" fill="#D5B198"/>
<path d="M252.236 64.2756C245.168 54.0665 230.352 42.8815 219.166 35.2958C210.353 29.3189 195.423 20.1009 190.413 19.2038C189.278 19.0006 188.105 18.8976 186.925 18.8976C175.426 18.8976 165.425 28.3756 164.514 29.6529C159.736 36.3447 159.285 40.8374 159.285 40.8374L180.472 47.3369C180.711 61.7924 182.473 75.3523 185.722 87.7211C188.716 99.1199 192.975 109.541 198.379 118.695C206.943 133.202 215.839 140.094 217.687 141.432C219.68 143.046 227.539 148.983 235.294 148.983C242.211 148.983 247.484 144.292 249.399 136.436C249.541 135.853 249.623 135.254 249.642 134.651L250.567 104.569C251.437 102.176 253.155 97.1272 254.415 91.3719C257.095 79.1271 256.382 70.2641 252.236 64.2756Z" fill="black"/>
<path d="M169.326 35.4561C169.326 35.4561 179.402 25.2134 189.276 26.9812C194.386 27.8962 234.858 52.1253 246.588 69.0687C253.137 78.5268 243.5 102.871 243.5 102.871L242.53 134.382C238.924 149.172 221.732 134.944 221.732 134.944C221.732 134.944 186.73 111.283 187.575 41.4525L187.919 35.5958L181.776 39.547L169.326 35.4561Z" fill="#7F634E"/>
<path d="M3.76435 64.2756C10.8319 54.067 25.6484 42.8815 36.8342 35.2964C45.6472 29.3194 60.5779 20.1014 65.5876 19.2043C66.7223 19.0011 67.8955 18.8981 69.0758 18.8981H69.0763C80.5748 18.8981 90.5756 28.3762 91.4869 29.6535C96.2641 36.3452 96.7153 40.8379 96.7153 40.8379L75.5286 47.3374C75.289 61.7929 73.5276 75.3529 70.2784 87.7217C67.284 99.1204 63.0253 109.541 57.621 118.696C49.0571 133.203 40.1617 140.094 38.3129 141.432C36.32 143.047 28.4611 148.983 20.7066 148.983C13.7898 148.983 8.51688 144.292 6.60126 136.436C6.45894 135.854 6.37782 135.255 6.35884 134.652L5.43329 104.57C4.56324 102.177 2.84497 97.1277 1.58591 91.3724C-1.09492 79.1271 -0.381897 70.2641 3.76435 64.2756Z" fill="black"/>
<path d="M86.6742 35.4561C86.6742 35.4561 76.598 25.2134 66.7238 26.9812C61.6145 27.8962 21.1421 52.1253 9.41166 69.0687C2.86353 78.5268 12.5 102.871 12.5 102.871L13.4697 134.382C17.0765 149.172 34.2683 134.944 34.2683 134.944C34.2683 134.944 69.2704 111.283 68.425 41.4525L68.0811 35.5958L74.2241 39.547L86.6742 35.4561Z" fill="#7F634E"/>
<path d="M114.77 181.725C114.77 181.725 114.339 188.607 121.262 191.716C121.262 191.716 111.047 221.817 135.058 221.817C159.047 221.817 147.233 175.765 133.465 180.938L132.491 187.158C132.491 187.158 131.18 181.358 127.532 180.103C118.994 178.774 114.77 181.725 114.77 181.725Z" fill="#FF4076"/>
</svg>
