<svg width="256" height="256" viewBox="0 0 256 256" fill="none" xmlns="http://www.w3.org/2000/svg">
<g clip-path="url(#clip0_1101_62)">
<path d="M248.444 13.3238L248.312 13.3228C248.239 13.3228 248.167 13.3238 248.093 13.3258C247.661 13.3376 247.239 13.3853 246.828 13.4657C245.261 13.7435 233.362 15.8912 219.391 19.3984C199.133 24.484 184.924 29.817 177.16 35.2485C167.165 42.2404 161.3 51.4769 160.198 61.9596C159.174 71.6962 162.354 82.3055 169.392 92.6416C178.064 105.374 192.234 112.975 207.298 112.975C216.313 112.975 224.982 110.245 232.366 105.079C237.647 101.385 241.95 94.5402 245.524 84.1518C248.05 76.8084 250.244 67.5817 252.044 56.7279C254.932 39.3148 255.872 23.4995 255.978 21.5855C255.993 21.3949 256 21.2027 256 21.009C256 16.8079 252.629 13.3935 248.444 13.3238Z" fill="black"/>
<path d="M248.312 21.0095C248.312 21.0095 198.431 29.7499 181.566 41.5476C164.702 53.3452 163.775 70.7368 175.747 88.315C187.719 105.893 211.095 110.578 227.962 98.7808C244.828 86.9831 248.312 21.0095 248.312 21.0095Z" fill="#6E7989"/>
<path d="M229.353 41.9227C229.353 41.9227 198.456 47.3358 188.01 54.6444C177.564 61.9524 176.99 72.7247 184.406 83.6128C191.821 94.5003 206.302 97.4023 216.747 90.0948C227.194 82.7862 229.353 41.9227 229.353 41.9227Z" fill="#D6DEEA"/>
<path d="M95.8008 61.9601C94.699 51.4774 88.833 42.2409 78.8386 35.249C71.074 29.8176 56.8652 24.485 36.607 19.3989C21.9273 15.7139 9.53361 13.5293 9.01347 13.4381C8.57174 13.3607 8.12796 13.3228 7.68674 13.3228C5.82346 13.3228 4.00631 14.0007 2.58886 15.2562C0.836277 16.809 -0.112784 19.0766 0.0107174 21.4149C0.0471015 22.1062 0.939793 38.5462 3.95455 56.7285C5.75428 67.5822 7.94809 76.8089 10.4745 84.1523C14.0483 94.5408 18.3524 101.386 23.6322 105.079C31.0171 110.245 39.6853 112.976 48.7003 112.976C63.7644 112.976 77.9342 105.375 86.6059 92.6421C93.6449 82.306 96.8247 71.6962 95.8008 61.9601Z" fill="black"/>
<path d="M7.68677 21.0095C7.68677 21.0095 57.5673 29.7499 74.4326 41.5476C91.2979 53.3452 92.2239 70.7368 80.252 88.315C68.2806 105.893 44.9036 110.578 28.0378 98.7808C11.172 86.9831 7.68677 21.0095 7.68677 21.0095Z" fill="#6E7989"/>
<path d="M26.6454 41.9227C26.6454 41.9227 57.5422 47.3358 67.988 54.6444C78.4338 61.9524 79.0078 72.7247 71.5921 83.6128C64.1774 94.5003 49.6971 97.4023 39.2513 90.0948C28.8049 82.7862 26.6454 41.9227 26.6454 41.9227Z" fill="#D6DEEA"/>
<path d="M250.995 137.263C250.884 137.079 239.778 118.636 228.553 100.145C209.072 68.0577 205.289 62.2383 204.083 60.662C197.575 51.5004 186.847 44.2841 172.193 39.2113C159.36 34.7694 144.13 32.2578 128.148 31.9478C128.099 31.9473 128.049 31.9468 127.999 31.9468C127.95 31.9468 127.9 31.9473 127.85 31.9478C111.868 32.2578 96.6382 34.7694 83.8054 39.2118C69.1508 44.2846 58.4231 51.5004 51.9155 60.6625C50.7102 62.2388 46.9268 68.0588 27.4459 100.145C16.2201 118.636 5.11428 137.079 5.00359 137.263C3.90592 139.086 3.61331 141.282 4.19443 143.329C4.47679 144.322 11.3191 167.937 29.8093 192.004C40.7538 206.251 53.5338 217.717 67.7948 226.084C85.6897 236.583 105.885 242.166 127.82 242.675C127.88 242.677 127.939 242.677 127.999 242.677C128.059 242.677 128.118 242.677 128.178 242.675C150.113 242.166 170.308 236.583 188.203 226.084C202.464 217.717 215.245 206.251 226.189 192.004C244.679 167.936 251.522 144.322 251.804 143.329C252.386 141.282 252.093 139.086 250.995 137.263Z" fill="black"/>
<path d="M197.941 65.2905C186.355 48.7552 157.475 40.2044 128 39.634C98.524 40.2049 69.6448 48.7557 58.0583 65.2905C55.908 67.6252 11.5891 141.228 11.5891 141.228C11.5891 141.228 37.6288 232.891 128 234.992C218.371 232.891 244.411 141.228 244.411 141.228C244.411 141.228 200.092 67.6252 197.941 65.2905Z" fill="#6E7989"/>
<path d="M217.398 158.595L223.832 155.708C223.978 155.306 224.12 154.909 224.258 154.521L213.548 147.826L227.815 141.428C226.038 140.787 214.813 136.413 207.532 125.788C196.909 110.284 188.431 86.2073 170.133 86.2073C136.537 86.2073 146.685 142.208 129.746 142.208C129.141 142.208 126.858 142.208 126.254 142.208C109.315 142.208 119.463 86.2073 85.868 86.2073C67.5693 86.2073 59.0913 110.284 48.4677 125.788C41.1868 136.413 29.9605 140.787 28.1843 141.428L42.451 147.826L31.6459 154.58C31.7689 154.93 31.895 155.285 32.0252 155.646L38.6015 158.595L34.2205 161.334C44.7729 186.98 70.785 228.415 127.944 228.415C185.128 228.415 211.09 186.91 221.674 161.268L217.398 158.595Z" fill="#D6DEEA"/>
<path d="M150.319 44.1621C156.997 37.3727 158.298 27.7309 153.489 20.7093C150.615 16.5251 146.001 14.1617 140.493 14.0474C140.069 14.0387 139.632 14.0428 139.2 14.0602C135.636 14.2057 129.291 15.5525 115.389 25.5217C108.37 30.5545 102.65 35.4715 102.409 35.6785C100.477 37.344 99.5172 39.8576 99.7893 42.3537C99.7893 42.3537 112.277 40.0759 114.554 40.123C114.554 40.123 121.219 63.4703 137.649 63.0245C144.79 62.8308 149.485 57.0216 150.646 51.0346C151.089 48.7578 150.939 46.397 150.293 44.1893L150.319 44.1621Z" fill="black"/>
<path d="M107.426 41.5015C107.426 41.5015 129.908 22.1324 139.51 21.7403C143.823 21.5656 146.041 23.4442 147.146 25.0533C149.85 28.9997 148.904 34.6388 144.844 38.766C143.387 40.2434 141.672 41.4703 140.022 42.4537L140.384 42.6853C142.121 43.8634 143.662 46.6778 143.099 49.5706C142.766 51.2909 141.396 54.3518 135.973 55.5227C121.263 58.9151 107.201 41.6706 107.426 41.5015Z" fill="#6E7989"/>
<path d="M169.533 157.727C164.242 166.471 139.592 172.734 131.764 154.817C131.374 154.824 131.555 149.218 131.004 144.731C129.843 144.777 128.671 144.785 127.485 144.74C126.653 144.737 125.827 144.71 125.003 144.673C124.442 149.17 124.626 154.825 124.234 154.817C116.406 172.734 91.7566 166.471 86.4655 157.727C86.4655 157.727 83.9504 156.749 85.3684 161.53C87.4561 165.565 88.2355 171.495 99.1016 173.897C99.3665 173.957 89.899 211.763 128 211.763C166.1 211.763 156.634 173.957 156.898 173.897C167.765 171.495 168.544 165.565 170.631 161.53C172.048 156.747 169.533 157.727 169.533 157.727Z" fill="black"/>
<path d="M139.753 168.828C139.753 168.828 141.104 177.879 143.693 177.879C146.28 177.879 148.081 171.128 148.081 171.128C143.468 170.902 139.753 168.828 139.753 168.828Z" fill="white"/>
<path d="M117.023 168.828C117.023 168.828 115.672 177.879 113.084 177.879C110.496 177.879 108.695 171.128 108.695 171.128C113.31 170.902 117.023 168.828 117.023 168.828Z" fill="white"/>
<path d="M128.315 150.737C140.117 150.574 147.793 141.783 146.919 138.402C145.832 134.188 135.253 131.842 127.836 131.945C120.42 132.048 109.925 134.058 109.053 138.32C108.354 141.743 116.513 150.902 128.315 150.737Z" fill="black"/>
<path d="M125.675 134.842C128.877 134.842 131.472 135.914 131.472 137.236C131.472 138.559 128.877 139.63 125.675 139.63C122.473 139.63 119.878 138.559 119.878 137.236C119.878 135.914 122.474 134.842 125.675 134.842Z" fill="white"/>
<path d="M133.807 135.881C134.523 135.881 135.102 136.44 135.102 137.13C135.102 137.82 134.522 138.38 133.807 138.38C133.092 138.38 132.512 137.82 132.512 137.13C132.512 136.44 133.092 135.881 133.807 135.881Z" fill="white"/>
<path d="M170.716 76.5593C160.606 75.9746 154.936 84.7995 152.54 88.7152C150.904 92.6893 154.352 94.1502 156.397 93.1566C161.773 89.1831 168.378 81.7023 184.916 94.7929C188.13 96.1954 191.695 93.8576 188.89 89.0657C184.683 83.2217 178.78 77.0272 170.716 76.5593Z" fill="black"/>
<path d="M67.1082 89.0658C64.303 93.8582 67.8681 96.1955 71.0822 94.7929C87.6795 81.7024 94.2251 89.1826 99.6017 93.1567C101.588 94.1503 105.095 92.6893 103.458 88.7153C101.062 84.7996 95.335 75.9752 85.2833 76.5594C77.2183 77.0273 71.3159 83.2218 67.1082 89.0658Z" fill="black"/>
<path d="M97.9491 117.154C95.5595 115.684 92.7405 114.826 89.738 114.826C86.7966 114.826 84.0391 115.622 81.6495 117.093C79.3209 118.502 77.3603 120.524 76.012 122.975C74.7862 125.181 75.6446 128 77.8502 129.226C80.0563 130.452 82.8748 129.593 84.1006 127.387C84.6519 126.407 85.4488 125.549 86.4291 124.936C87.4095 124.323 88.5128 124.017 89.738 124.017C90.9633 124.017 92.1276 124.384 93.1084 124.936C94.0888 125.549 94.8856 126.407 95.437 127.449C96.6013 129.716 99.4198 130.575 101.626 129.41C103.893 128.245 104.751 125.427 103.587 123.221C102.238 120.647 100.277 118.625 97.9491 117.154Z" fill="black"/>
<path d="M174.393 117.154C172.004 115.684 169.185 114.826 166.183 114.826C163.241 114.826 160.484 115.622 158.094 117.093C155.765 118.502 153.805 120.524 152.457 122.975C151.231 125.181 152.089 128 154.295 129.226C156.502 130.452 159.319 129.593 160.545 127.387C161.096 126.407 161.893 125.549 162.874 124.936C163.854 124.323 164.957 124.017 166.183 124.017C167.408 124.017 168.572 124.384 169.553 124.936C170.533 125.549 171.329 126.407 171.882 127.449C173.045 129.716 175.864 130.575 178.07 129.41C180.338 128.245 181.196 125.427 180.031 123.221C178.682 120.647 176.722 118.625 174.393 117.154Z" fill="black"/>
<path d="M187.956 136.004C196.866 136.326 203.973 139.742 203.831 143.632C203.69 147.52 196.355 150.412 187.445 150.091C178.536 149.768 171.427 146.353 171.568 142.463C171.711 138.572 179.049 135.68 187.956 136.004Z" fill="#FF4076"/>
<path d="M84.4305 142.463C84.5715 146.353 77.4627 149.768 68.5543 150.091C59.6438 150.412 52.309 147.52 52.1676 143.632C52.0262 139.742 59.1334 136.326 68.0439 136.004C76.9513 135.68 84.2891 138.572 84.4305 142.463Z" fill="#FF4076"/>
<path d="M135.004 195.062C132.985 192.614 130.034 189.771 126.576 186.999C120.97 182.504 112.876 182.843 107.734 187.862C107.656 187.938 107.615 187.98 107.615 187.98C107.872 183.291 114.709 180.208 114.709 180.208C114.709 180.208 95.3919 170.98 88.0844 182.162C83.8049 188.711 86.3846 197.786 90.8721 202.766C93.7869 206.58 98.2858 209.213 103.221 210.214C115.531 212.629 120.247 207.955 122.355 204.848C122.355 204.848 131.572 209.913 137.826 208.479C137.826 208.479 142.649 204.328 135.004 195.062Z" fill="#FF4076"/>
<path d="M118.566 197.172C118.566 197.172 111.671 216.051 94.3352 203.035C83.769 195.101 87.7953 182.771 87.7953 182.771C76.8114 205.65 98.0059 211.747 98.0059 211.747C98.0059 211.747 95.7778 219.5 101.919 221.844C109.352 224.682 112.055 217.712 112.055 217.712C111.574 210.306 122.842 207.024 122.842 207.024C122.842 207.024 130.96 210.531 137.518 208.44C137.518 208.44 129.012 195.357 118.566 197.172Z" fill="#009BFF"/>
</g>
<defs>
<clipPath id="clip0_1101_62">
<rect width="256" height="256" fill="white"/>
</clipPath>
</defs>
</svg>
