<svg width="512" height="512" viewBox="0 0 512 512" fill="none" xmlns="http://www.w3.org/2000/svg">
<g clip-path="url(#clip0_1101_62)">
<path d="M496.888 26.6474L496.624 26.6454C496.478 26.6454 496.333 26.6474 496.187 26.6515C495.323 26.6751 494.477 26.7704 493.655 26.9313C490.521 27.4868 466.724 31.7822 438.783 38.7966C398.266 48.9678 369.848 59.634 354.32 70.4969C334.33 84.4807 322.6 102.954 320.395 123.919C318.347 143.392 324.707 164.611 338.784 185.283C356.127 210.748 384.467 225.95 414.595 225.95C432.626 225.95 449.964 220.49 464.732 210.158C475.293 202.77 483.899 189.08 491.048 168.304C496.101 153.617 500.488 135.163 504.088 113.456C509.863 78.6295 511.745 46.999 511.957 43.1709C511.986 42.7897 512 42.4053 512 42.0179C512 33.6158 505.258 26.7868 496.888 26.6474Z" fill="black"/>
<path d="M496.623 42.0189C496.623 42.0189 396.862 59.4997 363.132 83.095C329.403 106.69 327.549 141.474 351.494 176.63C375.438 211.786 422.191 221.157 455.923 197.561C489.656 173.966 496.623 42.0189 496.623 42.0189Z" fill="#6E7989"/>
<path d="M458.706 83.8453C458.706 83.8453 396.912 94.6714 376.021 109.289C355.128 123.905 353.98 145.449 368.812 167.225C383.642 189 412.604 194.805 433.493 180.189C454.387 165.572 458.706 83.8453 458.706 83.8453Z" fill="#D6DEEA"/>
<path d="M191.602 123.92C189.398 102.955 177.666 84.4817 157.677 70.498C142.148 59.635 113.73 48.9698 73.2139 38.7977C43.8545 31.4276 19.0672 27.0584 18.0269 26.876C17.1435 26.7212 16.2559 26.6454 15.3735 26.6454C11.6469 26.6454 8.0126 28.0013 5.17771 30.5123C1.67254 33.6178 -0.225582 38.153 0.0214195 42.8296C0.0941876 44.2122 1.87957 77.0922 7.90908 113.457C11.5085 135.164 15.8962 153.618 20.9489 168.305C28.0966 189.081 36.7048 202.772 47.2644 210.159C62.0343 220.491 79.3705 225.951 97.4006 225.951C127.529 225.951 155.868 210.749 173.212 185.284C187.29 164.612 193.649 143.392 191.602 123.92Z" fill="black"/>
<path d="M15.3736 42.0189C15.3736 42.0189 115.135 59.4997 148.865 83.095C182.596 106.69 184.448 141.474 160.504 176.63C136.561 211.786 89.8072 221.157 56.0756 197.561C22.3439 173.966 15.3736 42.0189 15.3736 42.0189Z" fill="#6E7989"/>
<path d="M53.2909 83.8453C53.2909 83.8453 115.084 94.6714 135.976 109.289C156.868 123.905 158.016 145.449 143.184 167.225C128.355 189 99.3942 194.805 78.5025 180.189C57.6098 165.572 53.2909 83.8453 53.2909 83.8453Z" fill="#D6DEEA"/>
<path d="M501.99 274.527C501.768 274.159 479.557 237.271 457.105 200.29C418.143 136.115 410.578 124.477 408.166 121.324C395.151 103.001 373.694 88.568 344.386 78.4225C318.721 69.5386 288.259 64.5156 256.297 63.8955C256.197 63.8945 256.098 63.8934 255.998 63.8934C255.899 63.8934 255.8 63.8945 255.7 63.8955C223.737 64.5156 193.276 69.5386 167.611 78.4235C138.302 88.569 116.846 103.001 103.831 121.325C101.42 124.478 93.8535 136.117 54.8918 200.291C32.4402 237.272 10.2285 274.159 10.0071 274.527C7.8118 278.172 7.22658 282.564 8.38882 286.657C8.95354 288.644 22.6381 335.873 59.6186 384.008C81.5075 412.502 107.068 435.434 135.59 452.168C171.379 473.166 211.771 484.332 255.641 485.349C255.76 485.353 255.879 485.353 255.998 485.353C256.118 485.353 256.236 485.353 256.355 485.349C300.225 484.332 340.617 473.166 376.406 452.168C404.928 435.434 430.49 412.502 452.378 384.008C489.358 335.871 503.044 288.644 503.607 286.657C504.771 282.564 504.186 278.172 501.99 274.527Z" fill="black"/>
<path d="M395.882 130.581C372.709 97.5103 314.95 80.4088 255.999 79.2681C197.048 80.4098 139.29 97.5114 116.116 130.581C111.816 135.25 23.1782 282.455 23.1782 282.455C23.1782 282.455 75.2577 465.782 255.999 469.983C436.741 465.782 488.822 282.455 488.822 282.455C488.822 282.455 400.183 135.25 395.882 130.581Z" fill="#6E7989"/>
<path d="M434.795 317.189L447.664 311.416C447.956 310.612 448.241 309.818 448.516 309.041L427.096 295.652L455.63 282.855C452.077 281.574 429.625 272.826 415.065 251.575C393.818 220.569 376.862 172.414 340.265 172.414C273.074 172.414 293.371 284.416 259.491 284.416C258.282 284.416 253.717 284.416 252.508 284.416C218.629 284.416 238.927 172.414 171.736 172.414C135.139 172.414 118.183 220.567 96.9354 251.575C82.3736 272.825 59.921 281.574 56.3687 282.855L84.902 295.652L63.2919 309.16C63.5379 309.86 63.79 310.57 64.0503 311.291L77.2029 317.19L68.441 322.667C89.5458 373.961 141.57 456.829 255.888 456.829C370.257 456.829 422.179 373.819 443.348 322.535L434.795 317.189Z" fill="#D6DEEA"/>
<path d="M300.637 88.324C313.995 74.7451 316.597 55.4615 306.977 41.4183C301.23 33.0499 292.001 28.3231 280.986 28.0945C280.137 28.0771 279.265 28.0853 278.4 28.1202C271.272 28.4112 258.582 31.1047 230.778 51.0432C216.741 61.1087 205.3 70.9427 204.819 71.3568C200.954 74.6877 199.034 79.7149 199.579 84.7072C199.579 84.7072 224.554 80.1515 229.107 80.2458C229.107 80.2458 242.438 126.94 275.297 126.049C289.579 125.661 298.97 114.043 301.291 102.069C302.178 97.5154 301.878 92.7937 300.586 88.3784L300.637 88.324Z" fill="black"/>
<path d="M214.852 83.0028C214.852 83.0028 259.815 44.2645 279.021 43.4804C287.645 43.1309 292.082 46.8882 294.292 50.1064C299.699 57.9992 297.808 69.2773 289.688 77.5319C286.774 80.4867 283.344 82.9403 280.044 84.9071L280.768 85.3703C284.242 87.7266 287.324 93.3553 286.198 99.1409C285.531 102.582 282.792 108.703 271.946 111.045C242.525 117.83 214.402 83.341 214.852 83.0028Z" fill="#6E7989"/>
<path d="M339.066 315.454C328.484 332.942 279.185 345.468 263.528 309.635C262.747 309.648 263.11 298.437 262.007 289.463C259.685 289.555 257.342 289.569 254.97 289.48C253.305 289.474 251.654 289.42 250.007 289.347C248.885 298.339 249.253 309.65 248.468 309.635C232.812 345.468 183.513 332.941 172.931 315.454C172.931 315.454 167.901 313.499 170.737 323.06C174.912 331.129 176.471 342.99 198.203 347.794C198.733 347.914 179.798 423.526 255.999 423.526C332.199 423.526 313.267 347.914 313.796 347.794C335.53 342.99 337.088 331.129 341.262 323.06C344.095 313.494 339.066 315.454 339.066 315.454Z" fill="black"/>
<path d="M279.507 337.657C279.507 337.657 282.208 355.758 287.385 355.758C292.561 355.758 296.161 342.255 296.161 342.255C286.935 341.804 279.507 337.657 279.507 337.657Z" fill="white"/>
<path d="M234.045 337.657C234.045 337.657 231.344 355.758 226.169 355.758C220.993 355.758 217.39 342.255 217.39 342.255C226.62 341.804 234.045 337.657 234.045 337.657Z" fill="white"/>
<path d="M256.63 301.474C280.233 301.147 295.585 283.566 293.838 276.804C291.664 268.375 270.507 263.683 255.673 263.89C240.839 264.095 219.85 268.115 218.107 276.64C216.708 283.486 233.025 301.803 256.63 301.474Z" fill="black"/>
<path d="M251.351 269.684C257.753 269.684 262.944 271.828 262.944 274.472C262.944 277.118 257.754 279.26 251.351 279.26C244.947 279.26 239.756 277.118 239.756 274.472C239.757 271.828 244.948 269.684 251.351 269.684Z" fill="white"/>
<path d="M267.615 271.762C269.045 271.762 270.204 272.881 270.204 274.26C270.204 275.64 269.043 276.759 267.615 276.759C266.184 276.759 265.024 275.64 265.024 274.26C265.024 272.88 266.184 271.762 267.615 271.762Z" fill="white"/>
<path d="M341.431 153.119C321.211 151.949 309.873 169.599 305.079 177.43C301.808 185.378 308.704 188.3 312.795 186.313C323.547 178.366 336.756 163.404 369.831 189.586C376.26 192.391 383.39 187.715 377.78 178.131C369.366 166.443 357.56 154.054 341.431 153.119Z" fill="black"/>
<path d="M134.216 178.131C128.606 187.716 135.736 192.391 142.164 189.586C175.359 163.404 188.45 178.365 199.203 186.313C203.177 188.3 210.19 185.378 206.917 177.43C202.124 169.599 190.67 151.95 170.567 153.119C154.437 154.054 142.632 166.443 134.216 178.131Z" fill="black"/>
<path d="M195.898 234.308C191.119 231.367 185.481 229.651 179.476 229.651C173.593 229.651 168.078 231.244 163.299 234.185C158.642 237.004 154.721 241.048 152.024 245.95C149.572 250.363 151.289 255.999 155.7 258.451C160.113 260.904 165.75 259.186 168.201 254.775C169.304 252.813 170.898 251.098 172.858 249.873C174.819 248.647 177.026 248.034 179.476 248.034C181.927 248.034 184.255 248.769 186.217 249.873C188.177 251.098 189.771 252.814 190.874 254.898C193.203 259.432 198.84 261.15 203.252 258.819C207.786 256.49 209.502 250.853 207.173 246.441C204.477 241.293 200.554 237.25 195.898 234.308Z" fill="black"/>
<path d="M348.785 234.308C344.008 231.367 338.369 229.651 332.365 229.651C326.482 229.651 320.967 231.244 316.188 234.185C311.531 237.004 307.61 241.048 304.913 245.95C302.461 250.363 304.178 255.999 308.589 258.451C313.004 260.904 318.639 259.186 321.09 254.775C322.193 252.813 323.787 251.098 325.747 249.873C327.709 248.647 329.915 248.034 332.365 248.034C334.817 248.034 337.143 248.769 339.106 249.873C341.067 251.098 342.658 252.814 343.763 254.898C346.091 259.432 351.728 261.15 356.141 258.819C360.675 256.49 362.393 250.853 360.061 246.441C357.364 241.293 353.443 237.25 348.785 234.308Z" fill="black"/>
<path d="M375.911 272.007C393.732 272.651 407.947 279.483 407.663 287.263C407.381 295.04 392.71 300.824 374.889 300.181C357.072 299.536 342.855 292.706 343.137 284.925C343.422 277.143 358.097 271.36 375.911 272.007Z" fill="#FF4076"/>
<path d="M168.861 284.925C169.143 292.706 154.925 299.536 137.109 300.181C119.288 300.825 104.618 295.04 104.335 287.263C104.052 279.483 118.267 272.651 136.088 272.007C153.903 271.36 168.578 277.143 168.861 284.925Z" fill="#FF4076"/>
<path d="M270.008 390.124C265.97 385.229 260.068 379.542 253.151 373.998C241.94 365.008 225.751 365.687 215.468 375.725C215.312 375.876 215.23 375.959 215.23 375.959C215.744 366.582 229.419 360.417 229.419 360.417C229.419 360.417 190.784 341.959 176.169 364.325C167.61 377.423 172.769 395.572 181.744 405.533C187.574 413.16 196.571 418.426 206.441 420.428C231.062 425.257 240.494 415.909 244.71 409.695C244.71 409.695 263.144 419.826 275.652 416.958C275.652 416.958 285.297 408.657 270.008 390.124Z" fill="#FF4076"/>
<path d="M237.131 394.343C237.131 394.343 223.343 432.103 188.67 406.069C167.538 390.201 175.591 365.541 175.591 365.541C153.623 411.299 196.012 423.494 196.012 423.494C196.012 423.494 191.556 438.999 203.838 443.688C218.704 449.363 224.11 435.424 224.11 435.424C223.148 420.611 245.685 414.049 245.685 414.049C245.685 414.049 261.919 421.061 275.035 416.88C275.036 416.88 258.025 390.715 237.131 394.343Z" fill="#009BFF"/>
</g>
<defs>
<clipPath id="clip0_1101_62">
<rect width="512" height="512" fill="white"/>
</clipPath>
</defs>
</svg>
