<svg width="256" height="256" viewBox="0 0 256 256" fill="none" xmlns="http://www.w3.org/2000/svg">
<g clip-path="url(#clip0_1101_248)">
<path d="M236.043 26.4441C225.915 15.5449 211.928 6.93361 196.659 2.19651C195.866 1.95089 195.056 1.83187 194.255 1.83187C191.663 1.83187 189.166 3.07728 187.618 5.27757C185.592 8.15737 185.653 12.0153 187.771 14.8286C195.104 24.5673 199.931 32.7993 202.12 39.2964C203.5 43.394 203.758 46.6574 202.846 48.4865C201.535 51.1142 196.337 52.6831 188.942 52.6831C183.278 52.6831 178.445 51.7488 178.398 51.7396C177.868 51.6336 177.335 51.5822 176.807 51.5822C174.378 51.5822 172.042 52.675 170.484 54.6113C163.346 63.486 162.741 71.6937 163.491 77.0162C165.281 89.7083 175.804 97.4464 176.998 98.2866C177.882 98.9082 178.88 99.3475 179.936 99.5785C180.351 99.6694 190.252 101.804 202.417 101.804C214.747 101.804 225.05 99.6434 233.041 95.383C244.668 89.1841 251.195 78.6225 251.917 64.8407C252.598 51.8283 246.961 38.1921 236.043 26.4441Z" fill="black"/>
<path d="M79.1932 51.5822C78.6647 51.5822 78.1328 51.6336 77.6026 51.7396C77.568 51.7466 72.7303 52.6831 67.0589 52.6831C59.6633 52.6831 54.4658 51.1142 53.1543 48.4865C52.2417 46.6574 52.4997 43.3934 53.8798 39.2964C56.0682 32.7999 60.8962 24.5673 68.228 14.8286C70.3461 12.0153 70.4083 8.15737 68.3816 5.27757C66.8338 3.07728 64.3365 1.83187 61.7445 1.83187C60.9438 1.83187 60.1345 1.95035 59.3408 2.19651C44.0719 6.93361 30.0851 15.5449 19.9568 26.4441C9.03976 38.1921 3.40242 51.8283 4.08409 64.8407C4.80526 78.6225 11.3326 89.1835 22.9594 95.383C30.9502 99.6434 41.2537 101.804 53.5834 101.804C65.748 101.804 75.6491 99.6694 76.0646 99.5785C77.1201 99.3475 78.1188 98.9082 79.0022 98.2866C80.1968 97.4459 90.72 89.7083 92.5086 77.0162C93.259 71.6943 92.6547 63.4866 85.516 54.6113C83.9584 52.675 81.6224 51.5822 79.1932 51.5822Z" fill="black"/>
<g filter="url(#filter0_i_1101_248)">
<path d="M176.807 59.6973C176.807 59.6973 241.437 72.6162 194.255 9.94759C222.574 18.7325 245.001 41.7277 243.813 64.416C241.699 104.773 181.669 91.6505 181.669 91.6505C181.669 91.6505 162.155 77.9137 176.807 59.6973Z" fill="#F3F3F3"/>
</g>
<g filter="url(#filter1_i_1101_248)">
<path d="M79.1927 59.6973C79.1927 59.6973 14.564 72.6162 61.7451 9.94759C33.4269 18.7325 10.9998 41.7277 12.1879 64.416C14.3011 104.773 74.3311 91.6506 74.3311 91.6506C74.3311 91.6506 93.8454 77.9137 79.1927 59.6973Z" fill="#F3F3F3"/>
</g>
<path d="M254.613 99.0018C254.427 98.7275 249.994 92.1991 242.811 85.5598C232.655 76.1733 222.204 71.143 211.749 70.609C210.573 70.5484 209.383 70.5181 208.212 70.5181C197.491 70.5181 187.354 73.0819 179.671 77.7379C170.755 83.141 165.722 90.8791 165.5 99.5266C165.27 108.508 170.247 116.921 179.515 123.216C187.629 128.727 198.366 132.083 209.747 132.666C210.355 132.697 210.973 132.713 211.584 132.713C235.154 132.713 253.515 109.517 254.284 108.53C256.444 105.76 256.577 101.914 254.613 99.0018Z" fill="black"/>
<path d="M76.3286 77.7384C68.6446 73.0825 58.5087 70.5181 47.7875 70.5181C46.6168 70.5181 45.426 70.5489 44.2482 70.609C33.7959 71.143 23.3452 76.1733 13.1893 85.5598C6.00577 92.1991 1.57218 98.727 1.38716 99.0018C-0.577255 101.915 -0.444707 105.76 1.71609 108.53C2.48595 109.517 20.8479 132.712 44.4165 132.712C45.0273 132.712 45.6451 132.697 46.2527 132.665C57.6345 132.082 68.3714 128.727 76.4855 123.215C85.7535 116.921 90.7308 108.508 90.5009 99.5271C90.278 90.879 85.2455 83.1415 76.3286 77.7384Z" fill="black"/>
<path d="M211.335 78.7134C231.848 79.7613 247.885 103.539 247.885 103.539C247.885 103.539 230.674 125.609 210.162 124.561C189.653 123.511 173.288 112.397 173.612 99.7354C173.938 87.0714 190.83 77.6595 211.335 78.7134Z" fill="#EF5B44"/>
<path d="M206.258 93.0599C217.569 93.6377 231.822 106.749 231.822 106.749C231.822 106.749 216.921 118.919 205.611 118.341C194.303 117.762 185.278 111.634 185.457 104.652C185.637 97.6682 194.951 92.4783 206.258 93.0599Z" fill="#F1B3AA"/>
<path d="M44.6653 78.7134C24.1524 79.7613 8.11517 103.539 8.11517 103.539C8.11517 103.539 25.3264 125.609 45.8383 124.561C66.3469 123.511 82.7125 112.397 82.3879 99.7354C82.0627 87.0714 65.1702 77.6595 44.6653 78.7134Z" fill="#EF5B44"/>
<path d="M49.7422 93.0599C38.4313 93.6377 24.1783 106.749 24.1783 106.749C24.1783 106.749 39.0789 118.919 50.3892 118.341C61.698 117.762 70.7221 111.634 70.543 104.652C70.3634 97.6682 61.0488 92.4783 49.7422 93.0599Z" fill="#F1B3AA"/>
<path d="M217.152 118.238C217.113 118.128 217.072 118.02 217.028 117.912C212.358 104.987 204.884 94.4238 201.507 90.0302C201.15 86.1982 200.115 79.1581 197.117 72.0849C190.886 57.3829 179.096 49.2856 163.919 49.2856H92.0817C76.9047 49.2856 65.1145 57.3829 58.8837 72.0849C55.8865 79.157 54.851 86.1966 54.4944 90.0291C51.3517 94.1154 44.6632 103.535 39.9905 115.216C36.2185 124.646 34.5171 133.647 34.9331 141.968C35.4747 152.801 39.5382 162.325 47.0128 170.281L51.2138 175.336C51.237 175.51 51.2619 175.683 51.2868 175.855C52.5798 184.676 56.1645 193.683 61.9507 202.658C62.291 209.804 64.4236 223.102 74.6228 234.542C86.2345 247.565 104.194 254.169 128.001 254.169C151.807 254.169 169.766 247.565 181.378 234.542C191.577 223.103 193.71 209.804 194.05 202.658C199.835 193.683 203.42 184.676 204.713 175.855C204.738 175.684 204.762 175.511 204.786 175.337L208.988 170.281C221.66 156.791 224.483 138.803 217.152 118.238Z" fill="black"/>
<path d="M209.508 120.964L209.504 120.973C203.907 105.267 193.578 93.1026 193.578 93.1026C193.578 93.1026 192.977 57.4008 163.919 57.4008H92.0817C63.0246 57.4008 62.4224 93.1026 62.4224 93.1026C62.4224 93.1026 25.8073 136.178 53.0894 164.896L59.0157 172.027C59.0893 172.907 59.1861 173.79 59.3165 174.678C60.5283 182.948 64.1234 191.5 70.0112 200.129C69.9755 205.663 71.0699 218.361 80.6805 229.14C90.6865 240.363 106.607 246.053 128.001 246.053C149.394 246.053 165.315 240.363 175.321 229.14C184.932 218.361 186.026 205.663 185.99 200.129C191.878 191.5 195.472 182.949 196.684 174.678C196.814 173.79 196.915 172.906 196.987 172.026L202.912 164.896C215.7 151.433 214.448 134.818 209.508 120.964Z" fill="#EF5B44"/>
<path d="M157.688 142.728C146.259 148.15 138.221 154.306 128 154.389C117.779 154.306 109.741 148.151 98.312 142.728C80.3937 134.226 48.6456 158.967 76.8961 198.114C76.8961 198.114 72.166 239.259 128 239.259C183.834 239.259 179.103 198.114 179.103 198.114C207.354 158.967 175.606 134.226 157.688 142.728Z" fill="#F1B3AA"/>
<path d="M167.088 162.069C170.842 167.384 169.746 174.618 164.638 178.225C159.532 181.834 149.172 183.626 145.418 178.311C141.663 172.997 145.935 162.587 151.042 158.98C156.149 155.372 163.333 156.755 167.088 162.069Z" fill="black"/>
<path d="M88.9119 162.069C85.1573 167.384 86.254 174.618 91.3616 178.225C96.4688 181.834 106.828 183.626 110.583 178.311C114.338 172.997 110.066 162.587 104.959 158.98C99.8506 155.372 92.6666 156.755 88.9119 162.069Z" fill="black"/>
<path d="M185.353 135.002C193.899 135.311 200.715 138.587 200.58 142.318C200.445 146.048 193.409 148.821 184.864 148.512C176.319 148.204 169.501 144.928 169.636 141.197C169.772 137.465 176.81 134.692 185.353 135.002Z" fill="#FF4076"/>
<path d="M86.2756 142.105C86.6013 145.824 79.9593 149.442 71.4411 150.186C62.9229 150.93 55.755 148.517 55.4293 144.799C55.1052 141.081 61.7472 137.463 70.2638 136.718C78.7826 135.973 85.951 138.385 86.2756 142.105Z" fill="#FF4076"/>
<path d="M154.221 34.8384C151.117 30.5174 146.234 28.1418 140.464 28.1418H140.464C140.02 28.1418 139.565 28.1559 139.112 28.184C135.394 28.4134 128.802 29.9542 114.537 40.6413C107.344 46.0298 101.498 51.27 101.253 51.4902C99.5931 52.9823 98.5674 57.2444 98.5674 57.2444L111.39 57.1735C111.39 57.1735 122.028 80.7638 138.598 79.3685C146.049 78.7409 150.855 72.8217 151.942 66.5238C152.353 64.1515 152.152 61.705 151.443 59.4247C158.263 52.18 159.404 42.0761 154.221 34.8384Z" fill="black"/>
<path d="M106.677 57.5268C106.677 57.5268 129.634 36.8997 139.611 36.284C144.091 36.0086 146.438 37.9141 147.623 39.5636C150.52 43.6088 149.658 49.4923 145.526 53.8723C144.044 55.4396 142.286 56.7526 140.591 57.8108L140.973 58.044C142.804 59.2315 144.468 62.1243 143.945 65.1442C143.635 66.9404 142.277 70.1524 136.664 71.4881C121.441 75.3336 106.446 57.707 106.677 57.5268Z" fill="#EF5B44"/>
<path d="M142.847 40.7506C143.912 42.5954 140.663 46.4648 135.59 49.3938C130.517 52.3228 125.542 53.2014 124.477 51.3566C123.412 49.5117 126.661 45.6419 131.734 42.7134C136.806 39.7849 141.782 38.9058 142.847 40.7506Z" fill="#F1B3AA"/>
<path d="M122.642 53.3513C123.201 54.3197 122.471 55.7874 121.012 56.6303C119.552 57.4732 117.916 57.3715 117.357 56.4031C116.798 55.4347 117.528 53.9669 118.988 53.124C120.447 52.2812 122.083 52.3829 122.642 53.3513Z" fill="#F1B3AA"/>
<path d="M14.5586 193.948C15.9485 191.272 17.9253 189.024 20.3252 187.341C21.1319 180.285 25.994 174.032 33.1039 171.783C34.9147 171.21 36.7893 170.92 38.678 170.92C43.8895 170.92 48.6926 173.082 52.101 176.689C52.101 176.689 90.25 163.75 103 163.75C103.878 164.686 107.41 166.996 109 169C110.778 171.241 111.777 176.474 110.75 178.25C108.292 182.5 70.5127 208.32 70.5127 208.32C72.6232 217.591 67.285 227.115 58.0613 230.032C56.2516 230.605 54.377 230.895 52.4905 230.895C50.2259 230.895 47.9855 230.472 45.8864 229.667C45.2383 229.958 44.5712 230.213 43.8863 230.429C42.0755 231.002 40.2004 231.292 38.3112 231.292C30.2155 231.292 23.1353 226.103 20.6926 218.38C20.6185 218.146 20.5492 217.911 20.4848 217.675C17.1344 215.363 14.583 211.978 13.3375 208.04C11.8492 203.334 12.2826 198.329 14.5586 193.948Z" fill="black"/>
<path d="M241.605 193.948C240.215 191.272 238.238 189.024 235.838 187.341C235.032 180.285 230.17 174.032 223.06 171.783C221.249 171.211 219.374 170.921 217.486 170.921C212.274 170.921 207.471 173.082 204.063 176.689C204.063 176.689 165.914 163.75 153.164 163.75C152.286 164.686 148.753 166.996 147.164 169C145.386 171.241 144.387 176.474 145.414 178.25C147.871 182.5 185.651 208.32 185.651 208.32C183.54 217.591 188.878 227.115 198.102 230.032C199.912 230.605 201.786 230.895 203.673 230.895C205.938 230.895 208.178 230.472 210.277 229.667C210.925 229.958 211.592 230.213 212.277 230.429C214.088 231.002 215.963 231.292 217.852 231.292C225.948 231.292 233.028 226.103 235.471 218.38C235.545 218.146 235.614 217.911 235.679 217.675C239.029 215.363 241.581 211.978 242.826 208.04C244.314 203.334 243.881 198.329 241.605 193.948Z" fill="black"/>
<path d="M27.67 192.068C27.8074 192.025 27.9465 191.998 28.0844 191.96C26.7476 186.437 29.8876 180.745 35.3875 179.005C41.1066 177.197 47.2038 180.347 49.0492 186.045L101.162 165.409C101.162 165.409 109.305 167.269 106.968 175.449L60.9422 205.527C61.7894 206.562 62.4603 207.769 62.8882 209.122C64.7044 214.866 61.5205 220.995 55.7772 222.811C52.1535 223.957 48.3794 223.11 45.6289 220.888C44.5014 221.91 43.1489 222.719 41.6027 223.208C35.8588 225.024 29.7302 221.841 27.914 216.097C27.5645 214.99 27.4038 213.87 27.4076 212.769C24.2579 211.68 21.641 209.179 20.559 205.757C18.7428 200.013 21.9266 193.885 27.67 192.068Z" fill="url(#paint0_linear_1101_248)"/>
<path d="M228.493 192.068C228.356 192.025 228.217 191.998 228.079 191.96C229.416 186.437 226.276 180.745 220.776 179.005C215.057 177.197 208.96 180.347 207.114 186.045L155.002 165.409C155.002 165.409 146.858 167.269 149.196 175.449L195.221 205.527C194.374 206.562 193.703 207.769 193.275 209.122C191.459 214.866 194.643 220.995 200.386 222.811C204.01 223.957 207.784 223.11 210.535 220.888C211.662 221.91 213.015 222.719 214.561 223.208C220.305 225.024 226.433 221.841 228.249 216.097C228.599 214.99 228.76 213.87 228.756 212.769C231.906 211.68 234.523 209.179 235.605 205.757C237.421 200.013 234.237 193.885 228.493 192.068Z" fill="url(#paint1_linear_1101_248)"/>
<path d="M146.247 137.446C148.595 138.891 151.364 139.733 154.313 139.733C157.202 139.733 159.911 138.951 162.259 137.506C164.546 136.122 166.472 134.136 167.796 131.728C169.001 129.56 168.158 126.791 165.99 125.587C163.824 124.383 161.055 125.226 159.85 127.393C159.309 128.357 158.527 129.199 157.563 129.801C156.6 130.403 155.516 130.704 154.312 130.704C153.108 130.704 151.965 130.343 151.002 129.801C150.039 129.199 149.256 128.356 148.714 127.332C147.571 125.106 144.802 124.262 142.634 125.406C140.408 126.55 139.565 129.318 140.708 131.486C142.033 134.016 143.959 136.002 146.247 137.446Z" fill="black"/>
<path d="M98.2038 137.446C100.551 138.891 103.321 139.733 106.269 139.733C109.159 139.733 111.868 138.951 114.215 137.506C116.502 136.122 118.428 134.136 119.753 131.728C120.957 129.56 120.114 126.791 117.947 125.587C115.78 124.383 113.011 125.226 111.807 127.393C111.265 128.357 110.483 129.199 109.52 129.801C108.556 130.403 107.473 130.704 106.269 130.704C105.065 130.704 103.922 130.343 102.959 129.801C101.996 129.199 101.213 128.356 100.671 127.332C99.5277 125.106 96.7588 124.262 94.5915 125.406C92.3641 126.55 91.5212 129.318 92.6655 131.486C93.9904 134.016 95.9159 136.002 98.2038 137.446Z" fill="black"/>
<path d="M169.24 89.2187C163.643 96.3952 154.386 101.993 146.204 104.432C142.617 105.509 138.741 103.356 138.024 99.6965V99.6245C136.875 96.8259 132.139 95.1752 130.273 100.629C130.201 100.844 130.13 101.132 130.059 101.347C128.408 107.878 132.713 114.408 139.244 115.987C144.34 117.207 151.014 116.992 158.764 113.332C172.471 106.658 177.063 94.3145 177.063 94.3145C178.067 87.066 172.111 85.5588 169.24 89.2187Z" fill="black"/>
<path d="M85.8525 89.2187C91.4504 96.3952 100.708 101.993 108.888 104.432C112.476 105.509 116.351 103.356 117.069 99.6965V99.6245C118.218 96.8259 122.954 95.1752 124.82 100.629C124.892 100.844 124.964 101.132 125.035 101.347C126.686 107.878 122.38 114.408 115.849 115.987C110.754 117.207 104.08 116.992 96.3297 113.332C82.6232 106.658 78.0306 94.3145 78.0306 94.3145C77.0259 87.066 82.9819 85.5588 85.8525 89.2187Z" fill="black"/>
<path d="M132.697 193.426C133.194 192.465 133.609 191.503 133.938 190.551C134.759 188.184 135.079 185.884 135.078 183.794C135.075 180.367 134.243 177.514 133.421 175.489C132.595 173.462 131.767 172.243 131.633 172.047C130.273 170.082 127.576 169.592 125.611 170.952C123.657 172.306 123.163 174.98 124.496 176.942L124.495 176.943C124.51 176.964 125.019 177.747 125.498 178.989C125.98 180.235 126.423 181.923 126.422 183.794C126.421 185.017 126.241 186.321 125.759 187.717C125.273 189.112 124.484 190.611 123.177 192.217C122.904 192.553 122.691 192.918 122.534 193.299C102.379 195.51 90.7054 211.727 93.0177 213.733C95.4814 215.872 99.2009 215.624 101.363 213.193L101.365 213.195C101.488 213.064 103.448 211.008 107.575 208.99C111.711 206.974 118.011 204.951 127.105 204.945C131.943 204.945 136.024 205.532 139.429 206.387C144.533 207.669 148.13 209.557 150.411 211.057C151.55 211.807 152.356 212.459 152.843 212.886C153.087 213.1 153.251 213.257 153.336 213.341L153.405 213.412L153.407 213.409C155.618 215.798 159.342 215.972 161.763 213.784C163.996 211.766 152.303 196.056 132.697 193.426Z" fill="black"/>
</g>
<defs>
<filter id="filter0_i_1101_248" x="171.354" y="9.94759" width="72.5036" height="83.7406" filterUnits="userSpaceOnUse" color-interpolation-filters="sRGB">
<feFlood flood-opacity="0" result="BackgroundImageFix"/>
<feBlend mode="normal" in="SourceGraphic" in2="BackgroundImageFix" result="shape"/>
<feColorMatrix in="SourceAlpha" type="matrix" values="0 0 0 0 0 0 0 0 0 0 0 0 0 0 0 0 0 0 127 0" result="hardAlpha"/>
<feOffset dx="16" dy="8"/>
<feComposite in2="hardAlpha" operator="arithmetic" k2="-1" k3="1"/>
<feColorMatrix type="matrix" values="0 0 0 0 0.784314 0 0 0 0 0.784314 0 0 0 0 0.784314 0 0 0 1 0"/>
<feBlend mode="normal" in2="shape" result="effect1_innerShadow_1101_248"/>
</filter>
<filter id="filter1_i_1101_248" x="12.1428" y="9.94759" width="72.5034" height="83.7406" filterUnits="userSpaceOnUse" color-interpolation-filters="sRGB">
<feFlood flood-opacity="0" result="BackgroundImageFix"/>
<feBlend mode="normal" in="SourceGraphic" in2="BackgroundImageFix" result="shape"/>
<feColorMatrix in="SourceAlpha" type="matrix" values="0 0 0 0 0 0 0 0 0 0 0 0 0 0 0 0 0 0 127 0" result="hardAlpha"/>
<feOffset dx="-16" dy="8"/>
<feComposite in2="hardAlpha" operator="arithmetic" k2="-1" k3="1"/>
<feColorMatrix type="matrix" values="0 0 0 0 0.784314 0 0 0 0 0.784314 0 0 0 0 0.784314 0 0 0 1 0"/>
<feBlend mode="normal" in2="shape" result="effect1_innerShadow_1101_248"/>
</filter>
<linearGradient id="paint0_linear_1101_248" x1="35.5" y1="178.5" x2="59.25" y2="222" gradientUnits="userSpaceOnUse">
<stop stop-color="#F3F3F3"/>
<stop offset="0.52" stop-color="white"/>
<stop offset="0.5201" stop-color="#C8C8C8"/>
</linearGradient>
<linearGradient id="paint1_linear_1101_248" x1="223.25" y1="180.25" x2="199.75" y2="223.5" gradientUnits="userSpaceOnUse">
<stop stop-color="#F3F3F3"/>
<stop offset="0.521" stop-color="white"/>
<stop offset="0.5211" stop-color="#C8C8C8"/>
</linearGradient>
<clipPath id="clip0_1101_248">
<rect width="256" height="256" fill="white"/>
</clipPath>
</defs>
</svg>
