<svg width="256" height="256" viewBox="0 0 256 256" fill="none" xmlns="http://www.w3.org/2000/svg">
<g clip-path="url(#clip0_1103_2)">
<mask id="path-1-outside-1_1103_2" maskUnits="userSpaceOnUse" x="-0.5" y="9" width="257" height="238" fill="black">
<rect fill="white" x="-0.5" y="9" width="257" height="238"/>
<path d="M252.475 107.15C250.162 98.4723 245.87 89.754 239.719 81.2362C237.156 77.6879 234.49 74.477 231.924 71.6502C235.196 70.7203 236.695 68.1703 236.969 65.9219C237.39 62.4643 235.374 58.7398 230.432 53.8465C226.562 50.0142 221.194 45.8066 214.905 41.6773C207.245 36.6472 192.498 28.0309 173.528 22.0435C174.867 19.2892 174.223 17.0455 173.63 15.8384C171.538 11.5753 166.081 11 161.02 11C150.938 11 135.249 13.7802 128 15.1786C120.752 13.7802 105.066 11 94.9807 11C89.9189 11 84.4628 11.5743 82.3688 15.8378C81.7759 17.045 81.1332 19.2892 82.472 22.044C63.5052 28.0314 48.7559 36.6487 41.0959 41.6794C34.8084 45.8087 29.4398 50.0168 25.5701 53.8486C20.6286 58.7424 18.613 62.4664 19.0338 65.9235C19.307 68.1713 20.8064 70.7209 24.0759 71.6502C21.5098 74.477 18.8441 77.6879 16.2816 81.2362C10.1304 89.754 5.83837 98.4728 3.52519 107.15C0.574493 118.222 0.849193 129.197 4.34255 139.772C6.44945 146.15 10.8794 146.839 12.6862 146.839C14.1919 146.839 15.6991 146.426 17.2255 145.591C17.7956 152.238 19.0561 159.388 20.9572 166.59C24.0676 178.374 28.5789 188.937 33.3338 195.571C42.2237 207.973 50.2004 214.001 57.7194 214.001C61.2107 214.001 63.995 212.684 66.0698 210.989C76.6919 219.601 105.696 241.706 127.244 244.881C127.495 244.917 127.747 244.936 128 244.936C128.253 244.936 128.505 244.917 128.755 244.881C150.304 241.706 179.309 219.602 189.931 210.989C192.006 212.684 194.79 214.001 198.281 214.001C205.799 214.001 213.776 207.973 222.667 195.571C227.421 188.937 231.933 178.374 235.043 166.59C236.944 159.388 238.205 152.239 238.774 145.591C240.3 146.426 241.808 146.839 243.314 146.839C245.12 146.839 249.55 146.15 251.657 139.772C255.151 129.197 255.426 118.222 252.475 107.15Z"/>
</mask>
<path d="M252.475 107.15C250.162 98.4723 245.87 89.754 239.719 81.2362C237.156 77.6879 234.49 74.477 231.924 71.6502C235.196 70.7203 236.695 68.1703 236.969 65.9219C237.39 62.4643 235.374 58.7398 230.432 53.8465C226.562 50.0142 221.194 45.8066 214.905 41.6773C207.245 36.6472 192.498 28.0309 173.528 22.0435C174.867 19.2892 174.223 17.0455 173.63 15.8384C171.538 11.5753 166.081 11 161.02 11C150.938 11 135.249 13.7802 128 15.1786C120.752 13.7802 105.066 11 94.9807 11C89.9189 11 84.4628 11.5743 82.3688 15.8378C81.7759 17.045 81.1332 19.2892 82.472 22.044C63.5052 28.0314 48.7559 36.6487 41.0959 41.6794C34.8084 45.8087 29.4398 50.0168 25.5701 53.8486C20.6286 58.7424 18.613 62.4664 19.0338 65.9235C19.307 68.1713 20.8064 70.7209 24.0759 71.6502C21.5098 74.477 18.8441 77.6879 16.2816 81.2362C10.1304 89.754 5.83837 98.4728 3.52519 107.15C0.574493 118.222 0.849193 129.197 4.34255 139.772C6.44945 146.15 10.8794 146.839 12.6862 146.839C14.1919 146.839 15.6991 146.426 17.2255 145.591C17.7956 152.238 19.0561 159.388 20.9572 166.59C24.0676 178.374 28.5789 188.937 33.3338 195.571C42.2237 207.973 50.2004 214.001 57.7194 214.001C61.2107 214.001 63.995 212.684 66.0698 210.989C76.6919 219.601 105.696 241.706 127.244 244.881C127.495 244.917 127.747 244.936 128 244.936C128.253 244.936 128.505 244.917 128.755 244.881C150.304 241.706 179.309 219.602 189.931 210.989C192.006 212.684 194.79 214.001 198.281 214.001C205.799 214.001 213.776 207.973 222.667 195.571C227.421 188.937 231.933 178.374 235.043 166.59C236.944 159.388 238.205 152.239 238.774 145.591C240.3 146.426 241.808 146.839 243.314 146.839C245.12 146.839 249.55 146.15 251.657 139.772C255.151 129.197 255.426 118.222 252.475 107.15Z" fill="black"/>
<path d="M252.475 107.15C250.162 98.4723 245.87 89.754 239.719 81.2362C237.156 77.6879 234.49 74.477 231.924 71.6502C235.196 70.7203 236.695 68.1703 236.969 65.9219C237.39 62.4643 235.374 58.7398 230.432 53.8465C226.562 50.0142 221.194 45.8066 214.905 41.6773C207.245 36.6472 192.498 28.0309 173.528 22.0435C174.867 19.2892 174.223 17.0455 173.63 15.8384C171.538 11.5753 166.081 11 161.02 11C150.938 11 135.249 13.7802 128 15.1786C120.752 13.7802 105.066 11 94.9807 11C89.9189 11 84.4628 11.5743 82.3688 15.8378C81.7759 17.045 81.1332 19.2892 82.472 22.044C63.5052 28.0314 48.7559 36.6487 41.0959 41.6794C34.8084 45.8087 29.4398 50.0168 25.5701 53.8486C20.6286 58.7424 18.613 62.4664 19.0338 65.9235C19.307 68.1713 20.8064 70.7209 24.0759 71.6502C21.5098 74.477 18.8441 77.6879 16.2816 81.2362C10.1304 89.754 5.83837 98.4728 3.52519 107.15C0.574493 118.222 0.849193 129.197 4.34255 139.772C6.44945 146.15 10.8794 146.839 12.6862 146.839C14.1919 146.839 15.6991 146.426 17.2255 145.591C17.7956 152.238 19.0561 159.388 20.9572 166.59C24.0676 178.374 28.5789 188.937 33.3338 195.571C42.2237 207.973 50.2004 214.001 57.7194 214.001C61.2107 214.001 63.995 212.684 66.0698 210.989C76.6919 219.601 105.696 241.706 127.244 244.881C127.495 244.917 127.747 244.936 128 244.936C128.253 244.936 128.505 244.917 128.755 244.881C150.304 241.706 179.309 219.602 189.931 210.989C192.006 212.684 194.79 214.001 198.281 214.001C205.799 214.001 213.776 207.973 222.667 195.571C227.421 188.937 231.933 178.374 235.043 166.59C236.944 159.388 238.205 152.239 238.774 145.591C240.3 146.426 241.808 146.839 243.314 146.839C245.12 146.839 249.55 146.15 251.657 139.772C255.151 129.197 255.426 118.222 252.475 107.15Z" stroke="black" stroke-width="4" mask="url(#path-1-outside-1_1103_2)"/>
<path d="M213.868 61.9657C256.533 81.2885 216.627 37.7086 162.959 24.4515C165.281 23.4133 167.146 22.1689 168.276 20.7062C175.306 11.6111 136.662 18.7605 128 20.4585C119.338 18.7605 80.6942 11.6111 87.7234 20.7062C88.8539 22.1689 90.7192 23.4133 93.0407 24.4515C39.3731 37.7086 -0.533083 81.2885 42.132 61.9657C42.132 61.9657 -4.64115 96.0534 9.26439 138.146C12.6681 148.45 22.2396 132.786 22.2396 132.786C20.764 152.255 28.5566 180.011 37.5461 192.55C57.7884 220.788 65.3908 203.685 65.3908 203.685C65.3908 203.685 102.903 236.055 128 239.752C153.096 236.055 190.608 203.685 190.608 203.685C190.608 203.685 198.211 220.788 218.453 192.55C227.443 180.011 235.235 152.255 233.76 132.786C233.76 132.786 243.331 148.45 246.735 138.146C260.642 96.0534 213.868 61.9657 213.868 61.9657Z" fill="#9B3902"/>
<path d="M213.868 61.9657C221.407 65.3797 226.369 66.831 229.132 66.831C242.003 66.831 207.144 35.3659 162.959 24.4515C165.281 23.4133 167.146 22.1689 168.276 20.7062C170.896 17.3165 167.17 16.183 161.019 16.183C150.664 16.183 133.433 19.3928 128 20.4585C122.567 19.3933 105.336 16.183 94.9807 16.183C88.8274 16.183 85.1029 17.316 87.7234 20.7062C88.8539 22.1689 90.7192 23.4133 93.0407 24.4515C48.8596 35.3654 14.0053 66.831 26.868 66.831C29.63 66.831 34.5907 65.3813 42.132 61.9657C42.132 61.9657 -4.64115 96.0539 9.26439 138.146C10.1066 140.696 11.3272 141.656 12.6867 141.656C16.8202 141.656 22.2401 132.786 22.2401 132.786C20.7645 152.255 28.5572 180.011 37.5466 192.55C46.7003 205.32 53.2693 208.817 57.7194 208.817C63.1098 208.817 65.3913 203.686 65.3913 203.686C65.3913 203.686 102.904 236.056 128 239.753C153.096 236.056 190.609 203.686 190.609 203.686C190.609 203.686 192.891 208.817 198.281 208.817C202.731 208.817 209.299 205.321 218.454 192.55C227.443 180.012 235.236 152.255 233.76 132.786C233.76 132.786 239.18 141.656 243.314 141.656C244.673 141.656 245.894 140.696 246.736 138.146C260.642 96.0539 213.868 61.9657 213.868 61.9657ZM241.713 133.178C240.793 132.086 239.825 130.775 239.068 129.543C237.914 127.656 235.882 126.566 233.76 126.566C233.124 126.566 232.481 126.663 231.851 126.867C229.116 127.749 227.342 130.39 227.559 133.257C228.968 151.848 221.245 177.982 213.399 188.927C204.072 201.938 199.169 202.598 198.281 202.598C197.164 202.598 196.444 201.418 196.268 201.098C195.527 199.248 193.995 197.997 192.056 197.514C191.608 197.402 191.158 197.349 190.711 197.349C189.2 197.349 187.727 197.958 186.547 198.976C186.455 199.055 177.204 207.006 165.1 215.27C150.045 225.549 137.249 231.817 128 233.452C118.752 231.817 105.955 225.549 90.9001 215.27C78.7962 207.006 69.5455 199.055 69.4543 198.976C68.3135 197.992 66.868 197.465 65.3908 197.465C64.9378 197.465 64.4828 197.515 64.0318 197.616C62.111 198.045 60.5069 199.36 59.7076 201.158C59.7014 201.173 58.925 202.597 57.7194 202.597C56.8316 202.597 51.929 201.938 42.6016 188.926C34.755 177.981 27.0323 151.848 28.4421 133.256C28.6593 130.39 26.8851 127.749 24.15 126.866C23.5198 126.663 22.8766 126.565 22.2411 126.565C20.1192 126.565 18.0864 127.656 16.9332 129.543C16.191 130.758 15.2166 132.076 14.2862 133.178C10.5747 118.716 14.2862 103.592 25.3416 88.1705C34.5866 75.2746 45.6912 67.0689 45.7964 66.9922C48.3739 65.1138 49.1125 61.5904 47.5073 58.8351C46.3603 56.8666 44.2824 55.7455 42.1299 55.7455C41.6438 55.7455 41.1545 55.8025 40.6704 55.9202C43.2401 53.9672 46.3178 51.822 49.9459 49.5513C63.6452 40.978 79.4798 34.2085 94.5334 30.4902C97.1114 29.8532 99.0007 27.6504 99.237 25.006C99.3127 24.1555 99.2126 23.32 98.9613 22.5415C108.881 23.1635 122.449 25.7083 126.805 26.5625C127.2 26.6397 127.601 26.6786 128.002 26.6786C128.403 26.6786 128.804 26.6397 129.199 26.5625C133.555 25.7083 147.125 23.1624 157.042 22.541C156.79 23.3195 156.69 24.1555 156.766 25.006C157.003 27.6509 158.892 29.8537 161.47 30.4902C176.524 34.209 192.359 40.978 206.059 49.5502C209.689 51.8215 212.768 53.9677 215.338 55.9212C214.852 55.803 214.361 55.7455 213.873 55.7455C211.721 55.7455 209.643 56.8666 208.496 58.8351C206.89 61.5904 207.629 65.1138 210.207 66.9922C210.315 67.0715 221.208 75.0797 230.476 87.9129C235.81 95.2982 239.505 102.759 241.458 110.087C243.545 117.923 243.629 125.676 241.713 133.178Z" fill="#BF4800"/>
<path d="M209.276 123.54L203.974 91.7546L205.645 90.7071C212.245 86.6011 216.443 80.2675 217.15 73.3403C217.665 68.2874 216.547 60.6191 208.295 52.7793C202.635 47.4019 197.436 44.7876 192.401 44.7876C188.514 44.7876 181.339 46.5187 176.953 58.1121C176.894 58.2681 176.842 58.4272 176.799 58.5879L176.545 59.5234C167.295 55.8077 148.19 49.145 130.111 49.1444C129.403 49.1444 128.694 49.1548 128.001 49.1755C127.309 49.1548 126.599 49.1444 125.89 49.1444C107.81 49.1434 88.7051 55.8067 79.456 59.5229L79.202 58.5879C79.1585 58.4267 79.1066 58.2681 79.0475 58.1121C74.6627 46.5203 67.4873 44.7881 63.6006 44.7876H63.5985C58.5647 44.7876 53.3662 47.4014 47.7058 52.7788C39.4544 60.6186 38.3359 68.2874 38.8516 73.3398C39.5576 80.2669 43.7568 86.6001 50.3719 90.7164L52.0269 91.7541L46.7246 123.539C43.3235 127.094 35.224 137.157 36.4073 151.358C37.0759 159.376 40.8201 167.97 47.5379 176.901C53.3926 184.685 61.4247 192.528 70.7656 199.582C89.9179 214.044 111.805 223.253 127.886 223.613L128.002 223.614L128.118 223.613C144.198 223.253 166.086 214.044 185.237 199.582C194.578 192.528 202.611 184.685 208.465 176.901C215.182 167.97 218.927 159.376 219.595 151.358C220.777 137.157 212.678 127.095 209.276 123.54Z" fill="black"/>
<path d="M204.442 126.058L198.293 89.1992L202.891 86.3159C212.331 80.442 216.864 68.0701 204.725 56.5364C191.044 43.5384 184.57 52.6247 181.801 59.9457L179.986 66.6313C179.986 66.6313 152.186 53.582 128.001 54.3605C103.815 53.582 76.0149 66.6313 76.0149 66.6313L74.2004 59.9457C71.4311 52.6247 64.957 43.5384 51.2764 56.5364C39.1372 68.0696 43.6703 80.442 53.1101 86.3159L57.708 89.1992L51.5583 126.058C51.5583 126.058 40.3127 135.824 41.5712 150.928C44.0222 180.344 96.4874 217.725 128 218.432C159.512 217.725 211.978 180.344 214.429 150.928C215.688 135.824 204.442 126.058 204.442 126.058Z" fill="#FFBB17"/>
<path d="M170.568 128.879C156.227 135.211 141.664 138.336 128 139.509C114.336 138.336 99.7724 135.211 85.432 128.879C58.7182 117.083 50.2699 139.689 51.3951 153.19C53.5694 179.284 99.7677 210.829 128.001 211.949C156.233 210.829 202.432 179.284 204.606 153.19C205.731 139.689 197.282 117.083 170.568 128.879Z" fill="#F7D2A6"/>
<path d="M183.109 55.901C180.182 50.8626 141.784 41.983 128 41.983C114.215 41.983 75.8175 50.8626 72.8917 55.901C70.3567 60.2661 71.3839 63.3811 72.222 64.8495C73.3219 66.7776 75.7423 69.0757 81.0249 69.0757C83.1095 69.0757 85.4533 68.7197 87.7452 68.2081C87.6607 69.3442 87.7597 70.4871 88.1158 71.5988C88.6564 73.2906 90.2595 76.2921 94.9159 77.3877C96.137 77.6749 97.4628 77.8205 98.8566 77.8205C105.006 77.8205 111.827 74.987 116.045 72.8821C116.405 73.3211 116.79 73.7752 117.195 74.2297C120.851 78.329 124.209 80.3219 127.46 80.3219C127.64 80.3219 127.821 80.3156 128 80.3032C128.18 80.3151 128.36 80.3219 128.54 80.3219C131.792 80.3219 135.149 78.329 138.805 74.2297C139.211 73.7752 139.596 73.3211 139.956 72.8821C144.173 74.987 150.995 77.8205 157.144 77.8205C158.537 77.8205 159.863 77.6749 161.084 77.3877C165.741 76.2921 167.343 73.2906 167.885 71.5988C168.241 70.4871 168.34 69.3442 168.255 68.2081C170.547 68.7197 172.891 69.0757 174.976 69.0757C180.259 69.0757 182.678 66.7776 183.779 64.8495C184.616 63.3811 185.643 60.2661 183.109 55.901Z" fill="black"/>
<path d="M128 40.014C91.1981 40.014 73.7287 57.5332 76.5078 62.4042C79.3497 67.3846 97.1057 60.0708 97.1057 60.0708C97.1057 60.0708 87.8146 70.6478 96.0463 72.5842C104.278 74.5205 117.441 66.504 117.441 66.504C117.441 66.504 123.787 76.1812 128 75.3353C132.213 76.1817 138.559 66.504 138.559 66.504C138.559 66.504 151.722 74.5205 159.954 72.5842C168.186 70.6478 158.895 60.0708 158.895 60.0708C158.895 60.0708 176.651 67.3846 179.492 62.4042C182.272 57.5327 164.802 40.014 128 40.014Z" fill="#9B3902"/>
<path d="M169.109 49.694C169.109 49.694 176.089 58.2636 173.878 59.4261C171.667 60.5887 162.984 56.7076 160.669 55.7566C160.093 55.5197 159.492 55.4062 158.897 55.4062C157.425 55.4062 155.995 56.1049 155.098 57.3607C153.84 59.124 153.96 61.5211 155.39 63.1491C156.729 64.6859 158.044 66.8202 158.512 68.1175C158.1 68.186 157.642 68.2207 157.143 68.2207C151.601 68.2207 143.597 64.1033 140.98 62.5173C140.225 62.0591 139.389 61.8399 138.563 61.8399C137.04 61.8399 135.55 62.5836 134.657 63.9457C132.688 66.9348 129.751 70.0938 128.418 70.6888C128.278 70.6764 128.139 70.6697 127.999 70.6697C127.859 70.6697 127.72 70.6759 127.58 70.6888C126.856 70.3649 125.655 69.2801 124.394 67.8786C124.136 67.592 123.876 67.2914 123.616 66.9819L123.581 66.9389C123.33 66.6393 123.081 66.3304 122.836 66.0169L122.772 65.9345C122.532 65.625 122.296 65.3109 122.067 64.9948L122.014 64.9191C121.781 64.5952 121.555 64.2697 121.341 63.9457L121.34 63.9437L121.339 63.9421L121.304 63.896C120.521 62.7355 119.302 62.0332 118.004 61.8751C117.814 61.8523 117.624 61.8404 117.433 61.8404C116.606 61.8404 115.77 62.0601 115.014 62.5204C114.93 62.5712 114.84 62.6251 114.745 62.6811C111.882 64.3687 104.217 68.2217 98.8549 68.2217C98.3568 68.2217 97.8981 68.187 97.4861 68.1186C97.9541 66.8213 99.2696 64.6869 100.608 63.1501C102.038 61.5221 102.158 59.125 100.9 57.3617C100.003 56.1054 98.5735 55.4072 97.101 55.4072C96.507 55.4072 95.9053 55.5212 95.3294 55.7576C93.0142 56.7087 84.3316 60.5897 82.1205 59.4272C79.9094 58.2646 86.8894 49.695 86.8894 49.695C78.6473 54.6033 75.1457 60.0196 76.5068 62.4048C77.2288 63.6695 78.9132 64.1416 81.0232 64.1416C87.2227 64.1416 97.1041 60.0714 97.1041 60.0714C97.1041 60.0714 87.813 70.6484 96.0447 72.5848C96.9315 72.7937 97.8764 72.887 98.8549 72.887C106.959 72.887 117.434 66.5087 117.44 66.5051C117.442 66.5087 123.265 75.3888 127.458 75.3888C127.642 75.3888 127.822 75.3717 127.999 75.3359C128.175 75.3717 128.355 75.3888 128.539 75.3888C132.732 75.3888 138.557 66.5051 138.557 66.5051C138.557 66.5051 149.037 72.887 157.142 72.887C158.121 72.887 159.066 72.7937 159.952 72.5848C168.185 70.6484 158.893 60.0714 158.893 60.0714C158.893 60.0714 168.774 64.1416 174.974 64.1416C177.084 64.1416 178.769 63.6695 179.491 62.4048C180.852 60.0191 177.351 54.6023 169.109 49.694Z" fill="#BF4800"/>
<path d="M187.954 63.1993C198.233 70.5416 199.911 80.1913 199.911 80.1913C199.911 80.1913 208.302 73.059 201.379 64.2484C192.119 52.4627 187.954 63.1993 187.954 63.1993Z" fill="black"/>
<path d="M68.0466 63.1993C57.7671 70.5416 56.0893 80.1913 56.0893 80.1913C56.0893 80.1913 47.698 73.059 54.621 64.2484C63.881 52.4627 68.0466 63.1993 68.0466 63.1993Z" fill="black"/>
<path d="M87.0147 112.637C87.0849 105.651 92.805 100.018 99.7914 100.056C106.777 100.094 112.383 105.788 112.313 112.775C112.243 119.761 106.523 125.394 99.5362 125.356C92.5498 125.318 86.944 119.624 87.0147 112.637Z" fill="black"/>
<path d="M143.687 112.637C143.757 105.651 149.477 100.018 156.463 100.056C163.449 100.094 169.055 105.788 168.985 112.775C168.915 119.761 163.195 125.394 156.208 125.356C149.222 125.318 143.616 119.624 143.687 112.637Z" fill="black"/>
<path d="M94.2125 136.683C94.497 139.932 88.6952 143.092 81.2549 143.741C73.8147 144.391 67.5536 142.283 67.2696 139.036C66.9866 135.789 72.7879 132.628 80.2271 131.978C87.6679 131.328 93.929 133.434 94.2125 136.683Z" fill="#FF4076"/>
<path d="M175.773 131.979C183.212 132.629 189.014 135.79 188.731 139.037C188.446 142.284 182.185 144.391 174.745 143.741C167.305 143.092 161.503 139.932 161.788 136.684C162.071 133.434 168.332 131.328 175.773 131.979Z" fill="#FF4076"/>
<path d="M128.265 142.822C138.152 142.685 144.582 135.322 143.85 132.489C142.939 128.958 134.077 126.993 127.863 127.08C121.649 127.166 112.857 128.85 112.127 132.421C111.542 135.288 118.377 142.961 128.265 142.822Z" fill="black"/>
<path d="M126.053 129.506C128.736 129.506 130.91 130.404 130.91 131.512C130.91 132.62 128.736 133.517 126.053 133.517C123.371 133.517 121.196 132.62 121.196 131.512C121.196 130.404 123.371 129.506 126.053 129.506Z" fill="white"/>
<path d="M132.866 130.377C133.465 130.377 133.951 130.845 133.951 131.423C133.951 132 133.465 132.469 132.866 132.469C132.267 132.469 131.78 132 131.78 131.423C131.78 130.845 132.267 130.377 132.866 130.377Z" fill="white"/>
<path d="M90.1479 83.3723C81.813 83.7693 76.0868 87.8515 73.8752 89.7225C73.1947 90.2896 72.8547 90.6296 72.8547 90.6296C70.0766 95.1652 73.5352 97.7739 76.4833 96.1863C77.5039 95.6193 78.5809 95.1658 79.7149 94.7122C86.3487 92.1606 94.5135 91.9341 99.8432 93.5782C101.317 94.0317 102.621 94.6558 103.585 95.3928C105.456 96.4133 108.745 95.1093 107.328 91.3106C106.817 90.4036 106.08 89.4396 105.173 88.5325C102.281 85.6404 97.4051 83.1458 90.1479 83.3723Z" fill="black"/>
<path d="M167.283 83.3723C175.618 83.7693 181.344 87.8515 183.555 89.7225C184.236 90.2896 184.576 90.6296 184.576 90.6296C187.354 95.1652 183.895 97.7739 180.947 96.1863C179.927 95.6193 178.85 95.1658 177.716 94.7122C171.082 92.1606 162.917 91.9341 157.587 93.5782C156.113 94.0317 154.809 94.6558 153.845 95.3928C151.974 96.4133 148.685 95.1093 150.103 91.3106C150.614 90.4036 151.351 89.4396 152.258 88.5325C155.149 85.6404 160.025 83.1458 167.283 83.3723Z" fill="black"/>
<path d="M165.573 163.301C165.279 163.262 165.014 163.365 165.014 163.365C162.547 167.442 155.298 170.906 148.001 170.917C141.562 170.896 126.797 162.927 131.207 141.497C130.483 141.529 125.798 141.037 125.073 141.004C119.901 150.118 125.49 160.811 125.145 160.803C118.256 176.573 96.5605 171.061 91.9036 163.364C91.9036 163.364 88.4268 162.504 89.6749 166.711C94.7889 181.184 118.402 183.091 128.429 171.722L128.515 171.702L128.6 171.722C138.627 183.091 162.241 181.184 167.355 166.711C168.317 163.465 166.469 163.237 165.573 163.301Z" fill="black"/>
</g>
<defs>
<clipPath id="clip0_1103_2">
<rect width="256" height="256" fill="white"/>
</clipPath>
</defs>
</svg>
