<svg width="256" height="256" viewBox="0 0 256 256" fill="none" xmlns="http://www.w3.org/2000/svg">
<g clip-path="url(#clip0_1101_282)">
<path d="M247.683 24.5578C240.684 11.2926 230.248 3.987 218.299 3.987C206.677 3.987 194.776 10.5502 184.789 22.4673C176.029 32.9191 169.981 46.3079 168.609 58.2814C167.282 69.8719 170.607 80.8033 177.974 89.0622C185.863 97.9062 197.826 102.978 210.796 102.978C211.382 102.978 211.977 102.968 212.567 102.947C220.946 102.656 231.482 97.8419 240.063 90.3828C250.34 81.4496 256 70.3858 256 59.2302C256 47.3896 252.891 34.428 247.683 24.5578Z" fill="black"/>
<path d="M71.2113 22.4673C61.2244 10.5502 49.3234 3.987 37.7006 3.987C25.7511 3.987 15.3154 11.2926 8.31677 24.5578C3.10898 34.428 0 47.3896 0 59.2297C0 70.3858 5.65991 81.4492 15.9367 90.3823C24.5178 97.8414 35.0535 102.656 43.433 102.947C44.022 102.967 44.6183 102.978 45.2043 102.978C58.1752 102.978 70.1379 97.9057 78.0266 89.0622C85.3925 80.8038 88.7182 69.8724 87.3908 58.2809C86.0187 46.3079 79.9704 32.9191 71.2113 22.4673Z" fill="black"/>
<path d="M247.663 59.2297C247.663 78.7732 224.607 94.1876 212.278 94.6157C191.207 95.3474 174.462 80.4429 176.892 59.2297C179.321 38.0166 198.756 12.3234 218.299 12.3234C237.842 12.3234 247.663 39.6868 247.663 59.2297Z" fill="#F87A1E"/>
<path d="M232.382 58.6879C232.906 74.6938 211.463 83.3509 204.066 83.6078C191.427 84.0467 186.878 75.8829 188.336 63.1577C189.793 50.4324 203.043 30.5497 214.767 30.5497C226.49 30.5497 231.998 46.9704 232.382 58.6879Z" fill="#FFE5D0"/>
<path d="M8.33636 59.2297C8.33636 78.7732 31.3928 94.1876 43.7223 94.6157C64.7928 95.3474 81.5381 80.4429 79.1083 59.2297C76.6785 38.0166 57.244 12.3234 37.7005 12.3234C18.1576 12.3234 8.33636 39.6868 8.33636 59.2297Z" fill="#F87A1E"/>
<path d="M23.618 58.6879C23.0938 74.6938 44.5374 83.3509 51.9337 83.6078C64.5736 84.0467 69.1224 75.8829 67.6645 63.1577C66.2071 50.4324 52.9571 30.5497 41.2332 30.5497C29.5093 30.5492 24.0019 46.9704 23.618 58.6879Z" fill="#FFE5D0"/>
<path d="M238.576 145.876C238.231 129.456 230.082 117.603 226.262 112.93L219.376 71.6569C219.345 71.47 219.308 71.2847 219.264 71.1008C218.951 69.7836 215.825 57.8974 202.617 46.1853C195.045 39.4706 185.636 34.1505 174.652 30.3726C161.353 25.7989 145.657 23.4799 128 23.4799C110.343 23.4799 94.6474 25.7989 81.3489 30.3726C70.365 34.15 60.9561 39.4701 53.3838 46.1853C40.176 57.8974 37.0494 69.7836 36.7365 71.1008C36.6929 71.2847 36.6551 71.47 36.6242 71.6569L29.7388 112.93C25.9183 117.603 17.7688 129.456 17.4245 145.876C16.7959 175.839 30.9099 200.042 58.2409 215.868C68.6614 221.902 80.7521 226.59 94.1776 229.803C108.206 233.16 120.212 234.068 127.813 234.238C127.876 234.24 127.938 234.24 128 234.24C128.063 234.24 128.125 234.24 128.187 234.238C135.788 234.068 147.795 233.16 161.823 229.803C175.249 226.59 187.34 221.902 197.76 215.868C225.091 200.042 239.205 175.839 238.576 145.876Z" fill="black"/>
<path d="M230.241 146.051C229.865 128.126 218.427 116.631 218.427 116.631L211.153 73.0289C211.153 73.0289 201.357 31.8168 128 31.8168C54.6425 31.8168 44.8463 73.0289 44.8463 73.0289L37.5726 116.631C37.5726 116.631 26.1346 128.125 25.7584 146.051C24.4722 207.357 90.7219 225.069 128 225.905C165.278 225.068 231.527 207.357 230.241 146.051Z" fill="#F87A1E"/>
<path d="M178.356 119.968C160.102 123.233 168.01 56.6901 128 56.6901C87.9905 56.6901 95.8978 123.233 77.6436 119.968C44.3981 114.02 37.3793 137.605 37.3793 153.63C37.3793 196.17 87.1529 218.235 128 218.235C168.847 218.235 218.62 196.17 218.62 153.63C218.62 137.605 211.602 114.02 178.356 119.968Z" fill="#FFE5D0"/>
<path d="M91.0377 81.3923C101.057 81.9714 106.675 73.2261 109.05 69.3457C110.672 65.4075 107.254 63.9594 105.227 64.9441C99.8988 68.8828 93.3543 76.2958 76.964 63.3224C73.7785 61.9327 70.2453 64.2493 73.0258 68.9981C77.1959 74.7899 83.0456 80.9294 91.0377 81.3923Z" fill="black"/>
<path d="M182.974 68.9981C185.754 64.2493 182.221 61.9322 179.036 63.3224C162.587 76.2958 156.1 68.8823 150.772 64.9441C148.803 63.9594 145.328 65.4075 146.95 69.3457C149.325 73.2266 155 81.9714 164.961 81.3923C172.954 80.9294 178.804 74.7899 182.974 68.9981Z" fill="black"/>
<path d="M152.832 11.6231C149.808 7.41229 145.064 5.09821 139.469 5.09821C139.043 5.09821 138.606 5.11194 138.171 5.13842C134.638 5.35663 128.404 6.79981 115.091 16.7726C108.442 21.7533 103.036 26.5997 102.809 26.8037C100.842 28.5705 99.8567 31.1563 100.08 33.7396L111.866 32.2204C111.866 32.2204 123.053 56.1664 137.958 53.9465C145.115 52.8809 149.824 47.5789 150.886 41.4316C151.258 39.2818 151.116 37.0692 150.539 34.9822C156.802 28.0365 157.759 18.5031 152.832 11.6231Z" fill="black"/>
<path d="M108.38 33.0044C108.38 33.0044 129.503 14.0259 138.683 13.4591C142.804 13.2055 144.964 14.9591 146.054 16.4768C148.72 20.1983 147.926 25.612 144.124 29.6419C142.761 31.0841 141.143 32.2919 139.584 33.2658L139.935 33.4801C141.62 34.5727 143.15 37.2344 142.67 40.0129C142.384 41.6655 141.135 44.621 135.971 45.8498C121.965 49.3879 108.168 33.1702 108.38 33.0044Z" fill="#F87A1E"/>
<path d="M128 148.612C124.949 156.008 116.513 156.971 116.513 156.971L120.085 163.735L126.699 163.463V159.625C126.699 158.955 127.242 158.417 127.912 158.417L128 158.424L128.088 158.417C128.758 158.417 129.301 158.955 129.301 159.625V163.463L135.915 163.735L139.487 156.971C139.487 156.971 131.05 156.008 128 148.612Z" fill="white"/>
<path d="M234.45 229.284C232.251 223.153 227.343 218.631 221.098 216.713C220.276 215.335 219.186 213.828 217.746 212.342C214.575 209.063 209.072 205.252 200.142 204.169C199.266 196.277 191.009 176.478 184.717 176.478C178.425 176.478 161.654 189.247 155.12 193.724C148.585 198.2 144.617 219.386 144.617 219.386C138.939 222.099 134.831 225.85 132.368 230.586C128.353 238.302 130.552 245.504 130.816 246.3C131.947 249.712 135.138 252.013 138.728 252.013L138.799 252.012L224.282 251.295C226.384 251.277 228.401 250.466 229.931 249.024C235.277 243.982 237.01 236.418 234.45 229.284Z" fill="black"/>
<path d="M215.294 224.072C215.294 224.072 212.386 211.163 192.648 212.273C192.648 212.273 185.296 144.549 179.978 108.657C179.851 108.743 179.719 108.826 179.577 108.897C179.465 108.955 177.606 109.929 174.503 110.854C171.4 111.836 167.11 112.77 162.078 112.804C159.365 112.823 156.424 112.56 153.423 111.902C151.676 111.486 149.869 110.951 148.049 110.249L153.214 225.007C134.406 230.645 138.727 243.677 138.727 243.677L224.21 242.959C230.64 236.897 226.539 224.828 215.294 224.072Z" fill="#47BDFF"/>
<path d="M151.031 180.771L153.214 225.006C134.406 230.644 138.727 243.676 138.727 243.676L147.02 243.476C146.596 226.917 165.945 226.243 165.945 226.243L156.568 222.417L151.031 180.771Z" fill="#0084DC"/>
<path d="M208.273 227.453C209.235 227.23 210.22 227.111 211.211 227.117C211.281 227.118 211.349 227.123 211.419 227.124C211.484 227.123 211.549 227.12 211.614 227.12C219.204 227.172 224.782 233.414 225.061 240.752C225.077 241.194 225.067 241.633 225.033 242.066C230.231 235.788 226.014 224.792 215.294 224.073C215.294 224.073 212.461 211.559 193.516 212.242C203.372 214.408 208.723 217.668 208.273 227.453Z" fill="#00E4FF"/>
<path d="M162.079 112.804C167.111 112.769 171.4 111.836 174.503 110.854C177.606 109.928 179.465 108.954 179.578 108.897C179.719 108.825 179.852 108.743 179.979 108.656C181.481 107.634 182.029 105.629 181.184 103.968C180.713 103.041 179.899 102.403 178.976 102.124C178.102 101.86 177.13 101.916 176.254 102.362C176.198 102.362 174.62 103.164 172.081 103.917C169.542 104.669 165.986 105.428 162.029 105.455C159.824 105.47 157.448 105.26 155.014 104.711C152.608 104.169 150.145 103.294 147.68 102.036L147.589 101.991C145.773 101.043 143.574 101.736 142.624 103.495C141.618 105.254 142.312 107.511 144.128 108.46C145.431 109.159 146.743 109.745 148.049 110.248C149.869 110.949 151.675 111.485 153.423 111.901C156.424 112.56 159.365 112.822 162.079 112.804Z" fill="black"/>
<path d="M21.5491 229.284C23.7484 223.153 28.6561 218.631 34.9015 216.713C35.7234 215.335 36.814 213.828 38.2532 212.342C41.425 209.063 46.9275 205.252 55.8572 204.169C56.734 196.277 64.9904 176.478 71.2829 176.478C77.5754 176.478 94.3453 189.247 100.88 193.724C107.415 198.2 111.382 219.386 111.382 219.386C117.061 222.099 121.169 225.85 123.632 230.586C127.646 238.302 125.448 245.504 125.184 246.3C124.052 249.712 120.862 252.013 117.272 252.013L117.201 252.012L31.7175 251.295C29.6157 251.277 27.5983 250.466 26.0684 249.024C20.7223 243.982 18.9898 236.418 21.5491 229.284Z" fill="black"/>
<path d="M40.7056 224.072C40.7056 224.072 43.614 211.163 63.3516 212.273C63.3516 212.273 70.7038 144.549 76.0214 108.657C76.1489 108.743 76.2808 108.826 76.422 108.897C76.5348 108.955 78.3938 109.929 81.4969 110.854C84.5995 111.836 88.8898 112.77 93.9211 112.804C96.6343 112.823 99.5761 112.56 102.577 111.902C104.324 111.486 106.131 110.951 107.951 110.249L102.786 225.007C121.593 230.645 117.272 243.677 117.272 243.677L31.7891 242.959C25.3593 236.897 29.4608 224.828 40.7056 224.072Z" fill="#47BDFF"/>
<path d="M104.969 180.771L102.786 225.006C121.593 230.644 117.272 243.676 117.272 243.676L108.979 243.476C109.403 226.917 90.0545 226.243 90.0545 226.243L99.432 222.417L104.969 180.771Z" fill="#0084DC"/>
<path d="M47.7273 227.453C46.7651 227.23 45.78 227.111 44.7889 227.117C44.7188 227.118 44.6502 227.123 44.5805 227.124C44.5158 227.123 44.4506 227.12 44.3858 227.12C36.7958 227.172 31.2178 233.414 30.9393 240.752C30.9226 241.194 30.9329 241.633 30.9667 242.066C25.7687 235.788 29.9865 224.792 40.7061 224.073C40.7061 224.073 43.5395 211.559 62.4841 212.242C52.6281 214.408 47.2766 217.668 47.7273 227.453Z" fill="#00E4FF"/>
<path d="M93.9206 112.804C88.8893 112.769 84.5991 111.836 81.4964 110.854C78.3934 109.928 76.5343 108.954 76.4216 108.897C76.2803 108.825 76.1484 108.743 76.0209 108.656C74.5189 107.634 73.9707 105.629 74.8156 103.968C75.2868 103.041 76.1004 102.403 77.0232 102.124C77.8966 101.86 78.8685 101.916 79.7448 102.362C79.8012 102.362 81.3788 103.164 83.9174 103.917C86.4566 104.669 90.0128 105.428 93.9701 105.455C96.1749 105.47 98.5507 105.26 100.985 104.711C103.391 104.169 105.853 103.294 108.319 102.036L108.41 101.991C110.226 101.043 112.425 101.736 113.375 103.495C114.381 105.254 113.687 107.511 111.871 108.46C110.568 109.159 109.256 109.745 107.95 110.248C106.13 110.949 104.324 111.485 102.576 111.901C99.5756 112.56 96.6343 112.822 93.9206 112.804Z" fill="black"/>
<path d="M168.028 144.888L168.025 144.789L168.023 144.773C168.018 144.711 168.013 144.653 168.006 144.598L168.004 144.59C167.996 144.533 167.986 144.478 167.975 144.428L167.965 144.392L167.934 144.278L167.89 144.162L167.884 144.146C167.521 143.327 166.607 143.683 166.607 143.683C163.994 148.001 156.303 151.668 148.575 151.661C141.757 151.653 134.91 148.786 131.499 140.979C131.319 140.982 131.27 139.689 131.202 137.875C131.135 136.049 131.049 133.696 130.792 131.604H130.791L130.784 131.55C130.019 131.584 129.251 131.609 128.477 131.611C128.317 131.617 128.159 131.616 127.999 131.619C127.839 131.616 127.682 131.617 127.521 131.611C126.747 131.609 125.979 131.584 125.214 131.55L125.208 131.604H125.207C124.951 133.688 124.864 136.031 124.797 137.854C124.729 139.679 124.681 140.982 124.499 140.979C121.088 148.786 114.242 151.654 107.423 151.661C99.6958 151.669 92.0042 148.001 89.3915 143.683C89.3915 143.683 88.478 143.327 88.1146 144.146C88.0798 144.225 88.0503 144.315 88.0268 144.416L88.0239 144.428C87.9817 144.618 87.9626 144.852 87.9724 145.134C87.99 145.646 88.1053 146.321 88.3706 147.217C90.3115 150.967 91.0348 156.481 101.136 158.713C101.299 158.749 94.0015 178.116 105.224 184.631C118.554 192.369 118.266 168.501 127.999 168.501C137.732 168.501 137.206 192.508 150.775 184.631C161.997 178.116 154.7 158.749 154.863 158.713C164.964 156.48 165.688 150.967 167.628 147.217C167.939 146.169 168.045 145.422 168.028 144.888Z" fill="black"/>
<path d="M88.0307 129.199C88.3676 133.043 81.5043 136.781 72.7026 137.549C63.9008 138.317 56.4947 135.824 56.1583 131.983C55.8234 128.142 62.6862 124.403 71.4865 123.634C80.2887 122.865 87.6953 125.356 88.0307 129.199Z" fill="#FF4076"/>
<path d="M184.514 123.634C193.313 124.404 200.176 128.142 199.842 131.984C199.505 135.824 192.099 138.317 183.297 137.55C174.496 136.782 167.633 133.043 167.969 129.2C168.305 125.356 175.711 122.865 184.514 123.634Z" fill="#FF4076"/>
<path d="M128 148.612C124.949 156.008 116.513 156.971 116.513 156.971L120.085 163.735L126.699 163.463V159.625C126.699 158.955 127.242 158.417 127.912 158.417L128 158.424L128.088 158.417C128.758 158.417 129.301 158.955 129.301 159.625V163.463L135.915 163.735L139.487 156.971C139.487 156.971 131.05 156.008 128 148.612Z" fill="white"/>
<path d="M128.313 136.462C140.01 136.3 147.616 127.589 146.75 124.237C145.673 120.061 135.19 117.736 127.838 117.839C120.488 117.941 110.088 119.932 109.224 124.157C108.531 127.549 116.617 136.626 128.313 136.462Z" fill="#FF4076"/>
<path d="M125.697 120.71C128.87 120.71 131.443 121.772 131.443 123.083C131.443 124.393 128.87 125.454 125.697 125.454C122.524 125.454 119.952 124.392 119.952 123.083C119.952 121.772 122.524 120.71 125.697 120.71Z" fill="white"/>
<path d="M133.756 121.74C134.465 121.74 135.04 122.293 135.04 122.977C135.04 123.66 134.465 124.214 133.756 124.214C133.048 124.214 132.472 123.66 132.472 122.977C132.472 122.293 133.047 121.74 133.756 121.74Z" fill="white"/>
</g>
<defs>
<clipPath id="clip0_1101_282">
<rect width="256" height="256" fill="white"/>
</clipPath>
</defs>
</svg>
