<svg width="256" height="256" viewBox="0 0 256 256" fill="none" xmlns="http://www.w3.org/2000/svg">
<mask id="path-1-outside-1_1101_125" maskUnits="userSpaceOnUse" x="195.549" y="234.076" width="4" height="4" fill="black">
<rect fill="white" x="195.549" y="234.076" width="4" height="4"/>
<path d="M197.554 236.076L197.552 236.078L197.549 236.081L197.554 236.076Z"/>
</mask>
<path d="M197.554 236.076L197.552 236.078L197.549 236.081L197.554 236.076Z" fill="black"/>
<path d="M197.554 236.076L197.552 236.078L197.549 236.081L197.554 236.076Z" stroke="black" stroke-width="4" mask="url(#path-1-outside-1_1101_125)"/>
<mask id="path-2-outside-2_1101_125" maskUnits="userSpaceOnUse" x="62.4566" y="234.076" width="4" height="4" fill="black">
<rect fill="white" x="62.4566" y="234.076" width="4" height="4"/>
<path d="M64.4616 236.081L64.4591 236.078L64.4566 236.076L64.4616 236.081Z"/>
</mask>
<path d="M64.4616 236.081L64.4591 236.078L64.4566 236.076L64.4616 236.081Z" fill="black"/>
<path d="M64.4616 236.081L64.4591 236.078L64.4566 236.076L64.4616 236.081Z" stroke="black" stroke-width="4" mask="url(#path-2-outside-2_1101_125)"/>
<mask id="path-3-outside-3_1101_125" maskUnits="userSpaceOnUse" x="20.4808" y="23.2674" width="216" height="226" fill="black">
<rect fill="white" x="20.4808" y="23.2674" width="216" height="226"/>
<path d="M233.078 164.301C231.862 155.393 228.145 147.249 222.289 140.613L214.859 72.0278C214.776 71.2587 214.548 70.5122 214.188 69.8273C213.982 69.4335 208.997 60.0656 197.982 50.0729C191.555 44.2435 184.353 39.3485 176.576 35.524C166.874 30.7533 156.26 27.6512 145.027 26.303C139.315 25.617 133.586 25.2684 128.002 25.2674H128C122.415 25.2684 116.686 25.6165 110.974 26.303C99.742 27.6512 89.1276 30.7538 79.4254 35.524C71.6476 39.3485 64.4453 44.243 58.0193 50.0729C47.0039 60.0656 42.019 69.4335 41.8127 69.8273C41.4533 70.5122 41.2258 71.2587 41.1421 72.0278L33.7119 140.613C27.8553 147.249 24.1381 155.393 22.9223 164.301C21.6598 173.551 23.1169 183.47 27.1365 192.985C33.428 207.88 45.7942 221.258 61.9578 230.656C70.7317 235.757 80.5904 239.716 91.2608 242.426C102.663 245.32 115.024 246.788 128.001 246.788C140.978 246.788 153.339 245.32 164.741 242.426C175.411 239.717 185.27 235.757 194.044 230.656C210.207 221.258 222.573 207.88 228.865 192.985C232.884 183.47 234.341 173.551 233.078 164.301Z"/>
</mask>
<path d="M233.078 164.301C231.862 155.393 228.145 147.249 222.289 140.613L214.859 72.0278C214.776 71.2587 214.548 70.5122 214.188 69.8273C213.982 69.4335 208.997 60.0656 197.982 50.0729C191.555 44.2435 184.353 39.3485 176.576 35.524C166.874 30.7533 156.26 27.6512 145.027 26.303C139.315 25.617 133.586 25.2684 128.002 25.2674H128C122.415 25.2684 116.686 25.6165 110.974 26.303C99.742 27.6512 89.1276 30.7538 79.4254 35.524C71.6476 39.3485 64.4453 44.243 58.0193 50.0729C47.0039 60.0656 42.019 69.4335 41.8127 69.8273C41.4533 70.5122 41.2258 71.2587 41.1421 72.0278L33.7119 140.613C27.8553 147.249 24.1381 155.393 22.9223 164.301C21.6598 173.551 23.1169 183.47 27.1365 192.985C33.428 207.88 45.7942 221.258 61.9578 230.656C70.7317 235.757 80.5904 239.716 91.2608 242.426C102.663 245.32 115.024 246.788 128.001 246.788C140.978 246.788 153.339 245.32 164.741 242.426C175.411 239.717 185.27 235.757 194.044 230.656C210.207 221.258 222.573 207.88 228.865 192.985C232.884 183.47 234.341 173.551 233.078 164.301Z" fill="black"/>
<path d="M233.078 164.301C231.862 155.393 228.145 147.249 222.289 140.613L214.859 72.0278C214.776 71.2587 214.548 70.5122 214.188 69.8273C213.982 69.4335 208.997 60.0656 197.982 50.0729C191.555 44.2435 184.353 39.3485 176.576 35.524C166.874 30.7533 156.26 27.6512 145.027 26.303C139.315 25.617 133.586 25.2684 128.002 25.2674H128C122.415 25.2684 116.686 25.6165 110.974 26.303C99.742 27.6512 89.1276 30.7538 79.4254 35.524C71.6476 39.3485 64.4453 44.243 58.0193 50.0729C47.0039 60.0656 42.019 69.4335 41.8127 69.8273C41.4533 70.5122 41.2258 71.2587 41.1421 72.0278L33.7119 140.613C27.8553 147.249 24.1381 155.393 22.9223 164.301C21.6598 173.551 23.1169 183.47 27.1365 192.985C33.428 207.88 45.7942 221.258 61.9578 230.656C70.7317 235.757 80.5904 239.716 91.2608 242.426C102.663 245.32 115.024 246.788 128.001 246.788C140.978 246.788 153.339 245.32 164.741 242.426C175.411 239.717 185.27 235.757 194.044 230.656C210.207 221.258 222.573 207.88 228.865 192.985C232.884 183.47 234.341 173.551 233.078 164.301Z" stroke="black" stroke-width="4" mask="url(#path-3-outside-3_1101_125)"/>
<path d="M216.383 143.302L208.734 72.6916C208.734 72.6916 190.504 37.9683 144.293 32.4203C138.577 31.7339 133.149 31.4299 128.001 31.4289C122.852 31.4299 117.424 31.7339 111.708 32.4203C65.4978 37.9683 47.2678 72.6916 47.2678 72.6916L39.6178 143.302C9.58003 174.188 41.8686 240.627 128 240.627C214.132 240.627 246.42 174.189 216.383 143.302Z" fill="#FFA5CB"/>
<path d="M216.383 143.302L208.734 72.6916C208.734 72.6916 200.343 56.7196 180.528 44.7091C176.232 63.9768 180.243 84.4818 201.069 92.5123L206.685 144.352L207.047 147.694L209.39 150.103C213.78 154.617 216.444 160.118 217.309 166.453C218.185 172.874 217.111 179.907 214.203 186.792C209.245 198.53 199.244 209.221 186.043 216.896C170.319 226.039 150.247 230.872 128 230.872C105.753 230.872 85.6825 226.039 69.9574 216.896C56.7568 209.221 46.7564 198.53 41.7983 186.792C38.8897 179.907 37.8162 172.874 38.6921 166.453C39.5572 160.118 42.2213 154.617 46.6111 150.103L48.9538 147.694L49.3158 144.352L51.5856 123.399L54.9316 92.5123C75.757 84.4818 79.7684 63.9768 75.4726 44.7091C55.6576 56.7191 47.2667 72.6916 47.2667 72.6916L42.4339 117.3L39.6173 143.302C9.57951 174.188 41.8681 240.627 128 240.627C214.132 240.627 246.42 174.189 216.383 143.302Z" fill="#FF88B3"/>
<path d="M84.6105 141.004C84.8282 144.531 78.4581 147.793 70.3825 148.291C62.3069 148.79 55.5842 146.335 55.3665 142.81C55.1488 139.285 61.5188 136.022 69.5939 135.523C77.67 135.024 84.3928 137.479 84.6105 141.004Z" fill="#FF4076"/>
<path d="M186.406 135.523C194.482 136.022 200.851 139.284 200.634 142.81C200.416 146.335 193.693 148.79 185.618 148.291C177.542 147.793 171.173 144.531 171.391 141.004C171.608 137.479 178.331 135.024 186.406 135.523Z" fill="#FF4076"/>
<path d="M93.5235 205.684C93.5235 183.415 108.959 165.363 128 165.363C147.041 165.363 162.477 183.416 162.477 205.684C162.477 227.952 93.5235 227.952 93.5235 205.684Z" fill="black"/>
<path d="M177.982 82.2269C180.446 78.0168 177.314 75.9631 174.491 77.1953C159.961 88.696 154.159 82.1242 149.436 78.6329C147.639 77.7601 144.609 79.0436 146.047 82.5349C148.152 85.9748 153.132 93.7275 162.014 93.2141C169.1 92.8034 174.285 87.3611 177.982 82.2269Z" fill="black"/>
<path d="M93.9861 93.2141C102.817 93.7275 107.848 85.9748 109.953 82.5349C111.391 79.0436 108.311 77.7601 106.565 78.6329C101.841 82.1242 96.0911 88.696 81.5099 77.1953C78.6861 75.9631 75.5542 78.0168 78.0186 82.2269C81.7153 87.3611 86.9008 92.8034 93.9861 93.2141Z" fill="black"/>
<path d="M147.279 128.145C140.451 122.799 133.483 119.491 128.161 119.067C128.109 119.063 128.053 119.065 128.001 119.062C127.948 119.065 127.892 119.063 127.84 119.067C122.519 119.491 115.55 122.799 108.722 128.145C99.6065 135.282 90.4065 146.398 91.9247 156.2C93.7884 168.247 116.477 172 128.001 173.133C139.526 172 162.214 168.248 164.078 156.2C165.595 146.398 156.395 135.282 147.279 128.145Z" fill="#FF4076"/>
<path d="M125.2 138.686C123.255 136.919 115.153 146.466 115.153 146.466C110.652 144.547 102.974 147.55 105.874 155.024C107.211 158.473 110.714 159.416 114.263 158.253C120.56 156.192 127.145 140.453 125.2 138.686Z" fill="black"/>
<path d="M141.738 158.253C145.286 159.416 148.79 158.473 150.127 155.024C153.027 147.55 145.348 144.546 140.848 146.466C140.848 146.466 132.745 136.919 130.8 138.686C128.856 140.453 135.44 156.192 141.738 158.253Z" fill="black"/>
<path d="M146.542 33.7727C152.087 27.8966 153.033 19.7126 148.846 13.8668C146.36 10.4043 142.436 8.5 137.791 8.5C137.431 8.5 137.061 8.5113 136.691 8.53389C133.639 8.72231 128.207 10.0038 116.306 18.9194C110.353 23.379 105.5 27.7148 105.146 28.0321L111.748 30.284C111.748 30.284 121.081 53.159 136.015 50.4116C144.585 48.8349 146.382 42.5352 146.801 40.1098C147.153 38.0782 146.944 35.9794 146.277 34.0489C146.366 33.957 146.455 33.8651 146.542 33.7727Z" fill="black"/>
<path d="M109.25 32.6272C109.25 32.6272 128.643 15.2032 137.07 14.6831C140.854 14.4505 142.837 16.0601 143.837 17.4535C146.284 20.8703 145.556 25.8403 142.065 29.54C140.814 30.8641 139.329 31.9731 137.897 32.867L138.22 33.0636C139.767 34.0668 141.172 36.5102 140.731 39.0614C140.469 40.5785 139.322 43.292 134.58 44.42C121.722 47.6689 109.056 32.7797 109.25 32.6272Z" fill="#FFA5CB"/>
<path d="M199.26 18.3351C200.551 18.3351 201.851 18.4199 203.124 18.5872C214.889 20.1331 221.459 25.5313 224.57 29.0287C226.69 29.1796 229.637 29.5313 232.737 30.3379C239.924 32.2083 245.228 35.8418 248.076 40.8466C252.318 48.301 254.936 60.2221 251.223 70.0511C248.709 76.705 243.651 81.5045 236.594 83.9299C234.392 84.6867 228.46 86.4457 220.933 86.4457C210.991 86.4457 202.222 83.3518 195.573 77.4988C187.522 70.4125 182.646 59.5152 181.057 45.0808L173.354 39.903C171.854 38.8941 170.871 37.2763 170.669 35.4793C170.467 33.6823 171.065 31.8864 172.303 30.5695C172.773 30.0694 183.981 18.3351 199.26 18.3351Z" fill="black"/>
<path d="M202.321 24.6959C212.551 26.0401 217.94 30.7897 220.175 33.3743C223.075 37.5787 225.604 45.1322 221.385 57.368C226.847 54.2305 230.16 44.0114 228.155 35.6554C233.198 36.5123 239.73 38.6363 242.721 43.8933C247.948 53.0789 250.844 72.5165 234.591 78.1026C223.995 81.7438 190.334 86.3332 186.921 41.5972L176.791 34.7882C176.791 34.7893 188.046 22.8204 202.321 24.6959Z" fill="#FFA5CB"/>
<path d="M224.325 73.6219C216.999 73.4822 210.494 70.5583 205.203 65.7013C199.893 60.8269 195.602 46.0091 195.289 39.0152C195.1 34.8134 200.544 33.8163 200.544 33.8163C189.677 26.8148 176.842 34.8236 176.842 34.8236L186.921 41.5982C190.334 86.3342 223.995 81.7447 234.591 78.1036C243.024 75.2053 246.295 68.5765 246.766 61.5873C246.766 61.5868 242.504 73.9685 224.325 73.6219Z" fill="#FF88B3"/>
<path d="M56.7404 18.3351C55.4491 18.3351 54.1497 18.4199 52.8769 18.5872C41.1118 20.1331 34.5411 25.5313 31.4302 29.0287C29.3103 29.1796 26.3628 29.5313 23.2627 30.3379C16.0764 32.2083 10.7722 35.8418 7.92425 40.8466C3.68235 48.301 1.0639 60.2221 4.77697 70.0511C7.29068 76.705 12.3494 81.5045 19.4064 83.9299C21.608 84.6867 27.5395 86.4457 35.0673 86.4457C45.0087 86.4457 53.7779 83.3518 60.4273 77.4988C68.4777 70.4125 73.3537 59.5152 74.9427 45.0808L82.6456 39.903C84.1463 38.8941 85.1285 37.2763 85.3308 35.4793C85.5331 33.6823 84.9355 31.8864 83.6971 30.5695C83.2283 30.0694 72.0193 18.3351 56.7404 18.3351Z" fill="black"/>
<path d="M53.6794 24.6959C43.45 26.0401 38.0601 30.7897 35.8256 33.3743C32.9258 37.5787 30.3962 45.1322 34.6155 57.368C29.1537 54.2305 25.8401 44.0114 27.845 35.6554C22.8027 36.5123 16.2709 38.6363 13.2792 43.8933C8.05209 53.0794 5.1569 72.5171 21.4093 78.1031C32.0053 81.7443 65.6667 86.3337 69.08 41.5978L79.2093 34.7888C79.2093 34.7893 67.9546 22.8204 53.6794 24.6959Z" fill="#FFA5CB"/>
<path d="M31.6751 73.6219C39.0011 73.4822 45.5062 70.5583 50.7975 65.7013C56.1073 60.8269 60.3985 46.0091 60.7117 39.0152C60.9001 34.8134 55.4568 33.8163 55.4568 33.8163C66.3239 26.8148 79.1584 34.8236 79.1584 34.8236L69.08 41.5982C65.6667 86.3342 32.0053 81.7447 21.4093 78.1036C12.9763 75.2053 9.70581 68.5765 9.23398 61.5873C9.23398 61.5868 13.4969 73.9685 31.6751 73.6219Z" fill="#FF88B3"/>
<path d="M104.342 114.71L97.3818 107.75L92.9222 103.29C91.0303 101.399 87.922 101.399 85.9623 103.29C84.0703 105.182 84.0703 108.291 85.9623 110.25L90.4219 114.71L85.9623 119.17C84.0703 121.062 84.0703 124.17 85.9623 126.13C87.8542 128.022 90.9625 128.022 92.9222 126.13L97.3818 121.67L104.342 114.71Z" fill="black"/>
<path d="M151.438 114.71L158.398 107.75L162.857 103.29C164.749 101.399 167.857 101.399 169.817 103.29C171.709 105.182 171.709 108.291 169.817 110.25L165.358 114.71L169.817 119.17C171.709 121.062 171.709 124.17 169.817 126.13C167.925 128.022 164.817 128.022 162.857 126.13L158.398 121.67L151.438 114.71Z" fill="black"/>
<path d="M176.081 234.121C174.74 230.446 171.86 227.715 168.186 226.474C166.696 223.643 164.015 220.615 159.794 219.373L155.971 205.023C155.921 204.924 155.921 204.775 155.872 204.675C155.773 204.427 153.886 198.915 149.615 193.454C143.607 185.757 135.861 181.685 127.221 181.685C118.433 181.685 110.935 185.807 105.473 193.652C101.699 199.065 100.209 204.328 100.06 205.023L96.2369 219.373C92.0161 220.615 89.335 223.643 87.8455 226.474C84.171 227.715 81.2912 230.446 79.9506 234.121C78.3616 238.49 79.4542 243.257 82.7313 246.336C83.7741 247.279 85.1146 247.825 86.505 247.825H169.577C170.967 247.825 172.308 247.279 173.35 246.336C176.528 243.257 177.62 238.49 176.081 234.121Z" fill="black"/>
<path d="M100.556 224.338C93.257 224.189 91.8174 231.24 91.8174 231.24C85.1639 231.638 82.681 238.788 86.4049 242.313H169.477C173.25 238.788 170.768 231.638 164.064 231.24C164.064 231.24 162.624 224.14 155.325 224.338L150.558 206.463C150.558 206.463 143.954 187.197 127.122 187.197C110.289 187.197 105.224 206.463 105.224 206.463L100.556 224.338Z" fill="#95C11F"/>
<path d="M170.559 235.308C170.559 235.307 170.558 235.307 170.558 235.306C170.506 235.2 170.45 235.095 170.392 234.991C170.38 234.968 170.367 234.946 170.354 234.923C170.3 234.829 170.244 234.736 170.186 234.644C170.166 234.614 170.145 234.583 170.125 234.552C170.068 234.465 170.01 234.379 169.948 234.295C169.924 234.262 169.899 234.229 169.874 234.197C169.685 233.946 169.477 233.704 169.25 233.475C169.199 233.423 169.148 233.371 169.095 233.32C169.041 233.269 168.984 233.22 168.928 233.169C168.867 233.115 168.806 233.061 168.743 233.009C168.688 232.963 168.631 232.918 168.573 232.873C168.505 232.82 168.435 232.767 168.365 232.716C168.308 232.675 168.252 232.634 168.194 232.595C168.115 232.541 168.034 232.489 167.952 232.438C167.898 232.404 167.845 232.37 167.79 232.338C167.685 232.275 167.576 232.216 167.466 232.158C167.432 232.14 167.398 232.12 167.363 232.102C167.216 232.028 167.066 231.959 166.912 231.893C166.868 231.874 166.822 231.858 166.778 231.84C166.665 231.794 166.551 231.75 166.433 231.709C166.374 231.688 166.313 231.669 166.253 231.649C166.146 231.615 166.039 231.581 165.929 231.55C165.864 231.532 165.798 231.515 165.731 231.498C165.621 231.47 165.509 231.445 165.395 231.421C165.329 231.407 165.262 231.392 165.195 231.379C165.071 231.356 164.945 231.337 164.818 231.319C164.758 231.311 164.7 231.301 164.639 231.294C164.451 231.271 164.26 231.252 164.064 231.241C164.064 231.241 162.624 224.14 155.325 224.339L150.558 206.464C150.558 206.464 148.626 200.837 144.196 195.664C149.885 204.233 151.145 214.839 151.305 225.154C150.454 225.483 149.539 225.94 148.627 226.588C148.627 226.588 160.581 224.145 159.345 233.148C159.345 233.148 166.253 235.75 161.629 242.313H169.477C171.447 240.473 171.708 237.647 170.559 235.308Z" fill="#7F941F"/>
<path d="M85.4417 235.308C85.4417 235.307 85.4422 235.307 85.4422 235.306C85.4946 235.2 85.55 235.095 85.608 234.991C85.6209 234.968 85.6332 234.946 85.6465 234.923C85.7005 234.829 85.7564 234.736 85.815 234.644C85.8345 234.614 85.855 234.583 85.8755 234.552C85.9325 234.465 85.9905 234.379 86.0522 234.295C86.0763 234.262 86.1014 234.229 86.1261 234.197C86.3155 233.946 86.5235 233.704 86.7504 233.475C86.8018 233.423 86.8526 233.371 86.906 233.32C86.9599 233.269 87.0164 233.22 87.0728 233.169C87.1334 233.115 87.1945 233.061 87.2572 233.009C87.3126 232.963 87.3696 232.918 87.4271 232.873C87.4954 232.82 87.5652 232.767 87.6361 232.716C87.6925 232.675 87.749 232.634 87.8065 232.595C87.8856 232.541 87.9672 232.489 88.0494 232.438C88.1028 232.404 88.1556 232.37 88.2106 232.338C88.3158 232.275 88.4247 232.216 88.5345 232.158C88.5695 232.14 88.6028 232.12 88.6383 232.102C88.7846 232.028 88.935 231.959 89.089 231.893C89.1327 231.874 89.1789 231.858 89.223 231.84C89.336 231.794 89.4505 231.75 89.5676 231.709C89.6271 231.688 89.6877 231.669 89.7483 231.649C89.8546 231.615 89.9624 231.581 90.0717 231.55C90.1369 231.532 90.2032 231.515 90.2699 231.498C90.3803 231.47 90.4922 231.445 90.6057 231.421C90.6724 231.407 90.7387 231.392 90.8064 231.379C90.9302 231.356 91.056 231.337 91.1833 231.319C91.2429 231.311 91.3014 231.301 91.362 231.294C91.5504 231.271 91.7414 231.252 91.937 231.241C91.937 231.241 93.3771 224.14 100.676 224.339L105.443 206.464C105.443 206.464 107.375 200.837 111.805 195.664C106.117 204.233 104.856 214.839 104.696 225.154C105.547 225.483 106.462 225.94 107.374 226.588C107.374 226.588 95.4195 224.145 96.6564 233.148C96.6564 233.148 89.7478 235.75 94.3722 242.313H86.524C84.5545 240.473 84.2921 237.647 85.4417 235.308Z" fill="#7F941F"/>
<path d="M144.788 236.884C149.173 236.884 152.728 235.4 152.728 233.569C152.728 231.738 149.173 230.253 144.788 230.253C140.402 230.253 136.847 231.738 136.847 233.569C136.847 235.4 140.402 236.884 144.788 236.884Z" fill="#BDD61F"/>
<path d="M131.263 236.186C132.227 236.186 133.008 235.405 133.008 234.441C133.008 233.477 132.227 232.696 131.263 232.696C130.299 232.696 129.518 233.477 129.518 234.441C129.518 235.405 130.299 236.186 131.263 236.186Z" fill="#BDD61F"/>
</svg>
