<svg width="256" height="256" viewBox="0 0 256 256" fill="none" xmlns="http://www.w3.org/2000/svg">
<g clip-path="url(#clip0_1101_2)">
<path d="M250.087 121.777C245.639 115.851 238.833 112.452 231.415 112.452H231.415C226.334 112.452 221.495 114.068 217.423 117.125C212.608 120.74 207.461 127.532 204.311 134.428C200.185 143.463 200.044 151.279 203.916 156.436C206.044 159.272 210.437 162.652 219.277 162.652C228.097 162.652 239.098 159.198 245.436 154.44C250.419 150.699 253.648 145.241 254.527 139.072C255.405 132.902 253.829 126.76 250.087 121.777Z" fill="black"/>
<path d="M38.5772 117.125C34.5044 114.068 29.666 112.452 24.5851 112.452C17.1673 112.452 10.3618 115.851 5.91306 121.777C2.17176 126.761 0.595381 132.903 1.4739 139.073C2.35242 145.243 5.58108 150.701 10.5648 154.441C16.9027 159.199 27.9039 162.653 36.7235 162.653C45.5628 162.653 49.9554 159.272 52.0844 156.437C55.9558 151.28 55.8156 143.464 51.6892 134.429C48.539 127.532 43.3924 120.739 38.5772 117.125Z" fill="black"/>
<path d="M242.397 150.394C234.328 156.452 214.021 161.468 207.963 153.399C201.905 145.33 212.392 127.23 220.461 121.172C228.53 115.115 239.982 116.746 246.04 124.815C252.098 132.885 250.467 144.336 242.397 150.394Z" fill="#8C4B23"/>
<path d="M235 146.816C230.082 150.508 217.706 153.565 214.014 148.647C210.323 143.729 216.713 132.698 221.631 129.007C226.549 125.315 233.529 126.309 237.22 131.227C240.912 136.145 239.918 143.124 235 146.816Z" fill="#E2BA8B"/>
<path d="M13.6026 150.394C21.6718 156.452 41.9794 161.468 48.037 153.399C54.0945 145.33 43.6085 127.23 35.5388 121.172C27.4692 115.115 16.0171 116.746 9.95952 124.815C3.90249 132.884 5.53301 144.336 13.6026 150.394Z" fill="#8C4B23"/>
<path d="M20.9997 146.816C25.9176 150.508 38.2938 153.565 41.9855 148.647C45.6772 143.729 39.2867 132.698 34.3688 129.007C29.4509 125.315 22.4718 126.309 18.7796 131.227C15.0879 136.145 16.0818 143.124 20.9997 146.816Z" fill="#E2BA8B"/>
<path d="M236.502 173.165C234.075 163.743 229.035 154.959 221.501 147.01C223.131 142.992 224.598 138.985 225.878 135.059C230.738 124.127 233.204 112.576 233.204 100.722C233.204 75.9677 222.284 55.5846 201.624 41.7752C183.05 29.3601 157.591 22.798 128 22.798C98.4087 22.798 72.9503 29.3601 54.3764 41.7757C33.717 55.5851 22.7967 75.9682 22.7967 100.722C22.7967 112.544 25.2476 124.066 30.0815 134.97C31.3542 138.88 32.8349 142.916 34.4989 147.012C26.9657 154.96 21.9253 163.744 19.4987 173.165C16.8865 183.307 17.5327 193.896 21.3681 203.786C26.9955 218.296 39.0124 230.788 56.1203 239.911C65.0163 244.655 75.1927 248.417 86.367 251.092C97.8444 253.84 110.419 255.447 123.76 255.874C124.123 255.957 124.501 256 124.89 256C125.819 256 126.734 255.988 127.618 255.975L128 255.97L128.382 255.975C129.266 255.987 130.181 256 131.111 256C131.499 256 131.877 255.957 132.241 255.874C145.581 255.447 158.156 253.839 169.634 251.092C180.807 248.417 190.984 244.655 199.881 239.911C216.989 230.788 229.006 218.296 234.633 203.786C238.468 193.895 239.115 183.307 236.502 173.165Z" fill="black"/>
<mask id="path-8-inside-1_1101_2" fill="white">
<path d="M215.535 148.18C217.761 142.952 219.61 137.984 221.147 133.241C225.661 123.175 228.143 112.205 228.143 100.722C228.143 51.9026 183.307 27.8586 128 27.8586C72.6927 27.8586 27.8573 51.9026 27.8573 100.722C27.8573 112.172 30.3239 123.113 34.8131 133.155C36.3556 137.921 38.2275 142.926 40.4658 148.18C-0.315021 187.52 31.1665 248.264 124.89 250.844V250.939C125.938 250.939 126.968 250.922 128.001 250.908C129.033 250.922 130.064 250.939 131.111 250.939V250.844C224.834 248.264 256.316 187.52 215.535 148.18Z"/>
</mask>
<path d="M215.535 148.18C217.761 142.952 219.61 137.984 221.147 133.241C225.661 123.175 228.143 112.205 228.143 100.722C228.143 51.9026 183.307 27.8586 128 27.8586C72.6927 27.8586 27.8573 51.9026 27.8573 100.722C27.8573 112.172 30.3239 123.113 34.8131 133.155C36.3556 137.921 38.2275 142.926 40.4658 148.18C-0.315021 187.52 31.1665 248.264 124.89 250.844V250.939C125.938 250.939 126.968 250.922 128.001 250.908C129.033 250.922 130.064 250.939 131.111 250.939V250.844C224.834 248.264 256.316 187.52 215.535 148.18Z" fill="#8C4B23" stroke="black" stroke-width="8" mask="url(#path-8-inside-1_1101_2)"/>
<path d="M192.056 155.007C217.687 120.837 205.235 68.7958 175.612 63.3987C149.219 58.5896 143.224 82.2757 128.969 82.2757C128.642 82.2757 128.321 82.2509 128 82.2271C127.679 82.2509 127.358 82.2757 127.032 82.2757C112.777 82.2757 106.782 58.5896 80.3884 63.3987C50.7656 68.7963 38.3125 120.837 63.945 155.007C63.945 155.007 37.7589 155.715 37.7589 180.629C37.7589 216.061 80.9764 238.457 128 238.457C175.023 238.457 218.242 216.061 218.242 180.629C218.242 155.716 192.056 155.007 192.056 155.007Z" fill="#E2BA8B"/>
<path d="M175.874 171.006C169.888 181.655 140.19 190.121 130.105 169.09L130.221 169.083C129.702 160.681 138.609 152.932 138.609 152.932C143.194 148.412 149.905 147.394 152.388 153.535C153.571 156.459 153.72 159.61 152.801 162.473C154.946 161.109 156.796 159.476 158.125 157.507C162.697 150.725 157.444 140.123 147.013 140.202C137.532 140.274 134.075 146.012 128 147.543C121.925 146.013 118.469 140.274 108.988 140.202C98.557 140.123 93.303 150.725 97.8758 157.507C99.2042 159.476 101.054 161.109 103.2 162.473C102.281 159.61 102.43 156.459 103.613 153.535C106.095 147.393 112.807 148.412 117.392 152.932C117.392 152.932 126.299 160.681 125.779 169.083L125.896 169.09C115.81 190.121 86.1124 181.655 80.1268 171.006C80.1268 171.006 77.1577 169.739 78.6673 175.512C81.0103 180.421 81.775 185.701 94.6815 188.989C95.0049 189.073 88.0491 226.01 126.71 228.491C127.045 228.512 128.957 228.512 129.292 228.491C167.953 226.01 160.997 189.073 161.321 188.989C174.227 185.701 174.991 180.421 177.334 175.512C178.843 169.739 175.874 171.006 175.874 171.006Z" fill="black"/>
<path d="M159.921 107.833C167.771 107.775 174.199 116.396 174.279 127.091C174.357 137.785 168.058 146.501 160.208 146.56C152.358 146.617 145.929 137.995 145.85 127.301C145.771 116.607 152.072 107.892 159.921 107.833Z" fill="black"/>
<path d="M156.24 117.399C157.013 112.903 161.143 109.861 165.464 110.604C169.784 111.347 172.66 115.594 171.887 120.09C171.114 124.586 166.984 127.628 162.664 126.885C158.342 126.142 155.466 121.895 156.24 117.399Z" fill="white"/>
<path d="M158.36 132.031C158.626 130.483 160.049 129.437 161.538 129.692C163.026 129.949 164.018 131.411 163.752 132.958C163.486 134.505 162.063 135.552 160.574 135.296C159.085 135.04 158.093 133.578 158.36 132.031Z" fill="white"/>
<path d="M160.129 82.1638C150.85 81.6274 145.647 89.7269 143.447 93.3204C141.945 96.9681 145.11 98.3087 146.988 97.3972C151.922 93.7496 157.984 86.8843 173.163 98.8992C176.113 100.186 179.385 98.0409 176.811 93.6428C172.949 88.2785 167.531 82.593 160.129 82.1638Z" fill="black"/>
<path d="M80.1429 93.6423C77.5681 98.0405 80.8403 100.186 83.7906 98.8987C99.024 86.8839 105.031 93.7496 109.966 97.3968C111.79 98.3087 115.008 96.9676 113.506 93.3199C111.307 89.7259 106.05 81.6269 96.8247 82.1633C89.4221 82.593 84.0047 88.2786 80.1429 93.6423Z" fill="black"/>
<path d="M143.663 155.272C143.926 155.237 144.194 155.226 144.471 155.247C146.618 155.405 148.233 157.273 148.076 159.421C147.919 161.569 146.05 163.182 143.902 163.026C143.902 163.026 138.835 162.655 136.702 165.072C136.741 160.536 140.313 155.159 143.663 155.272Z" fill="black"/>
<path d="M119.298 165.072C117.165 162.655 112.099 163.026 112.099 163.026C109.95 163.182 108.081 161.569 107.924 159.421C107.768 157.273 109.381 155.404 111.529 155.247C111.806 155.226 112.074 155.237 112.337 155.272C115.687 155.159 119.259 160.536 119.298 165.072Z" fill="black"/>
<path d="M148.99 29.1981C155.524 22.2732 156.714 12.732 151.888 5.99225C149.113 2.12646 144.672 0 139.377 0H139.376C138.947 0 138.506 0.0136636 138.065 0.0409909C132.125 0.407378 123.481 4.89866 111.637 13.7714C103.357 19.9742 96.6435 25.9922 96.3617 26.2453C94.8556 27.5985 95.7771 30.4825 95.7771 30.4825L102.812 29.5807C102.812 29.5807 118.445 53.8114 136.091 51.3079C146.022 49.899 147.981 42.4908 148.445 39.8052C148.989 36.6559 148.297 33.6206 146.967 31.1363C147.691 30.5043 148.366 29.8575 148.99 29.1981Z" fill="black"/>
<path d="M130.514 47.0099C120.755 47.6127 100.231 32.462 100.5 32.25C100.5 32.25 126.673 5.81414 138.375 5.09199C143.63 4.76912 146.384 7.00439 147.772 8.93906C151.17 13.6839 150.159 20.585 145.312 25.7225C143.573 27.5616 141.511 29.1015 139.524 30.3429L139.971 30.6161C142.119 32.0093 144.071 35.4019 143.458 38.9449C143.094 41.0516 141.501 44.8197 134.917 46.3855C133.592 46.7007 132.111 46.9107 130.514 47.0099Z" fill="#8C4B23"/>
<path d="M180.594 154.067C187.172 154.067 192.505 151.831 192.505 149.072C192.505 146.314 187.172 144.077 180.594 144.077C174.016 144.077 168.684 146.314 168.684 149.072C168.684 151.831 174.016 154.067 180.594 154.067Z" fill="#FF4076"/>
<path d="M78.1733 154.067C84.7514 154.067 90.084 151.831 90.084 149.072C90.084 146.314 84.7514 144.077 78.1733 144.077C71.5953 144.077 66.2627 146.314 66.2627 149.072C66.2627 151.831 71.5953 154.067 78.1733 154.067Z" fill="#FF4076"/>
<path d="M114.112 221.407C114.112 221.407 126.516 226.723 137.716 222.055C137.716 222.055 143.716 232.166 159.182 228.228C171.464 225.022 176.089 212.304 171.584 204.206C166.871 195.677 157.298 198.233 151.151 201.048L152.551 210.563C152.551 210.563 148.1 203.302 142.075 203.374C137.359 203.313 119.497 212.859 114.112 221.407Z" fill="#FF4076"/>
<path d="M107.783 120.907C109.653 122.591 109.7 125.537 107.923 127.314C104.322 130.915 98.5696 136.433 95.7169 137.368C91.4144 138.771 89.9645 132.786 91.6953 129.792C93.4255 126.846 100.581 123.993 100.581 123.993C100.581 123.993 95.39 122.871 91.9291 120.626C88.4686 118.381 89.6376 109.542 96.6521 113.33C96.6526 113.377 105.117 118.475 107.783 120.907Z" fill="black"/>
</g>
<defs>
<clipPath id="clip0_1101_2">
<rect width="256" height="256" fill="white"/>
</clipPath>
</defs>
</svg>
