<svg width="256" height="256" viewBox="0 0 256 256" fill="none" xmlns="http://www.w3.org/2000/svg">
<g clip-path="url(#clip0_1101_28)">
<path d="M0.367113 171.973C0.445761 172.299 0.537969 172.61 0.647534 172.914C2.44233 177.94 5.76019 181.439 9.89815 182.86C10.395 188.01 12.0721 192.361 14.9181 195.861C18.7322 200.558 22.8458 201.907 25.8973 202.125C53.7153 238.256 114.499 248.898 126.813 250.714C127.207 250.772 127.604 250.801 128 250.801C128.397 250.801 128.793 250.772 129.187 250.714C141.501 248.898 202.286 238.256 230.103 202.125C233.155 201.907 237.269 200.557 241.086 195.857C243.929 192.36 245.606 188.01 246.102 182.86C250.236 181.441 253.551 177.946 255.348 172.928C255.46 172.619 255.553 172.304 255.633 171.972C256.495 168.645 256.464 163.465 248.369 140.554C244.662 130.059 239.609 116.828 233.33 101.169C253.783 77.4243 254.798 54.1721 251.846 38.5028C248.492 20.7056 239.401 8.84167 239.016 8.34537C237.425 6.29619 235.025 5.19891 232.585 5.19891C231.166 5.19891 229.733 5.56991 228.436 6.34012L175.571 37.7293C167.869 34.1419 150.55 27.2529 128.543 25.783C128.362 25.771 128.181 25.7645 128 25.7645C127.819 25.7645 127.638 25.771 127.458 25.783C105.45 27.2529 88.1311 34.1419 80.4285 37.7293L27.5646 6.34012C26.2678 5.56991 24.8342 5.19891 23.4158 5.19891C20.9745 5.19891 18.576 6.29619 16.9846 8.34591C16.5995 8.84221 7.5078 20.7061 4.15469 38.5033C1.20132 54.1721 2.21669 77.4243 22.6695 101.17C16.3907 116.828 11.3382 130.06 7.63038 140.554C-0.464385 163.465 -0.494217 168.646 0.367113 171.973Z" fill="black"/>
<path d="M223.882 99.4836C265.522 55.7505 232.59 13.3354 232.59 13.3354L175.909 46.9902C175.909 46.9902 155.926 35.7653 128 33.9C100.074 35.7653 80.0913 46.9902 80.0913 46.9902L23.4106 13.3354C23.4106 13.3354 -9.5223 55.7505 32.1182 99.4836C20.6411 127.887 6.7014 164.318 8.26568 170.017C8.27816 170.076 8.29118 170.129 8.30636 170.17C10.2747 175.693 14.2608 176.635 18.306 174.082C17.3655 180.403 17.8087 186.52 21.2307 190.728C24.0039 194.143 26.9904 194.747 29.5603 193.256C53.9335 230.335 117.492 241.115 128 242.665C138.509 241.115 202.067 230.335 226.44 193.256C229.01 194.747 231.997 194.143 234.77 190.728C238.192 186.52 238.635 180.403 237.695 174.082C241.739 176.635 245.726 175.693 247.694 170.17C247.709 170.129 247.723 170.076 247.735 170.017C249.299 164.318 235.359 127.887 223.882 99.4836Z" fill="#EDA622"/>
<path d="M211.984 136.323C196.506 132.099 174.489 129.919 143.223 133.858C143.223 133.858 143.872 96.5824 128 93.9479C112.127 96.5818 112.777 133.858 112.777 133.858C81.5106 129.919 59.4946 132.099 44.0156 136.323C10.7205 145.412 7.72696 166.481 8.23953 169.864C8.25634 169.987 8.27967 170.096 8.30679 170.17C10.2752 175.693 14.2612 176.635 18.3065 174.082C17.3659 180.403 17.8091 186.52 21.2311 190.728C24.0044 194.143 26.9908 194.747 29.5607 193.256C53.934 230.335 117.493 241.115 128.001 242.665C138.509 241.115 202.068 230.335 226.441 193.256C229.011 194.747 231.998 194.143 234.77 190.728C238.192 186.52 238.636 180.403 237.695 174.082C241.74 176.635 245.726 175.693 247.695 170.17C247.722 170.096 247.745 169.987 247.762 169.864C248.273 166.481 245.28 145.412 211.984 136.323Z" fill="#F5F5F5"/>
<path d="M223.882 99.4836C265.522 55.7505 232.59 13.3354 232.59 13.3354L175.909 46.9908C175.909 46.9908 160.91 38.5722 138.748 35.1063C138.329 34.6555 137.73 34.3659 137.045 34.3659H133.235C131.524 34.1766 129.779 34.0188 128 33.9005C126.222 34.0193 124.476 34.1766 122.766 34.3659H118.955C118.271 34.3659 117.671 34.6555 117.252 35.1063C95.0908 38.5722 80.0918 46.9908 80.0918 46.9908L23.4111 13.3354C23.4111 13.3354 -9.52179 55.7505 32.1187 99.4836C22.6772 122.85 11.5754 151.635 8.80371 164.288C8.86283 164.298 8.92141 164.309 8.97999 164.32C10.5996 158.694 15.2019 150.145 26.9573 143.272C27.3147 142.015 27.7031 140.684 28.1164 139.303L44.7642 129.942C46.0958 129.192 45.5567 127.163 44.0293 127.173L32.0059 127.256C32.6264 125.474 33.2833 123.645 33.9803 121.778L53.2072 122.141C54.7341 122.169 55.2976 120.146 53.9758 119.382L38.531 110.453C48.1439 88.1985 63.0935 63.3919 85.7289 48.9581C85.9085 49.2249 86.145 49.462 86.4444 49.6447L103.696 60.1836C105.749 61.4376 108.125 59.1356 106.935 57.0447L99.1506 43.3562C98.9293 42.9667 98.6028 42.6581 98.2209 42.4531C103.973 40.0855 110.14 38.3672 116.75 37.4473L125.773 67.0596C126.443 69.2601 129.558 69.2601 130.228 67.0596L139.251 37.4473C145.642 38.3363 151.616 39.9749 157.204 42.2215C156.544 42.3489 155.96 42.7584 155.62 43.3556L147.836 57.0431C146.647 59.134 149.022 61.436 151.075 60.1819L168.327 49.6431C168.832 49.335 169.168 48.8772 169.329 48.3706C192.622 62.7925 207.9 88.1768 217.638 110.835L202.857 119.38C201.535 120.145 202.099 122.168 203.625 122.139L222.027 121.791C222.721 123.652 223.375 125.473 223.994 127.249L212.804 127.171C211.276 127.161 210.737 129.191 212.069 129.94L227.718 138.739C228.196 140.327 228.639 141.843 229.044 143.27C244.935 152.562 247.762 164.92 247.808 168.972L247.855 169.027C248.009 160.951 234.826 126.568 223.882 99.4836Z" fill="#D96F1E"/>
<path d="M232.326 28.3035L194.855 59.6319C209.551 72.7726 218.874 93.1088 218.874 93.1088C250.247 64.9051 232.326 28.3035 232.326 28.3035Z" fill="#FCC2DB"/>
<path d="M37.1256 93.1093C37.1256 93.1093 46.45 72.7726 61.1457 59.6325L23.6746 28.3035C23.6746 28.3035 5.75322 64.9051 37.1256 93.1093Z" fill="#FCC2DB"/>
<path d="M227.77 142.547C229.944 148.526 231.541 153.195 232.711 156.826L222.062 150.103C222.062 150.103 234.919 168.202 229.248 179.802C224.475 189.564 216.468 186.702 216.468 186.702C216.468 186.702 184.803 233.87 128 233.87C71.1959 233.87 39.5312 186.702 39.5312 186.702C39.5312 186.702 31.5248 189.564 26.7522 179.802C21.0815 168.202 33.9385 150.103 33.9385 150.103L23.289 156.826C24.4595 153.195 26.0569 148.526 28.2303 142.547C9.71657 152.732 7.82359 167.12 8.23907 169.865C8.24666 169.92 8.25588 169.97 8.26619 170.018C8.27812 170.076 8.29168 170.13 8.30633 170.17C9.5929 173.779 11.7403 175.432 14.2033 175.432C15.5094 175.432 16.9039 174.967 18.3055 174.082C17.3649 180.403 17.8081 186.521 21.2301 190.728C23.0704 192.994 25.0041 194.022 26.8477 194.022C27.7828 194.022 28.6951 193.758 29.5597 193.256C32.0043 196.974 34.853 200.419 37.9935 203.625L37.9875 203.631C38.1323 203.778 38.2815 203.923 38.4274 204.07L38.5364 204.181L38.5402 204.182C66.8323 232.511 118.606 241.28 128 242.665C138.508 241.115 202.067 230.336 226.44 193.256C227.304 193.758 228.217 194.022 229.152 194.022C230.995 194.022 232.93 192.994 234.769 190.728C238.191 186.52 238.635 180.403 237.694 174.082C239.096 174.967 240.49 175.432 241.796 175.432C244.259 175.432 246.407 173.779 247.693 170.17C247.708 170.13 247.721 170.076 247.733 170.018C247.744 169.97 247.753 169.919 247.76 169.865C248.176 167.119 246.283 152.732 227.77 142.547Z" fill="#EDA622"/>
<path d="M150.743 19.2075C148.268 15.761 144.266 13.7894 139.757 13.7894C139.422 13.7894 139.078 13.8003 138.736 13.8214C135.83 14.001 131.306 15.0988 122.017 22.0578C117.64 25.3366 114.049 28.5373 113.708 28.8432C111.273 31.0149 111.196 32.2321 112.27 35.3476L125.03 34.1874C125.03 34.1874 127.123 42.3798 133.15 45.5941C143.3 51.0072 149.873 44.3374 149.9 40.9501C149.911 39.5773 150.134 38.2305 149.926 36.9049C154.094 31.4879 154.486 24.4329 150.743 19.2075Z" fill="black"/>
<path d="M119.124 34.9137C119.124 34.9137 133.143 22.3175 139.236 21.9411C141.971 21.773 143.405 22.9364 144.129 23.9442C145.898 26.4143 145.371 30.0071 142.848 32.6817C141.943 33.639 140.87 34.4402 139.834 35.0867L140.068 35.2288C141.187 35.954 142.202 37.7206 141.883 39.5648C141.693 40.6615 140.865 42.6233 137.437 43.4391C128.14 45.7877 118.983 35.0238 119.124 34.9137Z" fill="#D96F1E"/>
<path d="M83.26 143.115C83.6369 147.418 75.9544 151.602 66.1023 152.461C56.2496 153.322 47.959 150.53 47.5826 146.231C47.2083 141.931 54.8898 137.746 64.7403 136.885C74.5935 136.023 82.8841 138.813 83.26 143.115Z" fill="#FF4076"/>
<path d="M170.013 142.886C169.636 147.189 177.319 151.373 187.171 152.232C197.024 153.093 205.314 150.301 205.691 146.002C206.065 141.702 198.384 137.517 188.533 136.656C178.68 135.794 170.389 138.584 170.013 142.886Z" fill="#FF4076"/>
<path d="M128.406 150.965C143.576 150.756 153.441 139.458 152.318 135.112C150.92 129.696 137.324 126.68 127.79 126.813C118.258 126.945 104.769 129.528 103.649 135.007C102.75 139.406 113.237 151.178 128.406 150.965Z" fill="#FF4076"/>
<path d="M125.014 130.537C129.129 130.537 132.465 131.914 132.465 133.614C132.465 135.314 129.129 136.69 125.014 136.69C120.899 136.69 117.563 135.313 117.563 133.614C117.563 131.914 120.899 130.537 125.014 130.537Z" fill="white"/>
<path d="M135.466 131.872C136.385 131.872 137.13 132.59 137.13 133.476C137.13 134.363 136.385 135.081 135.466 135.081C134.546 135.081 133.801 134.363 133.801 133.476C133.801 132.59 134.546 131.872 135.466 131.872Z" fill="white"/>
<path d="M105.694 153.777C105.694 155.285 104.472 156.507 102.964 156.507C101.457 156.507 100.235 155.285 100.235 153.777C100.235 152.27 101.457 151.048 102.964 151.048C104.472 151.048 105.694 152.269 105.694 153.777Z" fill="#EDA622"/>
<path d="M100.689 161.511C100.689 163.018 99.4679 164.24 97.9601 164.24C96.4522 164.24 95.2307 163.018 95.2307 161.511C95.2307 160.003 96.4527 158.781 97.9601 158.781C99.4674 158.781 100.689 160.003 100.689 161.511Z" fill="#EDA622"/>
<path d="M107.968 164.24C109.475 164.24 110.697 163.018 110.697 161.511C110.697 160.003 109.475 158.781 107.968 158.781C106.46 158.781 105.239 160.003 105.239 161.511C105.239 163.018 106.46 164.24 107.968 164.24Z" fill="#EDA622"/>
<path d="M150.308 153.777C150.308 155.285 151.53 156.507 153.037 156.507C154.544 156.507 155.766 155.285 155.766 153.777C155.766 152.27 154.544 151.048 153.037 151.048C151.529 151.048 150.308 152.269 150.308 153.777Z" fill="#EDA622"/>
<path d="M155.311 161.511C155.311 163.018 156.533 164.24 158.04 164.24C159.547 164.24 160.769 163.018 160.769 161.511C160.769 160.003 159.547 158.781 158.04 158.781C156.533 158.781 155.311 160.003 155.311 161.511Z" fill="#EDA622"/>
<path d="M148.033 164.24C149.54 164.24 150.762 163.018 150.762 161.511C150.762 160.003 149.54 158.781 148.033 158.781C146.525 158.781 145.303 160.003 145.303 161.511C145.303 163.018 146.525 164.24 148.033 164.24Z" fill="#EDA622"/>
<path d="M166.663 65.2544C155.447 64.6063 149.159 74.396 146.5 78.7396C144.685 83.1482 148.51 84.7689 150.779 83.6662C156.744 79.2581 164.07 70.9594 182.417 85.4816C185.982 87.0377 189.937 84.444 186.825 79.1285C182.157 72.6452 175.609 65.773 166.663 65.2544Z" fill="black"/>
<path d="M69.1759 79.1279C66.0642 84.444 70.0188 87.0372 73.584 85.481C91.9958 70.9594 99.2574 79.2576 105.221 83.6656C107.425 84.7678 111.315 83.1471 109.5 78.739C106.842 74.3955 100.489 64.6057 89.338 65.2539C80.3911 65.773 73.8433 72.6452 69.1759 79.1279Z" fill="black"/>
<path d="M219.164 129.364C219.834 125.526 214.346 122.832 207.109 122.792C199.844 122.955 193.372 125.849 192.691 129.755C192.02 133.593 197.509 136.287 204.745 136.327C212.242 135.99 218.616 132.806 219.164 129.364Z" fill="white"/>
<path d="M222.563 134.182C224.469 134.447 225.8 136.206 225.535 138.113C225.27 140.019 223.51 141.349 221.604 141.085C219.698 140.82 218.368 139.06 218.632 137.154C218.897 135.248 220.657 133.917 222.563 134.182Z" fill="white"/>
<path d="M154.572 125.193C157.226 126.827 160.357 127.78 163.692 127.78C166.959 127.78 170.022 126.895 172.676 125.262C175.262 123.696 177.439 121.45 178.937 118.728C180.298 116.278 179.345 113.147 176.895 111.786C174.445 110.424 171.314 111.377 169.953 113.827C169.34 114.917 168.455 115.87 167.366 116.55C166.277 117.23 165.052 117.571 163.691 117.571C162.33 117.571 161.037 117.163 159.948 116.55C158.859 115.87 157.974 114.917 157.361 113.76C156.068 111.241 152.938 110.288 150.488 111.582C147.969 112.875 147.017 116.006 148.309 118.456C149.808 121.315 151.986 123.56 154.572 125.193Z" fill="black"/>
<path d="M83.2784 125.193C85.9323 126.827 89.0636 127.78 92.3977 127.78C95.6646 127.78 98.727 126.895 101.382 125.262C103.968 123.696 106.146 121.45 107.643 118.728C109.004 116.278 108.051 113.147 105.601 111.786C103.15 110.424 100.02 111.377 98.6592 113.827C98.0468 114.917 97.1616 115.87 96.0725 116.55C94.9828 117.23 93.7586 117.571 92.3972 117.571C91.0363 117.571 89.7438 117.163 88.6541 116.55C87.5655 115.87 86.6809 114.917 86.0679 113.76C84.7749 111.241 81.6441 110.288 79.1941 111.582C76.6758 112.875 75.7222 116.006 77.0164 118.456C78.5145 121.315 80.6917 123.56 83.2784 125.193Z" fill="black"/>
<path d="M131.231 161.72C131.283 161.718 131.335 161.713 131.388 161.71C131.156 157.968 132.311 154.322 133.962 151.115C133.054 151.116 132.144 151.105 131.226 151.07C128.3 151.061 125.41 150.913 122.559 150.629C124.344 153.951 125.634 157.777 125.391 161.71C125.443 161.714 125.496 161.719 125.548 161.72C110.857 201.218 126.198 231.17 151.036 220.943C171.312 212.592 174.413 166.882 131.231 161.72Z" fill="black"/>
<path d="M160.138 216.788C160.138 216.788 158.184 228.509 142.947 228.509C149.588 233.979 164.435 230.853 160.138 216.788Z" fill="black"/>
<path d="M125.951 201.559C125.951 201.559 129.58 204.475 134.256 201.426C134.256 201.426 146.579 219.29 156.821 204.559C167.053 189.842 136.495 179.348 133.489 189.788L136.52 192.782C136.52 192.782 132.747 191.351 130.495 193.106C126.118 197.831 125.951 201.559 125.951 201.559Z" fill="#FF4076"/>
</g>
<defs>
<clipPath id="clip0_1101_28">
<rect width="256" height="256" fill="white"/>
</clipPath>
</defs>
</svg>
